<?xml version="1.0" encoding="utf-8"?>
<!-- Generator: Adobe Illustrator 25.2.0, SVG Export Plug-In . SVG Version: 6.00 Build 0)  -->
<svg version="1.1" id="Layer_1" xmlns="http://www.w3.org/2000/svg" xmlns:xlink="http://www.w3.org/1999/xlink" x="0px" y="0px"
	 viewBox="0 0 150 150" style="enable-background:new 0 0 150 150;" xml:space="preserve">
<style type="text/css">
	.st0{fill:#EDDFCA;}
	.st1{fill:#F00500;}
	.st2{fill:#FFFFFF;}
	.st3{fill:none;}
	.st4{fill:#FFA409;}
	.st5{fill:#FF9300;}
	.st6{fill:#FF8300;}
</style>
<circle class="st0" cx="75" cy="75" r="75"/>
<g id="Group_938" transform="translate(-953.348 -232.003)">
	<g id="Group_931">
		<path id="Path_8573" class="st1" d="M1051.2,266c-2.6,2.6-4.9,5.3-7,8.3l-0.7-0.2c-3.8-1.2-7.7-2-11.7-2.3c-1.2-0.1-5.7-0.1-7.1,0
			c-4.4,0.3-7.8,1-11.6,2.3c-0.2,0.1-0.3,0.1-0.4,0.2c-2.2-2.9-4.6-5.7-7.2-8.2c12.7-6.5,27.6-7.3,41-2.2c1.4,0.5,2.8,1.2,4.2,1.8
			L1051.2,266z"/>
		<path id="Path_8574" class="st1" d="M1074.9,324.2c-1.9,5.5-4.8,10.6-8.6,15.1c-2,2.4-4.3,4.6-6.7,6.6c-5.7,4.6-12.3,7.8-19.4,9.6
			c-7.8,1.9-16,1.9-23.8,0c-7.1-1.7-13.7-5-19.4-9.6c-2.4-2-4.7-4.2-6.7-6.6c-10.8-12.8-14.1-30.3-8.6-46.1c1-2.9,2.3-5.8,3.9-8.4
			c0.7-1.2,1.6-2.6,2-3.2c1.5,6.3,3.3,11.9,4,13.9c0,0.1-0.1,0.2-0.2,0.3c-3.6,7.2-5.5,14.2-6,21.6c0,0.1,0,0.2,0,0.3
			c-0.1,2.2-0.1,3.3,0.3,4.7c1.2,4.4,4.7,9.2,10.2,13.9c9.1,7.7,21.4,13.3,30.8,14c9.7,0.7,24.1-5,33.7-13.3
			c1.5-1.3,2.9-2.7,4.2-4.2c1-1.1,2.4-3,2.3-3c0,0,0,0,0.1-0.1c0,0,0.1-0.1,0.1-0.1c0,0,0-0.1,0.1-0.1c0,0,0.1,0,0.1-0.1
			c0,0,0-0.1,0.1-0.1c0,0,0.1-0.1,0-0.1c0,0,0-0.1,0-0.1s0.1,0,0.1-0.1s0-0.1,0.1-0.1s0.1,0,0.1-0.1c0-0.1,0.1-0.2,0.2-0.4
			c0.2-0.4,1.2-2,1.3-2.3c0.9-2,1.4-3.7,1.7-5.5c0.1-0.8,0.2-2.4,0.1-2.8c0-0.1,0-0.2,0-0.3c0-0.3,0-0.8-0.1-1.2
			c0-0.7-0.1-1.7-0.1-2.1c-0.7-7-2.4-12.7-5.8-18.7c-0.1-0.2-0.3-0.5-0.3-0.6c0,0,0-0.1-0.1-0.1l0,0c0.5-1.4,2.4-7.4,4-14.2l0,0
			l0.2,0.3c0.4,0.5,1.5,2.1,1.9,2.9c2.2,3.5,3.8,7.3,5,11.3C1078.4,304.6,1078.2,314.8,1074.9,324.2z"/>
		<path id="Path_8575" d="M1055,305.8c0,0.2-0.8,1-1.5,1.5c-2.1,1.5-5.9,3-9.8,3.7c-2.2,0.4-4.4,0.5-5,0.1c-0.4-0.2-0.5-0.4-0.3-0.9
			c0.3-1.2,1.4-2.4,3-3.6c0.8-0.6,4.2-2.6,5.8-3.5c2.6-1.4,4.7-2.3,6.1-2.5c0.4-0.1,1-0.1,1.2,0c0.3,0.1,0.6,0.9,0.7,1.9
			C1055.1,303.1,1055.1,305.4,1055,305.8z"/>
		<path id="Path_8576" d="M1018.9,310.9c-0.1,0.2-0.6,0.4-1.1,0.5s-2.1,0-3-0.1c-3.3-0.4-6.7-1.4-9.2-2.7c-1.4-0.7-2.4-1.4-3.2-2.1
			l-0.4-0.4l0-0.6c-0.1-1-0.1-2.6,0.1-3.2c0.1-0.5,0.2-0.9,0.5-1.3c0.1-0.2,0.1-0.2,0.7-0.2c0.7,0,1.2,0.1,2.2,0.4
			c1.9,0.6,4.7,2,8.1,4c2.8,1.7,3.9,2.5,4.7,3.7C1018.7,309.6,1019,310.6,1018.9,310.9z"/>
		<path id="Path_8577" d="M1040.6,332.3c0,0-0.2,0.8-0.4,1.7c-0.2,0.9-0.4,1.6-0.4,1.6c-0.2,0-0.3,0-0.5,0h-0.5l-0.7,1.6
			c-0.4,0.9-0.7,1.7-0.8,1.8l-0.1,0.2l-0.3-0.5l-0.3-0.5v-4.2l-0.1,0c-0.3,0.1-2.1,0.3-2.9,0.4c-3.4,0.3-6.7,0.3-10.1-0.2
			c-0.5-0.1-1-0.1-1-0.1c0,0,0,1,0,2.2l0,2.2l-0.3,0.4c-0.1,0.2-0.3,0.4-0.3,0.4c0,0-0.2-0.2-0.6-0.9c-0.4-0.7-0.7-1.5-0.9-2.3
			l-0.1-0.4l-0.5,0l-0.5,0l-0.1-0.6c-0.1-0.3-0.1-0.8-0.2-1l0-0.5l-0.4-0.4c-0.2-0.2-0.5-0.4-0.5-0.4c-0.1-0.1-0.1-0.2-0.1-0.3v-0.2
			l1.9,0l1.9,0l0.1,0.2l0.1,0.2l0.7,0c0.4,0,1.5,0,2.6,0.1l1.9,0l0.5-0.8l0.5-0.8h0.6l0-1.6l0-1.6l-0.8-0.4
			c-2.7-1.2-4.3-2.6-4.9-4.2c-0.1-0.3-0.1-0.5-0.2-2c0-1.5,0-1.7,0.1-2c0.2-0.8,0.8-1.4,1.6-1.6c0.3-0.1,1-0.1,4.6-0.1l4.3,0
			l0.5,0.2c0.6,0.3,0.8,0.5,1.2,0.9c0.4,0.5,0.5,0.9,0.5,1.8c0,1.3-0.1,2.5-0.2,2.9c-0.2,0.6-0.5,1.2-0.9,1.8c-0.8,1-2.2,2-3.4,2.4
			l-0.4,0.1l0,1.6l0,1.6l0.3,0l0.3,0l0.5,0.7l0.4,0.7h2.1c1.1,0,2.1,0,2.2,0c0.2,0,0.2,0,0.3-0.2l0.2-0.3h1.8
			C1040.2,332.2,1040.6,332.2,1040.6,332.3z"/>
		<path id="Path_8578" d="M1032.5,336.7c-0.3,0.2-0.5,0.2-0.5,0.2c0,0-0.3-0.2-0.5-0.4l-0.4-0.3l-0.4,0.5c-0.9,1-1,1.1-1.2,1.1
			c-0.4,0-0.5,0-1-0.8c-0.3-0.4-0.5-0.7-0.5-0.7s-0.2,0-0.4,0l-0.4,0l-0.2,0.4l-0.2,0.4l-0.4-0.1c-0.3-0.1-0.6-0.2-0.8-0.3l-0.5-0.2
			v-0.9l4.1,0l4.1,0l0,0.4C1033.2,336.3,1033.2,336.3,1032.5,336.7z"/>
	</g>
	<path id="Path_8579" class="st2" d="M1070.8,318c0-0.1,0-0.2,0-0.3c-3.7-0.4-14.2-0.6-23.9,7.4c0,0-3.1-14.4-17.9-14.4
		c-14.7,0-20.2,14.4-20.2,14.4c-8.3-8.9-19.3-8.2-23.3-7.7c0,0.1,0,0.2,0,0.3c-0.1,2.2-0.1,3.3,0.3,4.7c1.2,4.4,4.7,9.2,10.2,13.9
		c9.1,7.7,21.4,13.3,30.8,14c9.7,0.7,24.1-5,33.7-13.3c1.5-1.3,2.9-2.7,4.2-4.2c1-1.1,2.4-3,2.3-3c0,0,0,0,0.1-0.1
		c0,0,0.1-0.1,0.1-0.1c0,0,0-0.1,0.1-0.1c0,0,0.1,0,0.1-0.1c0,0,0-0.1,0.1-0.1c0,0,0.1-0.1,0-0.1c0,0,0-0.1,0-0.1c0,0,0.1,0,0.1-0.1
		c0,0,0-0.1,0.1-0.1c0,0,0.1,0,0.1-0.1c0-0.1,0.1-0.2,0.2-0.4c0.2-0.4,1.2-2,1.3-2.3c0.9-2,1.4-3.7,1.7-5.5
		C1070.8,319.9,1070.9,318.3,1070.8,318z M1032.5,336.7c-0.3,0.2-0.5,0.2-0.5,0.2c0,0-0.3-0.2-0.5-0.4l-0.4-0.3l-0.4,0.5
		c-0.9,1-1,1.1-1.2,1.1c-0.4,0-0.5,0-1-0.8c-0.3-0.4-0.5-0.7-0.5-0.7s-0.2,0-0.4,0l-0.4,0l-0.2,0.4l-0.2,0.4l-0.4-0.1
		c-0.3-0.1-0.6-0.2-0.8-0.3l-0.5-0.2v-0.9l4.1,0l4.1,0l0,0.4C1033.2,336.3,1033.2,336.3,1032.5,336.7z M1040.2,333.9
		c-0.2,0.9-0.4,1.6-0.4,1.6c-0.2,0-0.3,0-0.5,0h-0.5l-0.7,1.6c-0.4,0.9-0.7,1.7-0.8,1.8l-0.1,0.2l-0.3-0.5l-0.3-0.5v-4.2l-0.1,0
		c-0.3,0.1-2.1,0.3-2.9,0.4c-3.4,0.3-6.7,0.3-10.1-0.2c-0.5-0.1-1-0.1-1-0.1c0,0,0,1,0,2.2l0,2.2l-0.3,0.4c-0.1,0.2-0.3,0.4-0.3,0.4
		c0,0-0.2-0.2-0.6-0.9c-0.4-0.7-0.7-1.5-0.9-2.3l-0.1-0.4l-0.5,0l-0.5,0l-0.1-0.6c-0.1-0.3-0.1-0.8-0.2-1l0-0.5l-0.4-0.4
		c-0.2-0.2-0.5-0.4-0.5-0.4c-0.1-0.1-0.1-0.2-0.1-0.3v-0.2l1.9,0l1.9,0l0.1,0.2l0.1,0.2l0.7,0c0.4,0,1.5,0,2.6,0.1l1.9,0l0.5-0.8
		l0.5-0.8h0.6l0-1.6l0-1.6l-0.8-0.4c-2.7-1.2-4.3-2.6-4.9-4.2c-0.1-0.3-0.1-0.5-0.2-2c0-1.5,0-1.7,0.1-2c0.2-0.8,0.8-1.4,1.6-1.6
		c0.3-0.1,1-0.1,4.6-0.1l4.3,0l0.5,0.2c0.6,0.3,0.8,0.5,1.2,0.9c0.4,0.5,0.5,0.9,0.5,1.8c0,1.3-0.1,2.5-0.2,2.9
		c-0.2,0.6-0.5,1.2-0.9,1.8c-0.8,1-2.2,2-3.4,2.4l-0.4,0.1l0,1.6l0,1.6l0.3,0l0.3,0l0.5,0.7l0.4,0.7h2.1c1.1,0,2.1,0,2.2,0
		c0.2,0,0.2,0,0.3-0.2l0.2-0.3h1.8c1.4,0,1.8,0,1.8,0.1C1040.6,332.3,1040.4,333,1040.2,333.9z"/>
	<path id="Path_8580" class="st3" d="M985.5,317.4c-1,0.1-1.5,0.3-1.5,0.3"/>
	<path id="Path_8581" class="st3" d="M1072.2,317.8c0,0-0.5-0.1-1.4-0.2"/>
	<path id="Path_8582" class="st4" d="M1070.7,316.4c0-0.7-0.1-1.7-0.1-2.1c-0.7-7-2.4-12.7-5.8-18.7c-0.1-0.2-0.3-0.5-0.3-0.6
		c0,0,0-0.1-0.1-0.1l0,0c0.5-1.4,2.4-7.4,4-14.2c2.1-9.3,3.4-20.1-0.6-23.3c0,0-7.1-0.5-16.5,8.7c-2.6,2.6-4.9,5.3-7,8.3l-0.7-0.2
		c-3.8-1.2-7.7-2-11.7-2.3c-1.2-0.1-5.7-0.1-7.1,0c-4.4,0.3-7.8,1-11.6,2.3c-0.2,0.1-0.3,0.1-0.4,0.2c-2.2-2.9-4.6-5.7-7.2-8.2
		c-9.8-9.3-17.1-8.8-17.1-8.8c-4.3,3.4-2.9,14.7-0.6,24.2c1.5,6.3,3.3,11.9,4,13.9c0,0.1-0.1,0.2-0.2,0.3c-3.6,7.2-5.5,14.2-6,21.6
		c4-0.6,15-1.2,23.3,7.7c0,0,5.5-14.4,20.2-14.4c14.7,0,17.9,14.4,17.9,14.4c9.8-8.1,20.3-7.8,23.9-7.4
		C1070.8,317.3,1070.8,316.9,1070.7,316.4z M994.5,289.6c0,0-5.7-14.3-4.3-22.5l0,0c0.2-1.4,0.7-2.6,1.4-3.5c0,0,6.5,0.6,17,12.3
		c0,0-2,1-4.7,3c0,0,0,0,0,0C1001.1,281.1,997.4,284.7,994.5,289.6L994.5,289.6z M1018.9,310.9c-0.1,0.2-0.6,0.4-1.1,0.5
		s-2.1,0-3-0.1c-3.3-0.4-6.7-1.4-9.2-2.7c-1.4-0.7-2.4-1.4-3.2-2.1l-0.4-0.4l0-0.6c-0.1-1-0.1-2.6,0.1-3.2c0.1-0.5,0.2-0.9,0.5-1.3
		c0.1-0.2,0.1-0.2,0.7-0.2c0.7,0,1.2,0.1,2.2,0.4c1.9,0.6,4.7,2,8.1,4c2.8,1.7,3.9,2.5,4.7,3.7
		C1018.7,309.6,1019,310.6,1018.9,310.9z M1055,305.8c0,0.2-0.8,1-1.5,1.5c-2.1,1.5-5.9,3-9.8,3.7c-2.2,0.4-4.4,0.5-5,0.1
		c-0.4-0.2-0.5-0.4-0.3-0.9c0.3-1.2,1.4-2.4,3-3.6c0.8-0.6,4.2-2.6,5.8-3.5c2.6-1.4,4.7-2.3,6.1-2.5c0.4-0.1,1-0.1,1.2,0
		c0.3,0.1,0.6,0.9,0.7,1.9C1055.1,303.1,1055.1,305.4,1055,305.8z M1052.5,278.9L1052.5,278.9c-2.6-2.1-4.5-3-4.5-3
		c10.1-11.7,16.4-12.3,16.4-12.3c0.7,0.9,1.1,2.1,1.4,3.5l0,0c1.4,8.2-4.1,22.5-4.1,22.5C1059.3,285.5,1056.2,281.8,1052.5,278.9
		L1052.5,278.9z"/>
	<path id="Path_8583" class="st3" d="M1044.2,274.3c0,0,0,0.1-0.1,0.1"/>
	<path id="Path_8584" class="st3" d="M1064.4,294.8c-0.1,0.2-0.1,0.3-0.1,0.3"/>
	<g id="Group_934">
		<g id="Group_933">
			<g id="Group_932">
				<path id="Path_8585" class="st5" d="M1065.7,267.1c-1.2-0.2-6.9-0.2-13.3,11.8l0,0c-2.6-2.1-4.5-3-4.5-3
					c10.1-11.7,16.4-12.3,16.4-12.3C1065.1,264.5,1065.5,265.7,1065.7,267.1z"/>
			</g>
			<path id="Path_8586" class="st6" d="M1061.6,289.6c-2.3-4.1-5.4-7.8-9.2-10.7c6.4-12,12.1-12,13.3-11.8l0,0
				C1067.2,275.3,1061.6,289.6,1061.6,289.6z"/>
			<path id="Path_8587" class="st6" d="M1066,267.1c-0.1,0-0.2,0-0.2,0L1066,267.1z"/>
		</g>
	</g>
	<path id="Path_8588" class="st3" d="M1013.1,274.9c-0.2-0.2-0.3-0.4-0.5-0.6"/>
	<path id="Path_8589" class="st3" d="M991.6,295.4c0.2,0.5,0.3,0.8,0.3,0.8"/>
	<g id="Group_937">
		<g id="Group_936">
			<g id="Group_935">
				<path id="Path_8590" class="st5" d="M1008.7,275.9c0,0-2,1-4.7,3c0,0,0,0,0,0c-6.6-12-12.5-12-13.7-11.8
					c0.2-1.4,0.7-2.6,1.4-3.5C991.7,263.6,998.2,264.2,1008.7,275.9z"/>
			</g>
			<path id="Path_8591" class="st6" d="M1004,278.9c-2.9,2.2-6.6,5.8-9.5,10.7c0,0-5.7-14.3-4.3-22.5l0,0
				C991.5,266.9,997.4,266.9,1004,278.9z"/>
			<path id="Path_8592" class="st6" d="M990.3,267.1c-0.1,0-0.2,0-0.2,0L990.3,267.1z"/>
		</g>
	</g>
	<path id="Path_8593" class="st2" d="M1046.1,297.6c0,0-4.9,0.3-4.3-3.5c0.6-3.8,4.4-4.3,5.5-4.1s5.4,1.7,4.6,4.9
		c-0.8,3.2-1.8,2.6-2.5,2.8C1048.9,297.7,1046.1,297.6,1046.1,297.6z"/>
	<path id="Path_8594" class="st2" d="M1009.9,297.6c0,0-4.9,0.3-4.3-3.5c0.6-3.8,4.4-4.3,5.5-4.1c1.1,0.2,5.4,1.7,4.6,4.9
		c-0.8,3.2-1.8,2.6-2.5,2.8C1012.7,297.7,1009.9,297.6,1009.9,297.6z"/>
</g>
</svg>
