<svg xmlns="http://www.w3.org/2000/svg" viewBox="0 0 150 150"><title>icon-eth</title><circle cx="75" cy="75" r="75" fill="#e8e8e8"/><polygon points="74.99 18.74 74.23 21.31 74.23 95.7 74.99 96.46 109.52 76.04 74.99 18.74" fill="#343434"/><polygon points="74.99 18.74 40.46 76.04 74.99 96.46 74.99 60.35 74.99 18.74" fill="#8c8c8c"/><polygon points="74.99 102.99 74.56 103.51 74.56 130.01 74.99 131.26 109.54 82.59 74.99 102.99" fill="#3c3c3b"/><polygon points="74.99 131.26 74.99 102.99 40.46 82.59 74.99 131.26" fill="#8c8c8c"/><polygon points="74.99 96.46 109.52 76.04 74.99 60.35 74.99 96.46" fill="#141414"/><polygon points="40.46 76.04 74.99 96.46 74.99 60.35 40.46 76.04" fill="#393939"/></svg>