<svg xmlns="http://www.w3.org/2000/svg" viewBox="0 0 350.55 150"><title>icon-cryptos</title><circle cx="276.15" cy="75.28" r="74.4" fill="#988430"/><circle cx="276.15" cy="75.28" r="72.02" fill="#7a6a2a"/><circle cx="276.15" cy="75.28" r="70.5" fill="#ba9f33"/><path d="M234.28,67.33c-0.42-.38-0.87-0.77-1.28-1.16L231.75,65l-1.25-1.19c-0.2-.2-0.42-0.38-0.63-0.59l-0.65-.57c-1.66-1.58-3.33-3.15-5-4.73,1.7,1.55,3.36,3.1,5.06,4.67l0.59,0.59c0.2,0.2.42,0.38,0.63,0.59l1.25,1.16c0.42,0.38.83,0.77,1.25,1.19s0.83,0.81,1.25,1.19h0Zm-22.06-.24s6,0.63,9,1c2.73,0.39,11.28,1.7,11.28,1.7Zm0,0c1.7,0.14,3.4.32,5.09,0.51l2.53,0.26L221.12,68l1.25,0.18L227.43,69,230,69.42l2.53,0.45c-0.83-.08-1.7-0.2-2.53-0.33l-2.53-.36-5.06-.75-1.25-.2-1.28-.15c-0.83-.08-1.7-0.2-2.53-0.3-1.7-.2-3.4-0.42-5.09-0.69h0Zm19.67,4.32s-6.45,1.64-8.63,2.26-8.63,2.56-8.63,2.56l17.26-4.83h0Z" transform="translate(0 0)" fill="#cfb66c"/><path d="M231.9,71.41c-1.43.42-2.86,0.83-4.31,1.22l-4.31,1.16L219,75l-2.14.59c-0.71.2-1.43,0.38-2.17,0.59,0.71-.24,1.43-0.48,2.14-0.69l2.14-.69,4.29-1.31c1.46-.36,2.89-0.75,4.35-1.1s2.84-.7,4.3-1h0Zm-16.36,8.8c0.71-.27,8.9-4.08,10.8-5,1-.45,3.72-1.43,3.72-1.43Z" transform="translate(0 0)" fill="#cfb66c"/><path d="M215.54,80.21c0.63-.24,1.22-0.53,1.82-0.81l1.78-.83,3.58-1.72c1.19-.57,2.35-1.19,3.58-1.72,0.63-.26,1.25-0.48,1.88-0.69l1-.3,1-.27c-1.19.57-2.44,1-3.64,1.6s-2.41,1.07-3.64,1.6l-3.64,1.6c-1.22.49-2.41,1-3.63,1.53h0Zm0.79,3.33s7.42-4.35,10-5.74c1.34-.75,5.66-2.89,5.66-2.89Z" transform="translate(0 0)" fill="#cfb66c"/><path d="M216.33,83.55l3.8-2.35L222,80,224,78.91c0.65-.39,1.28-0.77,1.94-1.13a7,7,0,0,1,1-.51l1-.51c1.34-.65,2.67-1.31,4.08-1.88-1.28.81-2.59,1.49-3.9,2.2-0.65.36-1.31,0.69-2,1s-1.28.75-1.94,1.1-1.28.75-1.94,1.1l-2,1.07-4,2.14h0Zm15.57-7.68s-4.61,3.54-6.1,4.67-5.89,4.31-5.89,4.31Z" transform="translate(0 0)" fill="#cfb66c"/><polygon points="258.36 104.41 256 99.94 257.37 94.36 267.16 90.58 262.99 82.03 265.05 73.4 268.92 65.67 280.86 63.79 289.64 55.42 308.59 56.86 312.31 77.12 305.14 102.63 301.06 115.84 284.52 116.46 276.84 111.14 267.85 107.39 258.36 104.41" fill="#e2cc85"/><path d="M287.37,104.27a14,14,0,0,1-6.19.81c-1.13-1.52-9-2.23-9-2.23a4.42,4.42,0,0,0-2.73.42c-1.76.71-3.42,0.63-5,1s-3.1-1.64-4.29-2.06a16.72,16.72,0,0,1-2.77-1.52l-3.33-.33-6.69-2.83L236.72,87l-2.89,4.52-0.89,5.6,3.21,6.63,8.66,7.89,16.88,4.29,10-2.95,12.53-5.3,3.14-3.37h0Z" transform="translate(0 0)" fill="#f1d789"/><polygon points="227.41 66.83 229.55 60.34 232.1 56.15 240.32 55.46 237.85 62.66 230.98 74.89 233.84 85.81 228.78 88.34 227.22 85.96 225.97 80.49 225.89 74.35 227.41 66.83" fill="#f4ecb4"/><path d="M236.63,103.82l-1.58-2.2a3.62,3.62,0,0,1-.18-2,1.73,1.73,0,0,0,.08-1.34c-0.12-.35-1.13-1.55-1.07-2.59s-0.08-1.4.69-2.23a2.79,2.79,0,0,0,.57-2.2l1,0.65,0.24-.36a1.07,1.07,0,0,1,.38.77c0.08-.65-0.27-3.66.53-4.35s2.2,3.21,2.2,3.21l-0.87-5.66-2.23-5.8-4-5.3-0.24-5.84V68.13a19.65,19.65,0,0,0-2.32,5c-0.36,1.52.51,3.36,0.33,5.54s-0.33,2,.2,2.86,1.82,2.62,1.31,3.9c-0.45,1.1-2,.33-2,0.33a3.29,3.29,0,0,1-.71,1.22,2.7,2.7,0,0,0-.59-1.19c0,0.2-.08.48-0.08,0.48s-0.27-.83-0.53-1.88c-0.36-1.4-.75-3.24-1.1-4.23-0.14.57-.51,2.29-0.51,2.29l0.2,2.65,1,3.64,1,2.38L229.36,94l0.81,2,0.65,1.49,0.57,3.36,2.73,2.89,1.46,0.65,1.06-.54h0Z" transform="translate(0 0)" fill="#f3e19d"/><path d="M228.84,61.53a22.89,22.89,0,0,0-2.53,6.69,44.27,44.27,0,0,0-.71,11.49,47.57,47.57,0,0,0,1.6,9.46,52.74,52.74,0,0,0,3.42,8L230.7,97a12.69,12.69,0,0,1-1-2.47c-0.33-1.28-.45-2.79-0.75-3.48A16.61,16.61,0,0,1,228,89a9.05,9.05,0,0,0-.87-3,6.15,6.15,0,0,1-.69-2.41c-0.12-1.52.06-3.21-.08-4.61a18.55,18.55,0,0,1-.2-5.12c0.24-1.22,1.49-4.67,2.26-7.42,0.51-1.76.2-3.24,1.13-4.77a13.46,13.46,0,0,0,1.7-3.78c0.24-.84-2.46,3.71-2.46,3.71h0Z" transform="translate(0 0)" fill="#f2e8b0"/><path d="M238.14,60.19a3.94,3.94,0,0,0-1.49.83,21.72,21.72,0,0,0-1.34,1.78,14,14,0,0,0-1.22,2.62c-0.53,1-1.7,2.62-1.84,3.19s-0.38,3.21-.69,4.47a6,6,0,0,0,.3,2.79l0.69-.15a2.16,2.16,0,0,0,.69,1.49c0.69,0.59.81-2,.81-2l2.56-8.66,3.86-2.62,0.42-2.12-2.76-1.64h0Z" transform="translate(0 0)" fill="#f5eec0"/><path d="M240,64.12a6.47,6.47,0,0,0-2.71.77c-0.36.26-.51,0.48-0.89,0.81a5.89,5.89,0,0,0-1.78,1.9,12.63,12.63,0,0,0-1.1,4.14c-0.12.93-.12,1.78-0.2,2.53a10.53,10.53,0,0,0-.2,2.38c0.12,1.16,1.31,1.76,1.43,3.07L237,78.47l2.32-9.16,4.94-3.1-2.79-3.13-1.48,1h0Z" transform="translate(0 0)" fill="#e6db9d"/><path d="M227,125.81l0-.27c0.36-3.1.42-5.44,0.69-6.91a18.15,18.15,0,0,0,.59-3.64,16.35,16.35,0,0,1-.06-3.13c0.18-1.28,1.43-2.79,1.4-3.84a3.25,3.25,0,0,0-.81-1.88l-0.65-.93s2.47-1.7,2.44-8.54l0.14,0.06L232,100.2l0.83,1,3.19,5.95,4.11,4,6.07,4.08,3.8,4.14,0.38,11-5,6.45-0.81,1.47A70.72,70.72,0,0,1,227,125.81h0Z" transform="translate(0 0)" fill="#e5cb7a"/><path d="M242.19,136.38a3.4,3.4,0,0,1,1.22-2.26,1.35,1.35,0,0,1,.27.81,7.18,7.18,0,0,1,4.88-3.27,5,5,0,0,0,4-2.95l6.87-6.25,7.86-7.24,9.56-3.36,4.47-1.1a2.47,2.47,0,0,1-.08,1,21.74,21.74,0,0,0,4.59-1.16,1.79,1.79,0,0,1,1.88,0,4.13,4.13,0,0,1,.69,2.53c0.93-.2,2-1.1,2.86-1,1.37,0.14,2.59,1.76,4,1.76,1.84,0,2.67-1.13,4-2,0.77-.53,1.88-1.19,2.5-1.64,1.49-1.1,17.29-5.92,17.29-5.92l5.54,0.36,0.89,5.95-0.48,15.55-0.18.17-25.18,13.15-34.9,5.35a70,70,0,0,1-22.31-7.68l-0.18-.79h0Z" transform="translate(0 0)" fill="#d8c173"/><path d="M229.12,127.79c0.5-1,.94-1.9,1-2.22,0.06,0.63.18,2,.4,3.46q-0.72-.61-1.42-1.24h0Z" transform="translate(0 0)" fill="#f1d789"/><path d="M254.61,142.42l4.51-1.26,0.38,0.12a0.59,0.59,0,0,1,.2.53c0.57-.32,1-0.27,1.4-0.48,0.18,0.38.36,1.66,1.16,1.82a3.53,3.53,0,0,0,2.62-1,17.52,17.52,0,0,1,2.67-2,14.35,14.35,0,0,1,.75,1.6c1-.81,2.77-4.08,5.27-4a9.5,9.5,0,0,1,3.48-4.2,7.57,7.57,0,0,1,5.6-1.55,9.57,9.57,0,0,1,2.62-2.35,2.42,2.42,0,0,0,2.17.14c1-.48,2.23-2.35,3.78-2.59a3.65,3.65,0,0,1,2.41.51s4.52-4.49,7.64-6c-0.12-.36-0.36-1.72,3.3-4.73,0.2,0.18.06,0.69,0.2,0.71a8.5,8.5,0,0,0,2.08-1.25A16.94,16.94,0,0,1,311,114a5.71,5.71,0,0,1,3.93.59,1.81,1.81,0,0,1,.57-0.27,7.45,7.45,0,0,0,1.1-.24,7.61,7.61,0,0,1,0,2.62,5.85,5.85,0,0,0,1.19.51,5.38,5.38,0,0,1-1.4,2.12,8.55,8.55,0,0,0,1.6,1,17.68,17.68,0,0,0-1.22,1.9c-0.27.57-1.22,2.91-1.64,3.8s-1,2.53-1.34,2.86a22.88,22.88,0,0,1-2.14,2.41c0.71-.27,3.64-1.16,4.88-1.49l-4,6a70.64,70.64,0,0,1-57.83,6.69h0Z" transform="translate(0 0)" fill="#e0cd81"/><path d="M240.32,63.79a4.36,4.36,0,0,0-1.25.14c-0.2.14,1,.45,1.43,0.59a3.29,3.29,0,0,1,1.43,1.34c0.2,0.51,7.52,3.45,7.52,3.45l5.18-.27,1.78-2.47-3.4-3,2.38-7-3.15.51-7.58,4.52-3.8,1.46-0.54.71h0Z" transform="translate(0 0)" fill="#dfc57c"/><path d="M251.69,66.12a0.81,0.81,0,0,0,.71.38,3.2,3.2,0,0,1,2.47.81c0.69,0.87,2.59,3.64,2.59,3.64L262,72.58l0.29-5.36-5-3.45-5.66,2.08v0.27h0Z" transform="translate(0 0)" fill="#e5cc7c"/><path d="M250.8,68.1a5,5,0,0,0,1.88-.33c1-.39,2.77-1.22,3.52-0.89,1,0.45.83,1.84,2,3.1,0.69,0.77,1.94.75,2.65,1.58S264,72,264,72l0.93,5-3.72,4.77-1.22,5.92h-5l-4.6-1.82-2.26-5.48,1.13-5.54,1.61-6.76h0Z" transform="translate(0 0)" fill="#d2c281"/><path d="M260.53,68.34a1.36,1.36,0,0,0,.38.06,1,1,0,0,0-.33,1.07c0.12,0.69.51,1.55,0.18,2.08a2.6,2.6,0,0,1,.57,1,1.4,1.4,0,0,0,1.6,1.22,2.81,2.81,0,0,0-.53.42,8.8,8.8,0,0,1,1.4,1.55,11.49,11.49,0,0,0,1.76-.42l0.27,0.18,0.57-.24s-0.53-.2-0.14-1.49a1.6,1.6,0,0,1,.71-1.16,11.83,11.83,0,0,0,.27-1.76,21.1,21.1,0,0,0,.32-2.53l-0.38-4.2L265,62.81l-1.76-1.7-1.66,3.13-1.09,1.09L260.39,68l0.13,0.3h0Z" transform="translate(0 0)" fill="#e2c270"/><path d="M265.74,64.83a14.72,14.72,0,0,1,.53,1.94,1.86,1.86,0,0,0,.08-0.51s0.3,1.66.36,2.35c0.12,0,.24-0.06.27,0.06a10,10,0,0,1,.24,2.2,6,6,0,0,1,2-2,3.54,3.54,0,0,1,1.64-.65c0.93,0,1.6.59,2.71,0.59,2.67,0,5.09-2,6.87-2.56a9.09,9.09,0,0,0,3.24-1.49,8.46,8.46,0,0,0,1.7-2.12c0.83-1.43,1.7-2.67,2.56-2.83a5.38,5.38,0,0,1-1.19.08s0.27-.27.71-0.63a2.78,2.78,0,0,1,1.76-.81c1.37,0,2.06.2,2.83,0.2a3.85,3.85,0,0,0,1.22-.2,4.85,4.85,0,0,0,2.62.57c1.82,0,3,.18,4,0.27S304,59,305,59a4.43,4.43,0,0,1,1.72.42l-2.95-8.57-10.6-9.26-6.31,4.47-9.7,9.7-9.39,3.48-2,2.2v3.36h0Z" transform="translate(0 0)" fill="#ccb360"/><path d="M286.81,59.91s0.27-.26.71-0.63a2.77,2.77,0,0,1,1.76-.81c1.37,0,2.06.2,2.83,0.2a3.83,3.83,0,0,0,1.22-.2,4.85,4.85,0,0,0,2.62.57c1.82,0,3,.18,4,0.26s4.14-.26,5.06-0.24a4.41,4.41,0,0,1,1.72.42l-1.34-3.86-1.55-2.95-4.43-4.85L294,44.67s-1.84-.51-1.84-0.51l-4.82,2.91L283,58.39l-0.08,2.38,2.83,1.34c0.71-1.19,1.49-2.14,2.23-2.26-0.66.07-1.17,0.07-1.17,0.07h0Z" transform="translate(0 0)" fill="#d5b457"/><path d="M286.75,60.72a0.76,0.76,0,0,1-.87-0.36c-0.36-1-.65-1.16-1-1.16a5.63,5.63,0,0,0-1,.71,1.24,1.24,0,0,1-.53-0.75L283.18,59a16.13,16.13,0,0,0-2.65,2.2c-1.1,1.19-2.89,3.21-3.7,3.58s-3.58.48-4.52,0.69a5.86,5.86,0,0,0-2.14,1c-0.14.16,0.42,0.32,0.51,0.48s-0.93.08-1,.24a3.89,3.89,0,0,0,.39,1.16,2,2,0,0,1,.83-0.2c0.93,0,1.6.59,2.71,0.59,2.67,0,5.09-2,6.87-2.56a9.09,9.09,0,0,0,3.24-1.49,8.51,8.51,0,0,0,1.7-2.12,15.07,15.07,0,0,1,1.35-1.93h0Z" transform="translate(0 0)" fill="#d2b257"/><path d="M248.42,120.3s-0.24-.89-2.44-3.19c-0.63-.65-1-1.19-1.43-1.58a19.29,19.29,0,0,0-2.41-1.82c-1.64-1.22-3.42-1.22-4.79-2.71a24.94,24.94,0,0,1-4.08-7.26c-1.1-2.91-1.4-3.84-1.4-3.92a0.76,0.76,0,0,1,.69-0.57c0.38,0.08.38,0.83,0.48,1a6,6,0,0,0,.65.83,7.91,7.91,0,0,1,1.78,2.59,11.7,11.7,0,0,0-.42-2.08s2.12,1.34,3.92,2.73,2.56,1.88,3.1,2.77a42.81,42.81,0,0,0,2.38,3.93c0.6,0.69,8.81,3.27,8.81,3.27l3.91,2.91,1.94,4.25-1.52,2.38-2.91.63-4.73-2.12-1.52-2.05h0Z" transform="translate(0 0)" fill="#d2b159"/><path d="M237.9,105.66a11,11,0,0,0,3.4,3.07,32.57,32.57,0,0,0,8.66,3.21,24.23,24.23,0,0,0,5.09.77c4.25,0.06,7.18-1.16,10.8-1.55a51.88,51.88,0,0,0,6.87-1,35.36,35.36,0,0,0,7.71-2.86c1.88-.87,3.6-1.52,5-2.35,2-1.16,3.4-2.44,5.06-2.83a4.29,4.29,0,0,1-2.06,2.62c0.87,0,2.06-.08,2.06-0.08a38.63,38.63,0,0,0-3.19,2.23c-1.25,1-2.91,2.56-4.61,3.64-1.1.69-2.29,1.19-3.07,1.6a13.78,13.78,0,0,0-3.92,2.86,1.7,1.7,0,0,1,.48,0,9.38,9.38,0,0,0-2.71.81,3.66,3.66,0,0,0-1.37.12c-0.57.18-1.31,0.59-2.08,0.81a2.62,2.62,0,0,1-1.46.18l0.18,0.36s-1.43,0-1.9,0c0.08,0,.06.06,0.06,0.06a0.73,0.73,0,0,0-.24.08,2.48,2.48,0,0,1-.75.32c-0.14,0-.27,0-0.45.06,0.06,0.14.53,1,.75,1.43-0.18.12-2.89,2.17-2.89,2.17a2.06,2.06,0,0,1,.2.42c0.08,0.26.12,0.65,0.2,0.83a1.09,1.09,0,0,0,.32.42s-0.32.06-.89,0.2a15.64,15.64,0,0,1-1.9.45,7.55,7.55,0,0,1-.77.06,2.1,2.1,0,0,1-.33,2.44,7.72,7.72,0,0,0-1.58,2.08,3.23,3.23,0,0,0-.48-0.3,2,2,0,0,1-.93-0.65,7.72,7.72,0,0,1-.36,1.13,14.07,14.07,0,0,0-.83,2.2,2,2,0,0,0-1.76-.93,3,3,0,0,0-1.64,1.6c0-.2-0.14-0.36-0.18-0.12a9.15,9.15,0,0,1-3,5.27c0-.57,0-1.82-0.08-2.23A5.84,5.84,0,0,1,247,135.7c-1.7.75-1.43,1.49-1.43,1.49a3.73,3.73,0,0,1,.77-2.44c0.93-1.25,1.49-1.84,1.49-1.94a0.54,0.54,0,0,0-.12-0.27,1.26,1.26,0,0,1-.36-0.36,2.42,2.42,0,0,0,1.49-2.17,3.84,3.84,0,0,0-1-2.41,3.1,3.1,0,0,0,.48-0.65,4.67,4.67,0,0,1-.93-1,2.77,2.77,0,0,1,.12-0.53,1.5,1.5,0,0,0,.12-0.63,5,5,0,0,0-.48-1.22,6.53,6.53,0,0,0,.69,0,6,6,0,0,1-.57-1.13,14.65,14.65,0,0,0-.36-1.49,1.94,1.94,0,0,0,.71,0c0-.18-0.45-0.48-0.24-0.71a1.21,1.21,0,0,1,.69.48,2.75,2.75,0,0,0-.89-1.43,2.19,2.19,0,0,1,1.76.12,2.36,2.36,0,0,1,1,1l1.07,0.81a11.68,11.68,0,0,0,3.21,2,3.33,3.33,0,0,0,1.76.06,2.7,2.7,0,0,0,.75-0.3,1.38,1.38,0,0,1,.27-0.12,5.77,5.77,0,0,0-.45-0.75c0.2,0,.45,0,0.45,0a1,1,0,0,0-.51-1,0.68,0.68,0,0,0,.33-0.48,1.42,1.42,0,0,1-.65-0.45,2.69,2.69,0,0,1,.51-0.45,5.78,5.78,0,0,0-.83-0.81,3.78,3.78,0,0,0,.57-0.27,6.93,6.93,0,0,1-1.34-.48,8,8,0,0,0-1.1-.77,3,3,0,0,1-1-.42,3.29,3.29,0,0,0,.77,0c0.18,0,.27,0,0.32,0s0-.27.45-0.32a2.2,2.2,0,0,0,.65-0.2,1.66,1.66,0,0,1-1-.51,3.71,3.71,0,0,0-1.22-.93c-0.3-.06-0.87.2-1.22,0.18a1.1,1.1,0,0,1-.69-0.3s-1.6.14-5.15-2a18.16,18.16,0,0,1-4.41-3.54,5.28,5.28,0,0,1-.83-0.39c-1.16-.6-2.76-1.85-2.71-3.49h0Z" transform="translate(0 0)" fill="#c2a44d"/><path d="M282.2,33.4a1.56,1.56,0,0,1,.71.48,2.22,2.22,0,0,1-.36,3.19,2.06,2.06,0,0,0,1.16.18,5.63,5.63,0,0,0-1.52,2.65,1,1,0,0,0,.45,1,4,4,0,0,0-.81,2.38A9.65,9.65,0,0,1,283,42.2a31.62,31.62,0,0,1,2.95-2,1.7,1.7,0,0,0,.08.63s1.55-1.28,2.86-.71a0.93,0.93,0,0,1,.32,1.1,1.38,1.38,0,0,1,1.37.27A25.65,25.65,0,0,1,292.38,44a19,19,0,0,1,1.13,1.55,19.64,19.64,0,0,1,1.64,3.45c0-.63.18-1.6,2-1a10.93,10.93,0,0,1,5.5,4.52c1.7,2.58,2.12,5.5,3,6.61a9.43,9.43,0,0,1,1.82,3.6c0.06,0.75-.27,3.15,1.52,9.67,0.51-2,1.28-6.51,1.28-6.51l0.42-4,0.48-12.26L298.3,39.11l-10-7.26-6.51.63,0.41,0.93h0Z" transform="translate(0 0)" fill="#caa13e"/><path d="M306,51.64s-0.18-1.19-3.19-3.21-5.36-2-7.52-3.7c-1.66-1.34-3.4-4.41-4.52-5.42s-1.28-3.89-1.28-3.89l3.7-3.1,5.5-7.94,4.65-5.12,2.23,3.1,3.1,3.64,1.72,7.3L311,44l-5,7.67h0Z" transform="translate(0 0)" fill="#b59544"/><path d="M309.69,64.44a13.57,13.57,0,0,0-.59-4.79,88.27,88.27,0,0,0-3.33-8.49c-0.33-1.82-.08-2,0.27-2.17s1.66-1,2.38-3.58a3.39,3.39,0,0,1,2.95-2.71l1.37-1,2.08,5.21,1.82,4.71,0.57,3.6,0.42,3.07-1,6.49-4.88,4.41-2.07-4.74h0Z" transform="translate(0 0)" fill="#c89d3a"/><path d="M241.66,136.77v-0.13a1,1,0,0,0,.26-0.24,1.57,1.57,0,0,1,.2-0.3,2.27,2.27,0,0,1,1-.18,7.61,7.61,0,0,0,1.52.36c0.87,0,1.88-.69,3.48-0.38,2.41,0.45,3,2.08,4.37,3a2.77,2.77,0,0,0,2.08.36h0.32a2.21,2.21,0,0,1,.75-0.48,3.42,3.42,0,0,1,.83.45c0.71,0.08,2.08-.36,2.77-0.18a1.32,1.32,0,0,1,.87.87,1.34,1.34,0,0,1-.33,1.34,5.32,5.32,0,0,0-1.6,1.9,6.77,6.77,0,0,1,.53.45,70.09,70.09,0,0,1-17-6.83h0Z" transform="translate(0 0)" fill="#ceb052"/><path d="M305.77,112.72A41.62,41.62,0,0,0,308.3,109c0.65-1.28-2.06-17.47-2.06-17.47l5.44-17.83-0.15-5.8a53.35,53.35,0,0,1,.89-7.68c0.75,1.34,3.07,2.95,3.58,3.8a44.29,44.29,0,0,0,.93-8.78c0.45,0.69,1.52,7.58,1.52,7.58l1.07,4.65,1.4,4.94,1.55,5.21,0.93,3.6,0.53,0.87,0.45,1.52,0.42,1.64L326,89.06l0.71,3.15,0.57,5.72a8.72,8.72,0,0,1,.27,1.34,5.59,5.59,0,0,1-.08,1.1,13.13,13.13,0,0,1,.12,2.32,3.27,3.27,0,0,1-.87,2.38c-0.75.68-1.22,4.77-1.22,4.77l-1.34-.89a3.63,3.63,0,0,0-.36-2.32,2.35,2.35,0,0,0-2.53-1.16,7.63,7.63,0,0,0-2.5.75,14.61,14.61,0,0,1-2.41,2.12c-1.19.71-3.13,0.77-4.16,1a11.12,11.12,0,0,0-3.42,1.78,19.09,19.09,0,0,1-3,1.59h0Z" transform="translate(0 0)" fill="#cca847"/><path d="M305.77,139l0.23,0.14a70.71,70.71,0,0,0,22.54-16.71c-0.07-2.44-.16-4.93-0.26-5.86-0.2-2-.06-4-0.12-5.12s-0.71-5.86-1-7.08a3.08,3.08,0,0,0-1-1.82,14.51,14.51,0,0,0-.59,2.86c0,0.57-.12,1.94-0.12,2.29a0.42,0.42,0,0,1-.12-0.33c-0.12.3-.27,0.83-0.33,0.89a5.24,5.24,0,0,0,0-.63c-0.08-.12-0.24-0.06-0.2-0.36a3.45,3.45,0,0,1,.08-0.53,5.52,5.52,0,0,0-.63,1.88,4.21,4.21,0,0,1-.36,1.49,4.83,4.83,0,0,0-.59.81,2.49,2.49,0,0,0,.48.83c0,0.3-.42,1.7-0.57,2.38s-0.08,2-.24,2.71a1.62,1.62,0,0,1-.65,1.25c0.3,0.06.59,0.14,0.59,0.14a4.45,4.45,0,0,1-.65,3.3c-0.38.53-.48,0.77-0.89,1.25a5.53,5.53,0,0,0-1.49,2.56,4.31,4.31,0,0,1-.08-0.59,28.45,28.45,0,0,0-1.78,2.29c-0.69,1.07-1.64,1-1.9,1.28a1.27,1.27,0,0,0-.24,1.13,1.27,1.27,0,0,0-1,1.07,2.25,2.25,0,0,1-1.07,1.28,5.7,5.7,0,0,1-1.6.51,1.94,1.94,0,0,1,.57.18,9.55,9.55,0,0,1-1.94,1.37,4.05,4.05,0,0,0-1.6,1.94,1.39,1.39,0,0,1-1.16.89c0.24,0.14.59,0.48,0.77,0.59a2.68,2.68,0,0,0-1.52.75,3.4,3.4,0,0,1-1.52,1h0Z" transform="translate(0 0)" fill="#c39d3c"/><path d="M289,144.6a6.81,6.81,0,0,1,1.49-.79,31.75,31.75,0,0,1,4.65-1.13,17,17,0,0,1,2.26-.75l-0.07.6A70.16,70.16,0,0,1,289,144.6h0Z" transform="translate(0 0)" fill="#d2ba6b"/><path d="M323.65,95.21a14.8,14.8,0,0,1-1.07,3.4c-0.69,1.31-1.43,3.13-1.43,3.13a5.73,5.73,0,0,1,.14-1.22,34.2,34.2,0,0,0-3.57,2.26A12.1,12.1,0,0,0,316,104.6a36.36,36.36,0,0,0,1.25-3.84,77.37,77.37,0,0,0-7,6.16l-6.56,5.31a22.71,22.71,0,0,1-2.34,1.09c-1.13.48-2.47,0.89-3.45,1.28a5.47,5.47,0,0,1,1.28-1.94,14.19,14.19,0,0,0,2.79-3.57,3.25,3.25,0,0,0,0-2.41c-0.33.08-1.07,0.12-1.58,0.27a3.08,3.08,0,0,0-1,.69,24.66,24.66,0,0,1,1.22-4.29c-0.63,0-1.7.2-1.7,0.2a15.27,15.27,0,0,1,4-4.25,13.16,13.16,0,0,0-2.29.71c-1.49.63-3.13,1.55-4.35,2.06a95.74,95.74,0,0,0,8.37-14.23c2.86-6.39,3.92-8,4.55-11.46a52.28,52.28,0,0,0,.32-6.45,43.3,43.3,0,0,0,.18-5.56,13.22,13.22,0,0,1,3.64,9.38c0.08,5.84-2.67,13.72-5.6,18,0.71,0.2,2.56.45,4.47-2.86a38.92,38.92,0,0,0,2.56-5.6,5,5,0,0,1,.06.93,25.22,25.22,0,0,0,4.08-7.58c0.27,1.82,1,3.42-.18,6.75-1.1,3-2.53,3.74-2.53,3.74a5.69,5.69,0,0,0,1.76-.75,2.36,2.36,0,0,0,.45,1.13,1.64,1.64,0,0,1,.77.77,8.82,8.82,0,0,0,1-1.55,32.89,32.89,0,0,0,.24,7.24,2.45,2.45,0,0,0,2.53-1.82,7.45,7.45,0,0,0-.14,4,4.73,4.73,0,0,0,.94-0.94h0Z" transform="translate(0 0)" fill="#c0993a"/><path d="M292.37,28.85a7.1,7.1,0,0,1-2.5.38c-1.37,0-1-.53-3.13-0.53-3.3,0-14.82,1.9-16.84,1.88-1.31,0,4.43.57,4.43,0.57L289,31.36l2.95-.24,1.1-2.23Z" transform="translate(0 0)" fill="#a88f33"/><path d="M254.31,57.54a16.76,16.76,0,0,0-2.67,2.53,18.65,18.65,0,0,1-2.12,2.71,1.85,1.85,0,0,0,.63-0.08,0.36,0.36,0,0,1-.14.3,0.84,0.84,0,0,1,.69.24,1.22,1.22,0,0,0-.42,1.72,1.85,1.85,0,0,0,1.31.71s-0.2.59,0.65,0.53c1.84-.08,3.9-0.89,4.85-0.69A2.66,2.66,0,0,1,259.25,67a2.87,2.87,0,0,0,1.34,1.34,6.83,6.83,0,0,0,.33-2.67,8,8,0,0,0,.57-2.71l-0.63-4.61-2.73-3.46-3.54,2-0.27.69h0Z" transform="translate(0 0)" fill="#e3c571"/><path d="M257.67,56.86a1.47,1.47,0,0,0,1.37.69A0.62,0.62,0,0,0,259,58L259,58.55a1.12,1.12,0,0,0,.33-0.24c0.06,0.27-.06.69,0,1a2.19,2.19,0,0,0,.18.53l0.06-.12a4.73,4.73,0,0,0,.83,1.19,0.49,0.49,0,0,1,.06-0.24,0.83,0.83,0,0,0,.14.42L260.5,61a13.74,13.74,0,0,0,.38,2.89,1.35,1.35,0,0,0,.14-0.2c0-.06,0,0.53-0.08,1a4.16,4.16,0,0,0,0,1,3.16,3.16,0,0,1,.71-0.42,2.57,2.57,0,0,0,1.31-1.58,10.54,10.54,0,0,0,.48-1.72,2.4,2.4,0,0,1,.24.71c0,0.3.59,0.14,0.59,0.14l0.12-1.31,0.71-3,0.65-1.84,3.13-4.88,5.66-4.36,4.94,1.13,4.16-5.66-7.18-4.31-6.79.71-6.16,8.54-4.94,7.74-0.89,1.28h0Z" transform="translate(0 0)" fill="#d8b65b"/><path d="M293.24,44.51a7.84,7.84,0,0,0-1.64.71c-1.22.63-2.06,0.83-2.53,1.76a4.55,4.55,0,0,0-.51,1.66,11.51,11.51,0,0,1,1.31-.48c0.51-.12,1.07-0.08,1,0.12a1.4,1.4,0,0,1-.24.38s1,0,.93.45a2.48,2.48,0,0,1-.36,1.22,6.4,6.4,0,0,0-1,.87,3.9,3.9,0,0,0,0,1,7.24,7.24,0,0,1-1.78,2.83,15.19,15.19,0,0,0-1.9,2.59,16.51,16.51,0,0,1-1-2.26c-0.24.12-1.52,0.83-1.52,0.83l-3-10.32,0.06-.69a1.84,1.84,0,0,0,.33-0.93,2.49,2.49,0,0,1-1.1-.83,7.36,7.36,0,0,0-2.06-1.72,1.31,1.31,0,0,0-1-.77c-0.72-.15-1.16-0.26-1.16-0.26a1.26,1.26,0,0,0,.57-0.45,7.45,7.45,0,0,1-1.78.18,7.46,7.46,0,0,0-1.64,0c-0.54.08-1.19,0.33-1.43-.51-0.27-.2-0.83,0-1.31.69a2.75,2.75,0,0,1-1.58,1.55,3.23,3.23,0,0,1-.42,1.16,13.23,13.23,0,0,1-1.25,1.55c-0.89,1-.75,2.77-2.17,4.08s0.24-3.64.24-3.64l2.29-5.48,6.51-6.37,10.11-.69,1,5.24,4.94,1.7,3.12,4.76h0Z" transform="translate(0 0)" fill="#d3ae4d"/><path d="M294.84,45.66l-4.25-6.13-3-2.29s-2.12-3.9-2.26-4a28,28,0,0,0-3.4-.38l0.24,0.59a1.56,1.56,0,0,1,.71.48,2.22,2.22,0,0,1-.36,3.19,2.06,2.06,0,0,0,1.16.18,5.63,5.63,0,0,0-1.52,2.65,1,1,0,0,0,.45,1,4,4,0,0,0-.81,2.38A9.65,9.65,0,0,1,283,42.23a30.89,30.89,0,0,1,2.95-2,1.7,1.7,0,0,0,.08.63s1.55-1.28,2.86-.71a0.93,0.93,0,0,1,.32,1.1,1.38,1.38,0,0,1,1.37.27,25.48,25.48,0,0,1,1.78,2.59,19,19,0,0,1,1.13,1.55,19.63,19.63,0,0,1,1.64,3.46,1,1,0,0,1,1-1.16l-1.26-2.26h0Z" transform="translate(0 0)" fill="#caa13e"/><path d="M231.13,63.07a4.15,4.15,0,0,1,0-2.2,22.17,22.17,0,0,0,.93-4.29,15.28,15.28,0,0,1,1.55-4.82L237.47,50l2.73,0.75L241,54.41l-3.46,1.9a2.65,2.65,0,0,1-1.16,1.46c-1,.65-2.32,1.16-2.65,1.82a5.3,5.3,0,0,0-.42,1.28,1.81,1.81,0,0,0-1.58.45,2.31,2.31,0,0,0-.63,1.76h0Z" transform="translate(0 0)" fill="#f4efc8"/><path d="M238.93,62.09a1.76,1.76,0,0,0-.57.71,14.5,14.5,0,0,1-.83-4.73c0-2.06-.15-2.57.33-3.28s2.34-1.46,2.08-2.73-1.37-1.72-2.73-1.37c-1,.24-1.66,2.26-2.65,3.27-0.75.77-1.64,0.65-1.88,1.07a3.52,3.52,0,0,0-.12,1.49,7.21,7.21,0,0,1-.87,1.55c-1.1,1.58-2.95,3.8-3.19,5.8a9.93,9.93,0,0,1,.33-2.41l-0.18-.3,1.19-3.9,0.77-3.21,1.72-5.38,3-5.5,2.95-3.3,3.07,0.2,0.36,4.61,1.76,8.66,3.7,4.55-5.92,4-2.35.2h0Z" transform="translate(0 0)" fill="#ebcc73"/><path d="M240.77,63.73a1.5,1.5,0,0,1-.69,0c-0.18-.1-0.36-0.2-0.3-0.33a3.88,3.88,0,0,0,.38-0.42,0.34,0.34,0,0,0-.3-0.36,0.33,0.33,0,0,0-.36.14,1.36,1.36,0,0,0-.48-0.24l0.38,0a3.75,3.75,0,0,0-1-.3,3.62,3.62,0,0,1,1.28-.71c0.38,0,.63-0.06.57-0.26a1.23,1.23,0,0,0-.69-0.63,0.8,0.8,0,0,0-.08-1,1.14,1.14,0,0,1-.08-1.13,7.65,7.65,0,0,1,.53-0.71,1.94,1.94,0,0,1,.51-0.63,6.33,6.33,0,0,1,.89-0.38,1.2,1.2,0,0,1,1-.14,0.33,0.33,0,0,1,.14.42,2.17,2.17,0,0,1,1.58.08,11.93,11.93,0,0,0,2.56.59l0.65,1.31-4.31,3.7-1.78.89-0.36.06h0Z" transform="translate(0 0)" fill="#e5c66b"/><path d="M246.75,57.69a16.64,16.64,0,0,0-1.64,1.22c0.18,0,.48.15,0.36,0.33a19.41,19.41,0,0,0-1.49,1.4,9.21,9.21,0,0,0-1.16,1.7,6.11,6.11,0,0,1-2,1.4c1,0,3-1.22,3.72-1.22a0.73,0.73,0,0,0,.63.81,4.68,4.68,0,0,0,3.27-.75c1.64-1,1.1-1.72,1.78-2.2,1.31-.87,1.84-1.64,2.56-2.12a4.68,4.68,0,0,1,1.1-.59s0-.36.24-0.32a0.32,0.32,0,0,1,.27.2,7.39,7.39,0,0,1,2.86-1.13,0.17,0.17,0,0,1-.08-0.08,0.37,0.37,0,0,0,.14-0.12s0.08-.12.14-0.06,0.14,0.51.27,0.69a4.4,4.4,0,0,0,.77-1.25l1.22-3.48V48.91l-1,.18-7.14,3-4.33,4.49-0.51,1.07h0Z" transform="translate(0 0)" fill="#e6bd62"/><path d="M267.32,42.1a4,4,0,0,0,1.1-.45,5,5,0,0,1-.77,1.72,14.54,14.54,0,0,0-1.16,2c-0.51,1-.57,2.41-1,3a2.2,2.2,0,0,1,.69-0.2,3.18,3.18,0,0,0-.69.87A4.11,4.11,0,0,1,264,51a11.58,11.58,0,0,0-3.24,2.26c-1.22,1.31-2.47,3-3.1,3.57a8.92,8.92,0,0,0,.89-2.44c0.12-.75,0-1.64.18-2.62a8.58,8.58,0,0,1,1.19-3.42c1-1.72,2.67-7.71,2.67-7.71l3.64-1.16,1.1,2.6h0Z" transform="translate(0 0)" fill="#b6933f"/><path d="M264.69,39.89a10.14,10.14,0,0,0-1.4,3c-0.3,1.4,0,1.28-.2,2a2.56,2.56,0,0,0,0,1.28,4.53,4.53,0,0,1,1.52-1.49A12.42,12.42,0,0,0,267,43a8.78,8.78,0,0,1,2-2.2c-0.45-.06-1.07-0.27-1.19-0.24a27,27,0,0,1,3.13-2.2c1.34-1,1.25-1.34,3.42-2.29a14.8,14.8,0,0,1-1.64,0c0.24-.51,1.07-0.75,1.9-1.58s-0.53-2.06-.53-2.06l-6.35,3.84-3.07,3.61h0Z" transform="translate(0 0)" fill="#c49937"/><polygon points="247.46 37.03 247.61 35.87 249.43 32.96 251.33 27.84 251.33 20.85 251.18 16.8 251.48 14.15 251.71 13.31 251.95 12.99 253.51 13.79 255.65 16.71 255.85 22.33 253.77 31.2 247.82 37.69 247.46 37.03" fill="#dfc068"/><path d="M252.19,12.66s-1,0-1.16,4-0.3,6-.45,8a43,43,0,0,1-.65,4.31,11.86,11.86,0,0,1-.81,3.7,8.5,8.5,0,0,1-1.94,2.89,12,12,0,0,1-3.64,2,18.77,18.77,0,0,0-4.31,1,6.55,6.55,0,0,0-1.78,1.13,22.74,22.74,0,0,0-4.79,6.49c-2.14,4.23-4.29,16.16-4.29,16.16l0.48-.81A7.65,7.65,0,0,1,230,58.58c1-1.88.75-4,2.2-7.58a41.35,41.35,0,0,1,2.14-4.67,17.34,17.34,0,0,1,4.71-5.74,14.88,14.88,0,0,1,5.74-2.29L248,36.15s0.57-1.1,1.31-2.35A15.2,15.2,0,0,0,252,27.23c0.45-4.23-.63-7-0.57-9.5s0.08-4.35.59-4.79,0.14-.28.14-0.28h0Z" transform="translate(0 0)" fill="#a88f33"/><path d="M252.19,31.56a46,46,0,0,0,2.08-6.63c0.12-.63.36-1.25,0.42-1.76,0.3-2.95.38-4.17,0-5.78-0.3-1.19-1.46-2.26-2.06-3.1s-0.87-1.19-.75-1.37a1.33,1.33,0,0,1,1-.45,3.58,3.58,0,0,1,2.56,1.19c0.93,1.07,1.66,4.71,1.66,4.71l0.77,4.8,2,6-7.71,2.35h0Z" transform="translate(0 0)" fill="#c99e3d"/><path d="M265.62,27.9a1.22,1.22,0,0,1-.75,0,1.07,1.07,0,0,1-.48,1,40.66,40.66,0,0,0-5.24.2,4,4,0,0,1-2.89-3.3c-0.48-1.94.36-4.61,0.08-6.37-0.42-2.59-1-3.1-1.07-3.9s-0.12-1-.12-1.52a2.79,2.79,0,0,0-.69-0.14,1.66,1.66,0,0,0-.2-0.87,4.79,4.79,0,0,1,2.29,1.28,4.31,4.31,0,0,1,1.1,1.4,11.19,11.19,0,0,1,2.26,2.67c0.63,1.24,1.84,5.21,2.12,5.86a4.32,4.32,0,0,0,.71,1.13c0.7,0.87,1.72,2.3,2.88,2.54h0Z" transform="translate(0 0)" fill="#b58634"/><path d="M257.82,15.76a33.36,33.36,0,0,1,2,3.66,16.61,16.61,0,0,0,2,4c-0.48-1.4-1.34-4.14-1.84-5.12a11.73,11.73,0,0,0-2.14-2.53h0Z" transform="translate(0 0)" fill="#a88f33"/><path d="M249.63,35.55A17.6,17.6,0,0,0,246.15,37c-0.75.38-1.46,0.71-2.14,1a37.4,37.4,0,0,1-5.21,2l0.18,0.2a1.52,1.52,0,0,0,.33.93c-0.18.18-2.59,1.82-1.88,7.3,0.48-.18,1-0.42,1.13-0.42a2.42,2.42,0,0,0,.36.42,2.42,2.42,0,0,0,1.4-1c0,0.33-.38,3.6,1.55,5.8,0.36-.42,1.28-1.82,1.28-1.82l0-.45a12.09,12.09,0,0,1,.59-3,7.91,7.91,0,0,1,1.49-2.47l5.15-7.36-0.77-2.59h0Z" transform="translate(0 0)" fill="#e6c367"/><path d="M244.81,46.35a2.85,2.85,0,0,1-.77.38,3,3,0,0,1,.51-2.35c0.83-1.22,2.65-2.79,3.15-4a8.78,8.78,0,0,1,3.07-5.42c2.89-2.59,4-3.48,4-3.48l4.67-2.35,5.74,2.26-2.85,11.18-2.21,5.24-8.81-1.66-6.52.23h0Z" transform="translate(0 0)" fill="#dcba5a"/><path d="M248.18,43.31l1.1-1.37V41a6.23,6.23,0,0,0,2.53-1.66c1.31-1.34,3.13-3.9,4.73-3.74S258.29,39,258.35,40a25.32,25.32,0,0,0,.59,4.17c0.36,1.13-3.9,5.42-3.9,5.42l-2.89,2.2-4-8.44h0Z" transform="translate(0 0)" fill="#e9ce77"/><path d="M251.57,54.74s0.89-1.4.24-1.7a10.29,10.29,0,0,1,1.1-1.78A9,9,0,0,1,255,48.47c1.64-1.54,2.65-2.56,2.91-3.6a9.48,9.48,0,0,0,.27-2.06,3.91,3.91,0,0,0,.57.38,3.36,3.36,0,0,1,1.34,3.24,5.32,5.32,0,0,1-1,2.95,14.17,14.17,0,0,1-1.28,1.13,2.64,2.64,0,0,1-1.72.87,1.14,1.14,0,0,1,.33-0.18,2.21,2.21,0,0,0-1.52.36c-0.53.48-1.66,2-2.22,2.41l-1.19.77h0Z" transform="translate(0 0)" fill="#cdae50"/><path d="M291.6,31.32a14.5,14.5,0,0,0-4.43-.87c-2.53-.08-6.22.06-9.85,0.08-3.9,0-7.44-1.34-12.35-1.58-0.81-.48-2.86-2.59-9.26,1.88,0.38,0,4.65-1,6.13.87s1.07,5,.87,5.72c-0.39,1.66-1.64,4.08-2.14,5.78s-0.39,2.59-.75,3.78-1.16,1.78-.69,3.15c0.63-.38,1-0.38,2-2.73s0.83-4,2.56-6a39.13,39.13,0,0,1,5.6-5.42c1.07-.69,9.61-5.12,18.54-0.89,2.15-.23,3.77-3.77,3.77-3.77h0Z" transform="translate(0 0)" fill="#d2a83e"/><path d="M259.31,29.68a1.1,1.1,0,0,0-.06-0.27,1.93,1.93,0,0,0-.33-0.48,15.45,15.45,0,0,0-3.19-.27c-1.88.2-3.58,2.53-4.37,3.72a22,22,0,0,1-2.85,4,0.4,0.4,0,0,0-.06-0.27,0.16,0.16,0,0,1-.06.2c-0.12.12-.12,0.18-0.06,0.24l0.18,0.18a14.76,14.76,0,0,0,4-2.86,20.08,20.08,0,0,1,5.21-3.72,7.33,7.33,0,0,1,1.6-.47h0Z" transform="translate(0 0)" fill="#c29637"/><path d="M300.41,20.63s-0.39.48-.87,1c-1.07,1.13-2.47,2.41-3.66,3.72s-2.41,2.23-3.84,3.86-3.1,3.45-3.52,4a3.93,3.93,0,0,0-.69,1.84l-0.45-.3a3,3,0,0,0,.36.53c0.3,0.42.77,1,1,1.28a3.89,3.89,0,0,1,.63,1.37c0.14,0,1.07.2,2.23-1.7s2.67-4,2.67-4l2.41-3.58,1.52-3,1.9-3.4,0.29-1.61h0Z" transform="translate(0 0)" fill="#ac8132"/><path d="M302.88,18.2a18.35,18.35,0,0,0-2,1.9c-0.57.71-1.9,2.59-1.9,2.59l0.48-.06,2.44-2.17,1-1.7,0-.57h0Z" transform="translate(0 0)" fill="#a88f33"/><path d="M302.43,113.87a2.51,2.51,0,0,1,.53-1.58,11.45,11.45,0,0,0,3.4-4.71,30.92,30.92,0,0,0,1.55-4,17.47,17.47,0,0,1-4,2.65c0.36-.75.57-1.28,0.75-1.66-0.2-.18-1.07-0.38-1.16-0.48,0.48-.48.75-1.66,1.72-2.44,1.25-1,3.54-2.59,5.32-4s5.27-4.85,5.72-5.84a2.18,2.18,0,0,1,.32.63s-1.76,2.29-2.67,3.74a3.57,3.57,0,0,0-.75,2l1.66-.71s0.48,1.78-1.7,4.49c1-.36,1.34-0.14,1.88-0.45a8.44,8.44,0,0,0-3.27,3.46,14.86,14.86,0,0,1-5.27,6.13,43.69,43.69,0,0,0-4,2.84h0Z" transform="translate(0 0)" fill="#a67a2e"/><path d="M295.91,32.57a13.28,13.28,0,0,0-1.13,3.66c0,0.39-.12.69-0.12,1.13a13.85,13.85,0,0,1-.24,3.78,2,2,0,0,0-.3-0.63c-0.18.51-.51,2.08-0.77,2.67a12.56,12.56,0,0,1-.36-3.3c0-1.58.06-1.88,0.06-2.2a9.65,9.65,0,0,1-.51,1.52c-0.18-.32-0.38-0.75-0.63-1.1a6.81,6.81,0,0,1-.48.77c0-.14-0.08-0.53-0.12-1.07a15.26,15.26,0,0,1,0-1.6,7.25,7.25,0,0,1,1.64-2.77,23.15,23.15,0,0,0,3-4.91c0.38-.83,2-4.29,2-4.29h1.25l-1.82,4.14s-1.1,2.26-1.66,3.1-1.76,3.21-2.29,4.14c0.38-.51.71-0.77,1.1-1.25a19.83,19.83,0,0,0,1.41-1.79h0Z" transform="translate(0 0)" fill="#8c6228"/><path d="M302.9,18a5.18,5.18,0,0,1-1,1.72c-0.75.89-2.35,2.08-3.13,3a8.2,8.2,0,0,0-1.49,6.45,10.82,10.82,0,0,1,1.88-3.4,26.05,26.05,0,0,0,3.1-4.43,7.45,7.45,0,0,0,.71-2.35l0.24-.3-0.14-.69-0.2,0h0Z" transform="translate(0 0)" fill="#cba94c"/><path d="M327.28,97.9a13.15,13.15,0,0,1-.63-2.5c-0.14-1.19.24-1.43-.2-2.79a1.1,1.1,0,0,0-.87-0.83,7.09,7.09,0,0,1-.18-2.06,7.71,7.71,0,0,0-.14-2,1.88,1.88,0,0,1-.57-1.16,12.77,12.77,0,0,0-.59-1.6,2.62,2.62,0,0,1-.57-0.77,2.1,2.1,0,0,1,.48-1c0-.3-0.38-0.06-0.48-0.14s0.3-1,.15-1.13a1.52,1.52,0,0,1-.59.3c-0.12-.15-0.27-1.58-0.48-2.53s-0.42-1.6-.45-1.88-1.66-4.94-2.06-6.07a28.69,28.69,0,0,1-.81-2.91,15,15,0,0,0-.27-1.6,2.61,2.61,0,0,1-.12.69c-0.08,0-.38-2.08-0.48-2.41a16.73,16.73,0,0,1-.71-2.23c-0.12-.81-0.38-2.91-0.57-4.35s-0.27-2-.27-2.38a14.84,14.84,0,0,0-.14-2.62,24.46,24.46,0,0,0-1.13-4.43c-0.81-2-2.95-7.2-3.33-8.49,0-.33.42-0.14,0.42-0.14s1,2.62,1.82,4.65a31.14,31.14,0,0,0,1.64,4A15,15,0,0,1,317.94,55c0.51,3.25.69,6.25,1,8.25a21.43,21.43,0,0,0,.57,3c0.32,1.1.83,2.23,1.49,4a26.21,26.21,0,0,1,1.22,3.72c0.27,1.34.27,2.35,0.42,3s0.36,1.7.87,3.33,1.25,3.74,1.76,5.06a28,28,0,0,1,1.58,6,57.62,57.62,0,0,1,.46,6.62h0Z" transform="translate(0 0)" fill="#a88f33"/><path d="M303,17.9L302.9,18a0.25,0.25,0,0,1,.14.3,7.2,7.2,0,0,1-.06,1c-0.06.42-.18,0.75-0.2,1a5.07,5.07,0,0,1-.71,2.83c-0.24.45-.38,0.83-0.51,1.1a3.25,3.25,0,0,1-.63,1c0.42-.24,1.94-1.19,2.71-1a5.65,5.65,0,0,0-1.84,1.66,4.14,4.14,0,0,0,1.43,0,19.87,19.87,0,0,1,4.14-.59c1.43,0.08.87-1.72,0.87-1.72L306.59,20l-3.13-2.2L303,17.9h0Z" transform="translate(0 0)" fill="#be9c44"/><path d="M311.13,45.13s-1.4-1.4-2-6.19a111.44,111.44,0,0,1-.45-11.9l-1.13-2.77a6.46,6.46,0,0,0-.83-2.53c-0.59-.69-1.76-1.84-2.29-2.41A7.1,7.1,0,0,0,303,17.88c0.18-.3,1-2,4.08-2s4,1.7,4.37,2.32a22.73,22.73,0,0,1,2.32,8.49c0.51,5.15.53,5.54,0.45,7.32a41.44,41.44,0,0,1-1,5.72c-0.52,2.07-1.08,4.38-2.12,5.43h0Z" transform="translate(0 0)" fill="#a17c34"/><path d="M306.75,49.24a2.36,2.36,0,0,0,1.34-.3,3.76,3.76,0,0,0,3.3-1.4,2.81,2.81,0,0,1-.27,2.2,5,5,0,0,1,.81-0.51c0,0.45.45,1.82-1.34,5.15a2.1,2.1,0,0,1,1.55-.57c0,0.63.36,2.73-.53,3.86a1.57,1.57,0,0,1-1.55.53,3,3,0,0,0,0-.51,2.48,2.48,0,0,1-.06-0.87,4.32,4.32,0,0,1-1.25-.87c-1-1-2.41-2.67-2.5-3.92a1.55,1.55,0,0,1,1.13-1.7,1.34,1.34,0,0,1-.27-0.33,1.83,1.83,0,0,0-.36-0.79h0Z" transform="translate(0 0)" fill="#8c6228"/><path d="M297.46,34.09s-0.06-.08-0.38.3c0.06-.38.12-0.75,0.14-1.1a3.78,3.78,0,0,1,.59-0.89c-0.18.36-.3,0.69-0.3,0.69a4.85,4.85,0,0,1,1.1-1.34,7.92,7.92,0,0,0,1.25-.87,2.23,2.23,0,0,0,.27-0.48,7.49,7.49,0,0,0,1.49-1.52c0.12-.14.3-0.3,0.42-0.45s0.69-.3,1.25-0.59,1.25-.77,1.66-1c0.81-.36,1.66-0.32,2.06-0.89a2.07,2.07,0,0,0,.57-1.76A7.29,7.29,0,0,1,311.09,29c0.57,2.2-.45,5.6-0.87,7.24s-0.48,2.85-1.07,3.6c-0.75,1-3.15,2.38-3.74,3.07s-2,2-2,3a2.12,2.12,0,0,0,1.22,1.34,0.52,0.52,0,0,0,.59.24c0.39-.09.53-0.27,0.69-0.27s0.18,0.06.26,0.06l0.18,0s-0.06,1.1-2.62,1.43c-0.18,0-.36.08-0.59,0.12A1.47,1.47,0,0,0,304,48.2c-0.36-.06-1.4-0.12-1.66-0.2a3.2,3.2,0,0,1,.59-0.71c0.2-.18,0-0.24-0.2-0.14a9.64,9.64,0,0,0-.89.69,8.67,8.67,0,0,1-1,1,2.35,2.35,0,0,1,.45-2.06,1.35,1.35,0,0,1-.69.36,3.83,3.83,0,0,1,.08-1.31,6,6,0,0,1,.93-1.49l3.78-6.75,0.81-5.12-8.66,1.68h0Z" transform="translate(0 0)" fill="#92723a"/><path d="M297.26,34.38s-0.2.14,0.2,0.42a4.6,4.6,0,0,1-.39.59,2.89,2.89,0,0,0-.51.59,3.29,3.29,0,0,0-.32.89,4.39,4.39,0,0,1-.57,2.08,8.89,8.89,0,0,0-.53,1,7.49,7.49,0,0,0-.63,1.19,12.48,12.48,0,0,0-.2,1.58l0.36-.45a3.39,3.39,0,0,1-.53.87c0.14-.12.57-0.42,1.28-1a31.68,31.68,0,0,1,4.41-3.33,6.44,6.44,0,0,1-1.43.27c0.3-.3,3-3.48,4.43-3.78a0.57,0.57,0,0,0,.12-0.39l-1.22-.12-2.47.53-0.36-1.9-1.65,1h0Z" transform="translate(0 0)" fill="#b18e3e"/><path d="M301.18,45.22a3.34,3.34,0,0,0-.63,1.13,3.79,3.79,0,0,1-.59-0.81,2.07,2.07,0,0,0-2.73-1.16,5,5,0,0,1,0-1.13,6.24,6.24,0,0,0,1.88-1.66,7.69,7.69,0,0,0,1.46-2.35c0.24-.18.65-0.48,1.19-0.83a4,4,0,0,0,1.84-2.06,4.92,4.92,0,0,1-2.29.45,1.27,1.27,0,0,0,1-1.31l0.33-.2a1.19,1.19,0,0,0-.42-0.06,0.18,0.18,0,0,0-.27-0.14c-0.2.06-.24,0.06-0.27,0.14a1.28,1.28,0,0,0-.57.15,8.72,8.72,0,0,1-1,.71l0.2-.36a4.18,4.18,0,0,0-1,.24,21,21,0,0,0-2.56,1.22,0.71,0.71,0,0,1,.18-0.27,0.78,0.78,0,0,0,.2-0.08,0.87,0.87,0,0,1,0-.32,11,11,0,0,1,1-1.64,3.19,3.19,0,0,0,.51-1.37l1.84-.93,5.18-1.19,3.36,0.2-0.42,2.32-2,4.06-1.7,3.7L303,43.92l-1.78,1.3h0Z" transform="translate(0 0)" fill="#543e26"/><path d="M309.57,35.16A30.1,30.1,0,0,1,307,38c0.36-.77,2.59-5.36,3.4-6.63-0.18-.14-0.42-0.14.14-2.38a5.33,5.33,0,0,1-1,2,0.75,0.75,0,0,1-.71.2,0.5,0.5,0,0,0,.06-0.3s-1.7-.2-2.86-0.2a17.06,17.06,0,0,0-4.73,1.13,19.32,19.32,0,0,0-1.94.69c-0.36.3-.57,0.63-0.75,0.71a3.46,3.46,0,0,0-1,.53c-0.14.24-.38,0.51-0.38,0.57s-0.06.15,0.12,0.08,0.51-.27,1-0.57c0.69-.38,1.52-0.83,2.12-1.1a9.81,9.81,0,0,1,3-.71,18.9,18.9,0,0,1,2.73-.48,22.92,22.92,0,0,1,2.56.06,0.72,0.72,0,0,0-.2.77,3.76,3.76,0,0,1-.24.65c-0.36,1-1,2.62-1.43,3.46-0.53,1.13-1.13,2.08-1.43,2.67a19.44,19.44,0,0,1-1.6,3c-0.65.83-1,1.34-1.19,1.52S301,45,301.11,45.35a8,8,0,0,0,3.15-2.08c1.22-1.37,1.46-2.2,2.41-2.95a8,8,0,0,0,2.14-3,13.3,13.3,0,0,1,.76-2.12h0Z" transform="translate(0 0)" fill="#806031"/><path d="M266,53.85a3.78,3.78,0,0,1-.87,1.64c-0.59.53-1.64,1-1.76,1.88s1,1.34,1,1.34a4.63,4.63,0,0,0-.65,1.88,12.43,12.43,0,0,0,.06,1.78,0.79,0.79,0,0,0-.24.24,2,2,0,0,0,.65,1.25,1.84,1.84,0,0,0,1.4.65,2.84,2.84,0,0,1,.12.3s0.45-1.13.75-2.12a6.57,6.57,0,0,0,.69-2.23,13,13,0,0,1,1.43-3.7l0.89-2L268,53.63l-2.06.22h0Z" transform="translate(0 0)" fill="#b6903c"/><path d="M268.69,55.81a8.76,8.76,0,0,0-.83,1A2.89,2.89,0,0,1,266.61,58c-0.57.21-.93,0.2-0.89,0.77a1.78,1.78,0,0,0,.87,1.1,1.41,1.41,0,0,1,.45,1.37,1.38,1.38,0,0,0,.81-0.83c0.3-.65,2.4-4.61,2.4-4.61h-1.55Z" transform="translate(0 0)" fill="#685026"/><path d="M277,46.67a1.19,1.19,0,0,0,0-.83c-0.18-.36-1.28-0.48-1.82-0.89a2.15,2.15,0,0,0-1.82-.53c0.08-.2.42-0.65,0.14-0.75a3.27,3.27,0,0,0-1.52.57c-0.27.2-.87,0.45-1,0.59s-0.33.42-.45,0.3-0.18-.3-0.38-0.18a4.89,4.89,0,0,0-1.37,1.4A7.15,7.15,0,0,1,267,49.06c-1.23,1.19-1.76,2-1.4,2.41s0.53,0.12.59,0.51a3.25,3.25,0,0,1-.06,1.13c-0.14.63-.38,1.22-0.06,1.34,0.83,0.27,1.64-.24,1.82-0.08,0.36,0.32-.2,1.49.65,1.72a2.66,2.66,0,0,0,1.72-.2l3.15-1.7,3-1.6L278,49.5l-0.83-2.56L277,46.67h0Z" transform="translate(0 0)" fill="#d4b968"/><path d="M274,54a1.26,1.26,0,0,1,.12-1.52c0.65-.71,1.58-1,1.94-1.46a0.56,0.56,0,0,0-.27-0.18,2.4,2.4,0,0,1,1-1,1,1,0,0,0-.69-0.32c-0.59,0-1,.36-1.49.36s-0.59-.27-0.59-0.27,0.89-.08.81-0.48-0.24-.42-0.24-0.42a9,9,0,0,0,2-1.1,2.2,2.2,0,0,0,.33-1c0.2,0,1.4-.63,1.88-0.36a0.8,0.8,0,0,1,.14,1,11.87,11.87,0,0,0,2.2-2.17c0.65,0.06,1-.45,1.43-0.45s1.52,0.81,1.7,2.53a10.81,10.81,0,0,1,.12,3.3,15.22,15.22,0,0,0,.24,4.14c0.2,0.83.69,0.75,0.69,0.75A1.35,1.35,0,0,1,285,56a2,2,0,0,0-.33,1.4,6,6,0,0,0,.18.65,3,3,0,0,0-.48.75,0.85,0.85,0,0,1-.77.51,3.73,3.73,0,0,0-.53,0,1.7,1.7,0,0,1-.75,0c-0.24-.08-0.42-0.18-0.32-1s-3-2.56-3-2.56L274,54h0Z" transform="translate(0 0)" fill="#cca849"/><path d="M268.27,61.61s1.1,1.46,5.6,1.46a11.33,11.33,0,0,0,3.33-.33,9.1,9.1,0,0,0,4.11-3c1.64-1.94,1.28-2.73,1.28-2.73l-1-.14-3.1.42-9.16,3.9-1.11.4h0Z" transform="translate(0 0)" fill="#585136"/><path d="M271.63,62s-3.9.87-3.9-1.6,2.41-4.94,3-5.38a11.3,11.3,0,0,1,2.12-1h3.6l0.69,1.82-0.3,3.92L271.63,62h0Z" transform="translate(0 0)" fill="#252211"/><path d="M275.23,54.77s-0.75-.69-2.44.24a6.11,6.11,0,0,0-3.15,4.61c-0.08,1.55,1.28,2.71,3.4,2.77a10.79,10.79,0,0,0,3-.24l-0.75-.93-0.06-6.45h0Z" transform="translate(0 0)" fill="#c3b378"/><path d="M274.49,55.16a0.71,0.71,0,0,0-.71.14,11.69,11.69,0,0,0-1.6,1.31,6.5,6.5,0,0,0-.71.59c-0.75.89-1.37,2.35-1,3.07s1.55,1.55,4.59,1l-0.56-6.1h0Z" transform="translate(0 0)" fill="#e6d89c"/><path d="M273.5,56.65a3.83,3.83,0,0,0-.48,1.94,3.19,3.19,0,0,0,3.21,3.3c1.94,0.12,3.24-2.79,4.65-3.92a3.38,3.38,0,0,1,1.72-.89,16,16,0,0,0-4-2.73c-2.89-1.55-6.13-1.76-7.89.63,0.83-.06,3.52-0.75,3.52-0.75l1.31,0.42-2,2h0Z" transform="translate(0 0)" fill="#252211"/><path d="M277.28,58.23c-0.08-.18-0.14-0.42.2-0.48a0.46,0.46,0,0,1,.63.24c0.12,0.26.24,0.48,0.06,0.59a0.83,0.83,0,0,1-.89-0.35h0Zm-0.57-1.7s-0.12.08-.06-0.08a0.49,0.49,0,0,1,.57-0.48,0.42,0.42,0,0,1,.24.63,0.63,0.63,0,0,1-.63.24,0.2,0.2,0,0,1-.14-0.24l0-.06h0Z" transform="translate(0 0)" fill="#6f674d"/><path d="M244.13,57.3a3.72,3.72,0,0,0,2.06.69,5.58,5.58,0,0,0,3.15-1.88c0.38-.42.71-0.87,1.07-1.22a6.39,6.39,0,0,0,.65-0.65c0.2-.24.42-0.69,0.53-0.83a11,11,0,0,1-1,.81A12.4,12.4,0,0,1,249,55c-0.32.12-3.7,1.9-3.7,1.9l-1.17.37h0Z" transform="translate(0 0)" fill="#ac924c"/><path d="M245.58,48.41a4.85,4.85,0,0,1,1.55-.59,29,29,0,0,1,3-.42l1.64,0.71,0.65,2.47-1.19,2.56-1.52,1L248,51.32l-2.38-2.91h0Z" transform="translate(0 0)" fill="#9f8e57"/><path d="M243.44,50.61l-0.57.42a3.68,3.68,0,0,0,.27-1.07,9.92,9.92,0,0,1,1.66-3.9,12.37,12.37,0,0,1,.89-1.07,0.6,0.6,0,0,0-.48.12,5.76,5.76,0,0,1,1.66-1.7,1.55,1.55,0,0,1,1.88-.24,3,3,0,0,0,1.6.57,1.81,1.81,0,0,0,1.1-.65,2,2,0,0,1-.32,1.28,18,18,0,0,1-2.2,2.71l-3.66,2.5-1.82,1h0Z" transform="translate(0 0)" fill="#eac970"/><path d="M246.15,48.1s2.65,0.36,3.46-.38c0,0.08.12,0.08,0.12,0.14a0.21,0.21,0,0,1-.06.12l0.27,0a1.56,1.56,0,0,0,.33.06l0.27,0a0.45,0.45,0,0,1-.18.3c0.12,0,.24,0,0.24.12a0.51,0.51,0,0,1-.12.45,0.55,0.55,0,0,1-.36,0,1.49,1.49,0,0,0,.18.65,1.36,1.36,0,0,0,1.43.81s0.36,0.87-1.16,2.79c-0.2.27-.42,0.63-0.69,0.93a3.52,3.52,0,0,0-.24.71,6,6,0,0,0,3.3-3.24,17,17,0,0,0,.75-6.57,3.38,3.38,0,0,0-.27-1.31,1.14,1.14,0,0,0-1.78-.2,21.76,21.76,0,0,1-2.95,3.07,10.05,10.05,0,0,1-2.53,1.64h0Z" transform="translate(0 0)" fill="#d7bc6b"/><path d="M243,51.36a2.23,2.23,0,0,0-.77,1.43,4.67,4.67,0,0,0,.53,3,3,3,0,0,0,2.32,1.72,2.55,2.55,0,0,0,1-.2,6.25,6.25,0,0,0,1.34-.83,4.3,4.3,0,0,0,1-.87c-0.14-.06-3.64-2.95-3.64-2.95l-1.31-1.47-0.47.16h0Z" transform="translate(0 0)" fill="#585136"/><path d="M246.27,56.15a3.06,3.06,0,0,0,1.13-.32c0.42-.27-2.47-3.13-2.47-3.13l0.2,3.1Z" transform="translate(0 0)" fill="#453a25"/><path d="M243.2,51.14a4.17,4.17,0,0,0-.36.87,15.19,15.19,0,0,0,.27,3A2.2,2.2,0,0,0,245,56.62a2.74,2.74,0,0,0,1.49-.48,3.62,3.62,0,0,1-1.13-.69,4,4,0,0,1-.24-1.43,1.55,1.55,0,0,1,.12-1,3.1,3.1,0,0,0,.38-1.4l1.16-2.15h-1.52l-1.82,1.13Z" transform="translate(0 0)" fill="#84754b"/><path d="M242.76,51.8A6.6,6.6,0,0,1,245,49.86a2.32,2.32,0,0,1,1.55-.14l-0.63,1.6-0.89,1,0.06,0.51a3.09,3.09,0,0,0,.75,2.26,2.33,2.33,0,0,0,1.94.89,2.52,2.52,0,0,0,2.06-1.66,4.67,4.67,0,0,0-.08-4.47,3.64,3.64,0,0,0-3.07-1.66c-0.34,0-3,.13-3.95,3.62h0Z" transform="translate(0 0)" fill="#252211"/><path d="M273.32,57.16c-0.45-.2,0-1.46.42-1.84a3.14,3.14,0,0,1,2-.89,0.53,0.53,0,0,1,.65.45,3.57,3.57,0,0,1-1.28,1.52C274.33,57,273.83,57.39,273.32,57.16Z" transform="translate(0 0)" fill="#f7f7e7"/><path d="M249.24,50.33a0.86,0.86,0,0,1,.83.59,1,1,0,0,1-.83,1.16,0.8,0.8,0,0,1-.65-1.23A0.69,0.69,0,0,1,249.24,50.33Z" transform="translate(0 0)" fill="#f8f6de"/><path d="M244.55,50.61a2.8,2.8,0,0,0-1.22,1.19,3.16,3.16,0,0,0-.24,1.9,4.66,4.66,0,0,0,.57,1.31,0.91,0.91,0,0,0,.69.42,1.22,1.22,0,0,0,.63-0.89,6.35,6.35,0,0,1,.42-2.44c0.35-.75-0.84-1.49-0.84-1.49h0Z" transform="translate(0 0)" fill="#d4c38b"/><path d="M244.67,50.55c-0.14.08-.38,0.2-0.33,0.36a3.33,3.33,0,0,1,.75.59,1.26,1.26,0,0,1,.14.93,1.47,1.47,0,0,0,.42-0.3,1.76,1.76,0,0,1,.87-0.71c0.18,0,.36.08,0.53,0.08a0.49,0.49,0,0,0,.57-0.36,0.74,0.74,0,0,0-.83-0.63,0.79,0.79,0,0,0-.12-0.83,1.61,1.61,0,0,0-1.28.3c-0.18.12-.72,0.57-0.72,0.57h0Z" transform="translate(0 0)" fill="#e2d59d"/><path d="M263.8,75.84l1.78-.53,0.51,0.36a1.63,1.63,0,0,0,.93.87,4,4,0,0,0-.63,1,0.83,0.83,0,0,0,.27.48s-1.6,2.65,1.55,5.32c-0.75.3-1.7,0.71-2.2,1a3.9,3.9,0,0,1,1.46.53,3.59,3.59,0,0,0,.63.57,0.64,0.64,0,0,1,.42.53c-0.2-.12-0.89-0.48-1-0.14s-3,.2-3,0.2l-4.82.93a0.87,0.87,0,0,0-.33-0.93c-0.59-.53-1.31,0-2.08-0.57a5.86,5.86,0,0,1-1.37-2,6.36,6.36,0,0,1,2.56-.71,1.06,1.06,0,0,1-.14-0.81c0.14-.42.75-0.69,0.57-1.19,0.27-.06.38-0.06,1-0.89a2.08,2.08,0,0,1,1.49-1.07,2.2,2.2,0,0,0,1.66-.83,1,1,0,0,0,.42-1.1s0.41-.13.27-1h0Z" transform="translate(0 0)" fill="#cbac5a"/><path d="M258.54,76.11c0-.12.12-0.18,0.77-0.12s4.77-.38,5.89-0.45a36.87,36.87,0,0,1,7.06.38c1.94,0.41,3.9.89,4.85,1.13s1.25,0.36,1.22.48a0.35,0.35,0,0,1-.36.2c-0.12,0-3.27-1-4.25-1.19a38.45,38.45,0,0,0-6.19-.71,32.43,32.43,0,0,0-3.86.14,31,31,0,0,1-4.59.33c-0.71-.08-0.57-0.08-0.53-0.2h0Z" transform="translate(0 0)" fill="#d6bc6f"/><path d="M268.23,85.55a9.8,9.8,0,0,1,3.36,3,1.29,1.29,0,0,1-.38,1.82s1.4,0,1.22.77c-0.08.48-2.41,1.78-4,2.47a6.41,6.41,0,0,1-2.29.77c-0.75.12-2.79-.24-3.21,0.36a1.18,1.18,0,0,0-.12,1.31,6.8,6.8,0,0,0,1.1.2s-0.2.57-2.23,0.63-2.53.2-2.65,0.42,0.38,0.08,1.31.24,2.23,0.24,2.23.24a4.1,4.1,0,0,1-1.52.65,25.19,25.19,0,0,0-3.8,1,3.51,3.51,0,0,0,1,.53,6,6,0,0,0-1.34.48l0.42,0.27a8.33,8.33,0,0,1-1.6,1.52c-0.59.3-4,1.88-5.15,1.58-2.91-.77-3.27-4-4-4.2-1.07-.36-1.58.36-2.53-0.15a5.94,5.94,0,0,1,1.1-.69c-0.48-.24-3-1.82-3-1.82a18.47,18.47,0,0,0-.87-1.66c-0.48-.83-1.19-1.94-1.72-2.91-1.16-2.14-1.22-3.13-2.26-4.35a1.22,1.22,0,0,1,.81-0.2l8.78,2.89,15.56,0.45,4-5.78,1.72,0.2h0Z" transform="translate(0 0)" fill="#dfc677"/><path d="M245.18,94.36a1.37,1.37,0,0,0,.32.27,4.72,4.72,0,0,1,1,.81c0.12-.18.42-0.51,1,0s1.19,0.15,1.6.27a1,1,0,0,1,.45.2,3,3,0,0,1,.77-0.42c0.33-.12.71-0.2,1.13-0.32a6.33,6.33,0,0,1,1.1-.2c0.27,0.18,1.22,1.19,5-.3,3.6-1.4,4.43-1.55,5-1.34,0.06-.14.12-0.42,1-0.38a7.17,7.17,0,0,0-.77-1.7l-4.25-1.46h-2.32l-7,1.28-3.86,2.2-0.3,1.11h0Z" transform="translate(0 0)" fill="#c4a859"/><path d="M242.85,91.92a2.25,2.25,0,0,0,1,1.34,6,6,0,0,1,1.25,1.1s0.18-.24.33-0.48a1.24,1.24,0,0,1,.51-0.65,6.89,6.89,0,0,1,1.82.12,2.67,2.67,0,0,1,.36-0.48,3,3,0,0,1,1,.32,1.41,1.41,0,0,0,.69-0.12,2.51,2.51,0,0,1,.77-1.58,2.06,2.06,0,0,1,1.9-.18A0.56,0.56,0,0,0,253,92a2.45,2.45,0,0,1,1,.08c0.42,0.14.93,0,1.16,0.69a0.61,0.61,0,0,0,.57-0.81,3.5,3.5,0,0,0,1-1c0.12-.18.32-0.38,0.48-0.65a2,2,0,0,1,1.6.51,1,1,0,0,0-.38.38,4.33,4.33,0,0,1,.48.57,1.38,1.38,0,0,0,.53.59,19.92,19.92,0,0,0,2.26,0,4.55,4.55,0,0,1,2,.59,0.44,0.44,0,0,1,.42,0c0.3,0.06.53,0.08,0.2-.3,0.18,0.08.38,0.27,0.57,0.08a1.18,1.18,0,0,1,.83-0.51c0.51-.06.69,0,0.89-0.51S265.86,91,265.86,91s0.42-.39.89-0.89A4.06,4.06,0,0,0,268.13,88a1.45,1.45,0,0,0-1.25-1.76l-7.36,2.26-9-.45-7.67,3.82h0Z" transform="translate(0 0)" fill="#927d49"/><path d="M236.24,70.67a2.58,2.58,0,0,0-.38,1c-0.15.71-.08,0.63-0.2,1.13s-1.6,5.54-1,7.24,1.52,2.32,2.12,3.7a5.34,5.34,0,0,1,.3.75c0.2,0.89,0,1.58.27,2.47a2.73,2.73,0,0,0,.63,1c0.71,0.75,1.88,1.46,2.38,2,0.71,0.75,1.72,2.26,3,2.41a4.34,4.34,0,0,0,2.47-.69,20.54,20.54,0,0,1,1.9-1.43,7.1,7.1,0,0,1,1.6-.48,7.25,7.25,0,0,1,2.56-.12,24.71,24.71,0,0,0,4,.81,11,11,0,0,0,2.62-.36c1.72-.51,3.8-1.37,5.18-1.76,0.81-.24,1.46-0.3,2.12-0.45a4.57,4.57,0,0,0,2.62-1.31c-0.36-.42-0.81-1.07-3.21-1-2.73.06-5.89,1.58-7.44,1.82a6.26,6.26,0,0,1-4-.18c-1.7-.63-1.76-1.05-1.76-1.05a7.62,7.62,0,0,1-2.53-4.43A7.93,7.93,0,0,1,251.47,74a1.27,1.27,0,0,0,.38-1.07,4.85,4.85,0,0,0,.93-3.33c-0.38-1.6-2.85-1.28-2.85-1.28l-13.69,2.39h0Z" transform="translate(0 0)" fill="#6e6342"/><path d="M238.3,76a1.25,1.25,0,0,0-.14.65c0,0.32.12,0.75,1.1,1.7a2.08,2.08,0,0,1,.65,1.76,3,3,0,0,0,1.55-.45,0.8,0.8,0,0,1,1.19.33,2.52,2.52,0,0,1,.83-0.27,1.82,1.82,0,0,0,.75-0.24,10.73,10.73,0,0,0,2,1.58c0.83,0.45,1.31.75,1.72,0.45a1.14,1.14,0,0,0,.36-1,3.13,3.13,0,0,0-.36-0.63,3.39,3.39,0,0,1-.71-1.19c-0.06-.83.63-1.82,0.48-2.06s-0.69-.3-2,0.18S238.3,76,238.3,76h0Z" transform="translate(0 0)" fill="#39331f"/><path d="M241.45,81.41s-0.69-.65-0.45-3.8a3.92,3.92,0,0,1,.87.08S242.25,80.13,241.45,81.41Z" transform="translate(0 0)" fill="#292311"/><path d="M236.57,68.26a1.88,1.88,0,0,0,.27-0.24,6,6,0,0,0-.45,5,6.67,6.67,0,0,0,5.89,5c2.76,0.1,4.21-1.25,5.86-3.27,0.65-.81,1.4-1.82,2.06-2.5,1-1.07,1.76-1.37,1.76-2.41,0-2.12-2.17-3.07-5.36-4S240.53,65,239,65.63a4.13,4.13,0,0,0-2.47,2.62h0Z" transform="translate(0 0)" fill="#252211"/><path d="M246.81,82.36l0.24-.12s0.06-1,.45-0.93a0.75,0.75,0,0,1,.53.75,0.45,0.45,0,0,1-.51.45,1.18,1.18,0,0,1-.71-0.14h0Z" transform="translate(0 0)" fill="#3f3824"/><path d="M245.74,78.31a0.54,0.54,0,0,1,.53.2,4.32,4.32,0,0,1,1.6.08,1.22,1.22,0,0,1,.42.38,4.18,4.18,0,0,1-1.88,0A0.81,0.81,0,0,1,245.74,78.31Z" transform="translate(0 0)" fill="#2d2815"/><path d="M251.1,78.49a3,3,0,0,0-1.34-.65,0.68,0.68,0,0,0-.24.06,0.35,0.35,0,0,1-.08-0.2L249,77.9s-0.06.08,0.14,0.24a1.44,1.44,0,0,1,.57.51,2.07,2.07,0,0,0,.12.36,1.29,1.29,0,0,0,.65-0.12,1.56,1.56,0,0,0,.57-0.4h0Z" transform="translate(0 0)" fill="#82764f"/><path d="M245,80.94a1,1,0,0,1,.93-0.87,0.93,0.93,0,0,1,1,.75l-0.48.48a1.4,1.4,0,0,0-1.43-.36h0Z" transform="translate(0 0)" fill="#2d2816"/><path d="M250.26,77.36a2.52,2.52,0,0,1-1.43.63,0.57,0.57,0,0,1,0-.75A0.79,0.79,0,0,1,250.26,77.36Z" transform="translate(0 0)" fill="#574f35"/><path d="M252.07,77.95a0.39,0.39,0,0,1,0-.2,0.63,0.63,0,0,1,.45-0.12,0.73,0.73,0,0,1,0,.24,0.57,0.57,0,0,1-.06.32,0.49,0.49,0,0,1-.45.15,0.27,0.27,0,0,1-.14-0.24A0.33,0.33,0,0,0,252.07,77.95Zm2.06-1.3a0.43,0.43,0,0,1,.33-0.18,0.21,0.21,0,0,1,.2.18c0.06,0,.06,0,0.12.08a0.53,0.53,0,0,1,.08.42,0.44,0.44,0,0,1-.36.18A3.21,3.21,0,0,1,254.13,76.65Z" transform="translate(0 0)" fill="#82764f"/><path d="M250,78.23a1.68,1.68,0,0,1,.63.36c-0.12.08-.3,0.18-0.3,0.18a0.9,0.9,0,0,0-.32-0.54h0Z" transform="translate(0 0)" fill="#6e6342"/><path d="M249.4,75.58c-0.06-.06.18-0.2,0.32-0.18s0.2,0.12.36,0.14a0.22,0.22,0,0,0,.24-0.12,0.37,0.37,0,0,1,.3,0l0.06,0.08a0.33,0.33,0,0,1,.12-0.24,0.38,0.38,0,0,1,.33-0.06,1.79,1.79,0,0,1,.12.45,0.57,0.57,0,0,1-.45.08,4.28,4.28,0,0,0,.36.51,0.44,0.44,0,0,1-.38.18,4.91,4.91,0,0,1-1.38-.84h0Zm1.58-2a0.28,0.28,0,0,0-.12-0.14c-0.08,0-.36,0-0.36.14A4.47,4.47,0,0,0,251,75a3.08,3.08,0,0,0,.71.87,0.28,0.28,0,0,0,.36-0.12,7.28,7.28,0,0,0,.06-1.55A14.28,14.28,0,0,0,252,72a0.32,0.32,0,0,0-.38.06,11.25,11.25,0,0,0-.65,1.49h0Z" transform="translate(0 0)" fill="#585136"/><path d="M249.91,79.74a1,1,0,0,0-.83-0.08,1.06,1.06,0,0,0-.36.89,0.57,0.57,0,0,0,.53-0.06,1.62,1.62,0,0,0,.66-0.75h0Z" transform="translate(0 0)" fill="#574f35"/><path d="M250.7,80.7a1.39,1.39,0,0,0-.24-0.36,0.27,0.27,0,0,1,.26-0.2,1,1,0,0,1,.39.24,0.73,0.73,0,0,1,.38.42,0.76,0.76,0,0,1-.53.69c-0.29,0-.2-0.54-0.27-0.78h0Zm2.32-.33s-0.48.14-.45,0a0.26,0.26,0,0,1,.3-0.18,0.48,0.48,0,0,1,.3-0.15,0.26,0.26,0,0,1,.18.06,0.63,0.63,0,0,1,.42-0.06,0.35,0.35,0,0,1,.08.18,0.85,0.85,0,0,1,.15.36,0.72,0.72,0,0,1-.65.27A0.54,0.54,0,0,1,253,80.37Zm2.8-.54s0.14,0.08,0,.18a2,2,0,0,1-.87.27,0.93,0.93,0,0,1-.69-0.06,0.85,0.85,0,0,1,.48-0.42,0.38,0.38,0,0,1,.3-0.14c0.14,0,.71-0.06.87-0.08s0.27,0.06.18,0.18a0.46,0.46,0,0,1-.3.08h0Zm0.83-3.72a0.69,0.69,0,0,1-.38.38c-0.2,0-.2-0.08-0.2-0.14s0.2-.3.18-0.36-0.2,0-.18-0.14a0.35,0.35,0,0,1,.38-0.24,0.79,0.79,0,0,1,.48-0.18c0.2,0,.38.06,0.38,0.18a1,1,0,0,1-.33.45,0.23,0.23,0,0,1-.34.06h0Zm-2.75,7.11s-0.24,0-.24.14,0.06,0.06.14,0l0.14,0a0.19,0.19,0,0,0,.2.14,1.14,1.14,0,0,0,.42-0.14,0.32,0.32,0,0,0,.27-0.24,0.36,0.36,0,0,0-.36-0.3,0.48,0.48,0,0,0-.27.06s-0.06-.12-0.27,0-0.18.12-.12,0.18,0.07,0.16.07,0.16h0Zm-1.36,1.25a0.49,0.49,0,0,1,.38-0.14,1.53,1.53,0,0,1,.32.53,0.69,0.69,0,0,1-.42.2,0.56,0.56,0,0,1-.32-0.24s0.14-.06.14-0.08a0.84,0.84,0,0,0-.11-0.27h0Zm-1-1.76a1.51,1.51,0,0,0,.14-0.14,0.21,0.21,0,0,1,.18,0,0.29,0.29,0,0,1,.2-0.15c0.14,0,.27,0,0.24.06s0.12,0.3.12,0.45a0.5,0.5,0,0,1-.38.45,2.13,2.13,0,0,1-.77.06,0.4,0.4,0,0,1-.06-0.39,1,1,0,0,1,.33-0.31h0Z" transform="translate(0 0)" fill="#82764f"/><path d="M252,82.8a0.55,0.55,0,0,0-.2.18,0.53,0.53,0,0,0,0,.18,0.5,0.5,0,0,0,.3-0.06S252,82.86,252,82.8Z" transform="translate(0 0)" fill="#6e6342"/><path d="M250.2,82.24a2.53,2.53,0,0,1,.48.06,0.2,0.2,0,0,1,.08.33,0.56,0.56,0,0,1-.51.32,0.66,0.66,0,0,1-.59-0.3,0.58,0.58,0,0,1,.14-0.42c0.12-.1.18,0,0.38,0h0Z" transform="translate(0 0)" fill="#585136"/><path d="M250.05,82.36a3.4,3.4,0,0,0-.48.45c-0.12.14-.71,0.89-0.89,1a2.27,2.27,0,0,1,.2-0.3,1.23,1.23,0,0,0-.51.65c-0.14.45,0.81,0.69,1.43,0.87l0.87,0.24a6.72,6.72,0,0,1-.59-1.1c-0.24-.57-0.36-0.63-0.2-0.89a2,2,0,0,0,.3-0.65C250.11,82.48,250.05,82.36,250.05,82.36Z" transform="translate(0 0)" fill="#574f35"/><path d="M236.33,83.31a0.73,0.73,0,0,0,.27,0,12.26,12.26,0,0,1,4-.59,21.51,21.51,0,0,1,4.35.71c2.47,0.65,5.54,1.94,7.52,2.67,0.53,0.2,1,.57,1.43.71a9.09,9.09,0,0,0,2.47.75,9.65,9.65,0,0,0,3.24-.45c1.37-.3,3.72-0.45,5.78-0.75a11.8,11.8,0,0,0,2-.45s-1.64,1.64-5.56,2.23a17.4,17.4,0,0,1-4.79.06,14.62,14.62,0,0,1-2.71-.48c-0.71-.2-2.17-0.75-4-1.19-1.25-.33-2.65-0.57-4.25-0.87-3.95-.72-8.23-1.55-9.76-2.36h0Z" transform="translate(0 0)" fill="#252211"/><line x1="234.28" y1="68.04" x2="224.25" y2="58.68" fill="none"/><path d="M231.9,75.87c-1,.81-2,1.58-2.95,2.32l-3,2.28c-1,.75-2,1.52-3,2.26s-2,1.46-3.1,2.14c1-.81,2-1.55,3-2.29s2.06-1.45,3-2.2l3-2.29c1-.75,2-1.52,3-2.24h0Zm-5.26,8.43s1.07-.89,2.41-2.14a51.56,51.56,0,0,1,4.35-3.9l-6.75,6h0Z" transform="translate(0 0)" fill="#cfb66c"/><path d="M226.63,84.29c0.53-.53,1.1-1,1.66-1.55l0.87-.75c0.27-.24.57-0.51,0.83-0.77,0.53-.53,1-1.1,1.58-1.64a10.12,10.12,0,0,1,.83-0.77,2.25,2.25,0,0,1,.48-0.33,1.41,1.41,0,0,1,.51-0.27c-0.12.18-.26,0.27-0.38,0.42s-0.27.27-.38,0.38-0.57.51-.83,0.75c-0.57.48-1.16,1-1.72,1.46s-1.1,1-1.66,1.55-1.18,1-1.77,1.51h0Zm7.2-4.82s-3.92,3.84-4.73,4.47Z" transform="translate(0 0)" fill="#cfb66c"/><path d="M233.83,79.48a12.82,12.82,0,0,1-1.13,1.16l-1.19,1.13c-0.38.38-.75,0.77-1.16,1.16s-0.81.71-1.25,1l1.16-1.13c0.39-.38.81-0.71,1.22-1.1l1.16-1.13C233,80.21,233.41,79.83,233.83,79.48ZM234,81.56a25,25,0,0,1-1.28,2.95c-1,2-2.53,4.55-3.19,5.84L234,81.56h0Z" transform="translate(0 0)" fill="#cfb66c"/><path d="M234,81.56a3.38,3.38,0,0,1-.27,1.22,12,12,0,0,1-.48,1.13c-0.18.36-.39,0.75-0.59,1.1s-0.45.71-.63,1.07l-1.22,2.14c-0.42.71-.83,1.43-1.28,2.12a19.63,19.63,0,0,1,1.1-2.2c0.42-.71.81-1.43,1.19-2.17a12.21,12.21,0,0,0,.51-1.13c0.18-.39.36-0.75,0.51-1.1s0.32-.75.51-1.1a7.09,7.09,0,0,1,.65-1.08h0Z" transform="translate(0 0)" fill="#cfb66c"/><path d="M238.3,91.43A6,6,0,0,0,237.23,95C237.55,94,238,92.36,238.3,91.43ZM239.43,93s-0.42,4.29-.77,6.39A25.82,25.82,0,0,0,239.43,93Zm7.89,6.65s-1.78,5.24-1.82,6.69c0.39-1.5,1.13-4.55,1.82-6.7h0Z" transform="translate(0 0)" fill="#dec270"/><path d="M251.48,91.11s2.89,4.77,5.06,8.84A20,20,0,0,0,251.48,91.11Z" transform="translate(0 0)" fill="#cbaf59"/><path d="M259.25,98.13a87.66,87.66,0,0,1,4.29,8.66A13.23,13.23,0,0,0,259.25,98.13Z" transform="translate(0 0)" fill="#e3c677"/><path d="M282.08,105.16c0.48-.3,1.43-1.94,2.26-2.35a5.69,5.69,0,0,0,2.2-1.34,5.31,5.31,0,0,1,2.59-2.08c2.29-1,.71-2.26.71-2.26a7.39,7.39,0,0,1,.81-0.69,2.28,2.28,0,0,0,1.22-1.94c-0.08-1.6-.38-3.92-1.7-5.27,1.28-.27,3.72-0.45,5.24-0.83A7.48,7.48,0,0,0,298,87.33a2.92,2.92,0,0,1,.63-3.45c1.64-1.73,3-2.77,4-4.71-1.13-.14-2.86-0.75-7.26.93a5.53,5.53,0,0,1,.69.38,13.61,13.61,0,0,0-3.7,1.58c-1.72,1.46-1.94,2.65-3.8,3.54s-3.74.65-5.3,1.37a14,14,0,0,0-2.35,1.6,1.58,1.58,0,0,0,.2.59c-0.14.2-1,1.58-1.84,1.58a1.47,1.47,0,0,0,.81.57,3.88,3.88,0,0,1-1.88.48,13.67,13.67,0,0,0,3.13,2.62c-0.14.3-.75,0.75-0.51,1.31s1,1.34,3.7,2a24.26,24.26,0,0,1-5.24.08c-2.2-.27-2.56-0.42-3.92-0.08a3.15,3.15,0,0,1,.87.53c-0.36,0-2.62-.27-3.4.75a6.56,6.56,0,0,0-1.1,3.92,1,1,0,0,0-.63,1.31c0.2,0.75,1.28,1,2,1.46s0.75,0.69,1.4.57a19.09,19.09,0,0,1,2.29-.83,1.54,1.54,0,0,1,1,.45,6.18,6.18,0,0,1,1.76-.63c0.14,0.14,0,1.07.18,1.22a11.53,11.53,0,0,0,2.44-1.26h0Z" transform="translate(0 0)" fill="#ecd592"/><path d="M317.07,57a37.88,37.88,0,0,0-26.13-23H237.88l0.2,19.79h10.57v44.2H237.88v19.76h51.6c12.44,0,22.4-12.5,22.4-12.5,16-22.66,5.19-48.22,5.19-48.22h0Zm-27.32,34.9s-4,5.84-8.45,5.84H272.5l-0.21-43.93h11.31s5.24,1.1,8.9,11.46C292.49,65.25,297.34,80.09,289.76,91.88Z" transform="translate(0 0)" fill="#fff" fill-opacity="0.8"/><circle cx="175.57" cy="75.28" r="74.4" fill="#e8e8e8"/><polygon points="175.56 19.46 174.81 22.02 174.81 95.81 175.56 96.57 209.82 76.31 175.56 19.46" fill="#343434"/><polygon points="175.56 19.46 141.31 76.31 175.56 96.57 175.56 60.74 175.56 19.46" fill="#8c8c8c"/><polygon points="175.56 103.04 175.13 103.56 175.13 129.85 175.56 131.09 209.84 82.81 175.56 103.04" fill="#3c3c3b"/><polygon points="175.56 131.09 175.56 103.04 141.31 82.81 175.56 131.09" fill="#8c8c8c"/><polygon points="175.56 96.57 209.82 76.31 175.56 60.74 175.56 96.57" fill="#141414"/><polygon points="141.31 76.31 175.56 96.57 175.56 60.74 141.31 76.31" fill="#393939"/><path d="M147.74,93.14A75,75,0,1,1,93.12,2.24a75,75,0,0,1,54.61,90.9h0Z" transform="translate(0 0)" fill="#f7931a"/><path d="M108.06,64.31c1.49-10-6.11-15.35-16.5-18.93l3.37-13.52-8.23-2.05L83.43,43c-2.16-.54-4.39-1-6.59-1.55l3.31-13.25-8.22-2.05L68.54,39.64c-1.79-.41-3.55-0.81-5.26-1.24v0L51.94,35.53l-2.19,8.79s6.11,1.4,6,1.49c3.33,0.83,3.94,3,3.84,4.79L55.73,66a6.69,6.69,0,0,1,.86.27l-0.87-.22L50.33,87.63a3,3,0,0,1-3.77,2c0.08,0.12-6-1.49-6-1.49l-4.09,9.42,10.71,2.67c2,0.5,3.94,1,5.87,1.51l-3.41,13.68,8.22,2.05,3.37-13.53c2.25,0.61,4.43,1.17,6.56,1.7l-3.36,13.47,8.23,2.05,3.41-13.65c14,2.66,24.59,1.59,29-11.11,3.58-10.22-.18-16.11-7.56-20,5.38-1.24,9.43-4.78,10.51-12.08h0ZM89.26,90.68C86.72,100.9,69.51,95.38,63.93,94l4.52-18.12C74,77.27,91.92,80,89.26,90.68h0ZM91.8,64.17c-2.32,9.3-16.64,4.57-21.29,3.42l4.1-16.43c4.65,1.16,19.61,3.32,17.19,13h0Z" transform="translate(0 0)" fill="#fff"/></svg>