<?xml version="1.0" encoding="utf-8"?>
<!-- Generator: Adobe Illustrator 25.2.0, SVG Export Plug-In . SVG Version: 6.00 Build 0)  -->
<svg version="1.1" id="Layer_1" xmlns="http://www.w3.org/2000/svg" xmlns:xlink="http://www.w3.org/1999/xlink" x="0px" y="0px"
	 viewBox="0 0 150 150" style="enable-background:new 0 0 150 150;" xml:space="preserve">
<style type="text/css">
	.st0{fill:#E9E2F2;}
	.st1{fill:url(#SVGID_1_);}
	.st2{fill:url(#SVGID_2_);}
	.st3{fill:url(#SVGID_3_);}
</style>
<circle class="st0" cx="75" cy="75" r="75"/>
<linearGradient id="SVGID_1_" gradientUnits="userSpaceOnUse" x1="114.1139" y1="-192.8323" x2="61.087" y2="-91.2645" gradientTransform="matrix(1 0 0 1 0 218)">
	<stop  offset="0" style="stop-color:#00FFA3"/>
	<stop  offset="1" style="stop-color:#DC1FFF"/>
</linearGradient>
<path class="st1" d="M42.6,91.6c0.6-0.6,1.4-0.9,2.2-0.9h76.6c1.4,0,2.1,1.7,1.1,2.7l-15.1,15.1c-0.6,0.6-1.4,0.9-2.2,0.9H28.6
	c-1.4,0-2.1-1.7-1.1-2.7L42.6,91.6z"/>
<linearGradient id="SVGID_2_" gradientUnits="userSpaceOnUse" x1="90.9297" y1="-204.9364" x2="37.9028" y2="-103.3686" gradientTransform="matrix(1 0 0 1 0 218)">
	<stop  offset="0" style="stop-color:#00FFA3"/>
	<stop  offset="1" style="stop-color:#DC1FFF"/>
</linearGradient>
<path class="st2" d="M42.6,35.1c0.6-0.6,1.4-0.9,2.2-0.9h76.6c1.4,0,2.1,1.7,1.1,2.7L107.4,52c-0.6,0.6-1.4,0.9-2.2,0.9H28.6
	c-1.4,0-2.1-1.7-1.1-2.7L42.6,35.1z"/>
<linearGradient id="SVGID_3_" gradientUnits="userSpaceOnUse" x1="102.4475" y1="-198.9231" x2="49.4206" y2="-97.3553" gradientTransform="matrix(1 0 0 1 0 218)">
	<stop  offset="0" style="stop-color:#00FFA3"/>
	<stop  offset="1" style="stop-color:#DC1FFF"/>
</linearGradient>
<path class="st3" d="M107.4,63.2c-0.6-0.6-1.4-0.9-2.2-0.9H28.6c-1.4,0-2.1,1.7-1.1,2.7l15.1,15.1c0.6,0.6,1.4,0.9,2.2,0.9h76.6
	c1.4,0,2.1-1.7,1.1-2.7L107.4,63.2z"/>
</svg>
