<?xml version="1.0" encoding="utf-8"?>
<!-- Generator: Adobe Illustrator 25.2.0, SVG Export Plug-In . SVG Version: 6.00 Build 0)  -->
<svg version="1.1" xmlns="http://www.w3.org/2000/svg" xmlns:xlink="http://www.w3.org/1999/xlink" x="0px" y="0px"
	 viewBox="0 0 150 150" style="enable-background:new 0 0 150 150;" xml:space="preserve">
<style type="text/css">
	.st0{fill:#E8E8E8;}
	.st1{fill:#253B80;}
	.st2{fill:#179BD7;}
	.st3{fill:#222D65;}
</style>
<g id="Layer_1">
	<circle class="st0" cx="75" cy="75" r="75"/>
</g>
<g id="Layer_2">
	<g>
		<path class="st1" d="M57.8,118.9l1.6-10.4l-3.6-0.1H38.4L50.5,32c0-0.2,0.2-0.4,0.3-0.6s0.4-0.2,0.6-0.2h29.2c9.7,0,16.4,2,19.9,6
			c1.6,1.9,2.7,3.8,3.2,6c0.5,2.3,0.5,5,0,8.2l0,0.2v2.1l1.6,0.9c1.4,0.7,2.5,1.6,3.3,2.5c1.4,1.6,2.3,3.6,2.7,6
			c0.4,2.5,0.3,5.4-0.4,8.8c-0.7,3.8-2,7.2-3.6,9.9c-1.5,2.5-3.4,4.6-5.7,6.2c-2.2,1.5-4.7,2.7-7.7,3.5c-2.8,0.7-6,1.1-9.6,1.1h-2.3
			c-1.6,0-3.2,0.6-4.4,1.6c-1.2,1.1-2.1,2.5-2.3,4.1l-0.2,0.9l-2.9,18.3l-0.1,0.7c0,0.2-0.1,0.3-0.2,0.4c-0.1,0.1-0.2,0.1-0.3,0.1
			C71.8,118.9,57.8,118.9,57.8,118.9z"/>
		<path class="st2" d="M107,51.9L107,51.9L107,51.9c-0.1,0.6-0.2,1.1-0.3,1.7c-3.9,19.8-17.1,26.6-33.9,26.6h-8.6
			c-2.1,0-3.8,1.5-4.1,3.5l0,0l0,0l-4.4,27.9l-1.2,7.9c-0.2,1.3,0.8,2.5,2.2,2.5h15.2c1.8,0,3.3-1.3,3.6-3.1l0.1-0.8l2.9-18.2l0.2-1
			c0.3-1.8,1.8-3.1,3.6-3.1h2.3c14.7,0,26.3-6,29.7-23.3c1.4-7.2,0.7-13.3-3-17.5C110,53.8,108.6,52.7,107,51.9z"/>
		<path class="st3" d="M103,50.3c-0.6-0.2-1.2-0.3-1.8-0.5c-0.6-0.1-1.3-0.3-1.9-0.4c-2.3-0.4-4.8-0.6-7.6-0.6H68.7
			c-0.6,0-1.1,0.1-1.6,0.4c-1.1,0.5-1.8,1.5-2,2.7l-4.9,30.9l-0.1,0.9c0.3-2,2.1-3.5,4.1-3.5h8.6c16.9,0,30-6.8,33.9-26.6
			c0.1-0.6,0.2-1.2,0.3-1.7c-1-0.5-2-1-3.2-1.3C103.5,50.4,103.2,50.3,103,50.3z"/>
		<path class="st1" d="M65.1,52c0.2-1.2,1-2.2,2-2.7c0.5-0.2,1-0.4,1.6-0.4h22.9c2.7,0,5.3,0.2,7.6,0.6c0.7,0.1,1.3,0.2,1.9,0.4
			c0.6,0.1,1.2,0.3,1.8,0.5c0.3,0.1,0.6,0.2,0.9,0.3c1.1,0.4,2.2,0.8,3.2,1.3c1.1-7.3,0-12.3-4-16.8c-4.4-5-12.2-7.1-22.3-7.1H51.5
			c-2.1,0-3.8,1.5-4.1,3.5l-12.2,77.2c-0.2,1.5,0.9,2.9,2.5,2.9h18.1l4.5-28.8L65.1,52z"/>
	</g>
</g>
</svg>
