<svg xmlns="http://www.w3.org/2000/svg" xmlns:xlink="http://www.w3.org/1999/xlink" width="40" zoomAndPan="magnify" viewBox="0 0 30 30.000001" height="40" preserveAspectRatio="xMidYMid meet" version="1.0"><defs><g/><clipPath id="b3ecedc223"><path d="M 6.828125 5.097656 L 23.605469 5.097656 L 23.605469 22.800781 L 6.828125 22.800781 Z M 6.828125 5.097656 " clip-rule="nonzero"/></clipPath><clipPath id="f69d3720b1"><path d="M 11 3 L 18 3 L 18 25 L 11 25 Z M 11 3 " clip-rule="nonzero"/></clipPath><clipPath id="af04299616"><path d="M 7.394531 6.359375 L 17.007812 3.070312 L 23.351562 21.609375 L 13.738281 24.898438 Z M 7.394531 6.359375 " clip-rule="nonzero"/></clipPath><clipPath id="3dce2eda0f"><path d="M 7.394531 6.359375 L 17.007812 3.070312 L 23.351562 21.609375 L 13.738281 24.898438 Z M 7.394531 6.359375 " clip-rule="nonzero"/></clipPath><clipPath id="9bc9a8a757"><path d="M 11 4 L 15 4 L 15 25 L 11 25 Z M 11 4 " clip-rule="nonzero"/></clipPath><clipPath id="f72ddc2905"><path d="M 7.394531 6.359375 L 17.007812 3.070312 L 23.351562 21.609375 L 13.738281 24.898438 Z M 7.394531 6.359375 " clip-rule="nonzero"/></clipPath><clipPath id="16965a30cc"><path d="M 7.394531 6.359375 L 17.007812 3.070312 L 23.351562 21.609375 L 13.738281 24.898438 Z M 7.394531 6.359375 " clip-rule="nonzero"/></clipPath></defs><g fill="#000000" fill-opacity="1"><g transform="translate(-0.288183, 23.70146)"><g><path d="M 15.328125 0.4375 C 12.691406 0.4375 10.3125 -0.128906 8.1875 -1.265625 C 6.070312 -2.410156 4.414062 -3.976562 3.21875 -5.96875 C 2.019531 -7.96875 1.421875 -10.21875 1.421875 -12.71875 C 1.421875 -15.207031 2.019531 -17.453125 3.21875 -19.453125 C 4.414062 -21.453125 6.070312 -23.019531 8.1875 -24.15625 C 10.3125 -25.289062 12.691406 -25.859375 15.328125 -25.859375 C 17.972656 -25.859375 20.347656 -25.289062 22.453125 -24.15625 C 24.554688 -23.019531 26.210938 -21.453125 27.421875 -19.453125 C 28.640625 -17.453125 29.25 -15.207031 29.25 -12.71875 C 29.25 -10.21875 28.640625 -7.96875 27.421875 -5.96875 C 26.210938 -3.976562 24.554688 -2.410156 22.453125 -1.265625 C 20.347656 -0.128906 17.972656 0.4375 15.328125 0.4375 Z M 15.328125 -4.578125 C 16.828125 -4.578125 18.179688 -4.921875 19.390625 -5.609375 C 20.609375 -6.296875 21.5625 -7.257812 22.25 -8.5 C 22.9375 -9.738281 23.28125 -11.144531 23.28125 -12.71875 C 23.28125 -14.289062 22.9375 -15.691406 22.25 -16.921875 C 21.5625 -18.160156 20.609375 -19.125 19.390625 -19.8125 C 18.179688 -20.507812 16.828125 -20.859375 15.328125 -20.859375 C 13.828125 -20.859375 12.46875 -20.507812 11.25 -19.8125 C 10.039062 -19.125 9.09375 -18.160156 8.40625 -16.921875 C 7.71875 -15.691406 7.375 -14.289062 7.375 -12.71875 C 7.375 -11.144531 7.71875 -9.738281 8.40625 -8.5 C 9.09375 -7.257812 10.039062 -6.296875 11.25 -5.609375 C 12.46875 -4.921875 13.828125 -4.578125 15.328125 -4.578125 Z M 15.328125 -4.578125 "/></g></g></g><g clip-path="url(#b3ecedc223)"><path fill="#000000" d="M 6.828125 5.097656 L 23.605469 5.097656 L 23.605469 22.792969 L 6.828125 22.792969 Z M 6.828125 5.097656 " fill-opacity="1" fill-rule="nonzero"/></g><g clip-path="url(#f69d3720b1)"><g clip-path="url(#af04299616)"><g clip-path="url(#3dce2eda0f)"><path fill="#c1ff72" d="M 12.03125 4.769531 L 16.75 3.15625 L 15.175781 10.777344 L 17.941406 9.832031 L 13.683594 24.738281 L 14.230469 14.117188 L 11.273438 15.296875 Z M 12.03125 4.769531 " fill-opacity="1" fill-rule="nonzero"/></g></g></g><g clip-path="url(#9bc9a8a757)"><g clip-path="url(#f72ddc2905)"><g clip-path="url(#16965a30cc)"><path fill="#000000" d="M 12.03125 4.769531 L 12.847656 4.492188 L 11.273438 15.296875 Z M 13.683594 24.738281 L 14.800781 13.921875 L 14.230469 14.117188 Z M 13.683594 24.738281 " fill-opacity="1" fill-rule="nonzero"/></g></g></g></svg>