<svg id="Layer_1" data-name="Layer 1" xmlns="http://www.w3.org/2000/svg" viewBox="0 0 363.3 150"><defs><style>.cls-1{fill:#e9e8e8;}.cls-2{fill:#2b2964;}.cls-3{fill:#fff;}.cls-4{fill:#2b2f38;}.cls-5{opacity:0;}.cls-6{fill:#ea5812;}.cls-7{fill:#e21219;}.cls-8{fill:#f49e00;}</style></defs><path class="cls-1" d="M363.3,75A75,75,0,0,0,292.08.1V0H73.9V0A75,75,0,0,0,75,150c1.25,0,2.5,0,3.74-.09H284.56c1.24.06,2.48.09,3.74.09s2.5,0,3.74-.09h0A75,75,0,0,0,363.3,75Z"/><g id="visa-color_large" data-name="visa-color large"><rect class="cls-2" x="46.71" y="33.28" width="125.16" height="83.44" rx="10.43"/><path class="cls-3" d="M108.92,63,103.71,87.1H97.45L102.66,63Zm26.23,15.64,3.29-9,1.9,9Zm7,8.56h5.78l-5.05-24.12h-5.22A2.84,2.84,0,0,0,135,64.83l-9.36,22.35h6.57l1.28-3.6h7.85Zm-16.28-7.83c0-6.49-8.73-7-8.73-9.56,0-.87.83-1.78,2.61-2a11.65,11.65,0,0,1,6.15,1.07l1.1-5.22a16.91,16.91,0,0,0-5.84-1.07c-6.16,0-10.43,3.29-10.43,8,0,3.47,3.1,5.4,5.45,6.55s3.25,2,3.23,3c0,1.62-1.93,2.35-3.73,2.38a13,13,0,0,1-6.36-1.57l-1.12,5.22a18.88,18.88,0,0,0,6.93,1.28c6.55,0,10.85-3.24,10.88-8.24M100.14,62.9,90,87H83.21l-5-19.27a2.58,2.58,0,0,0-1.48-2.11,25.73,25.73,0,0,0-6.16-2l.16-.71H81.36a2.92,2.92,0,0,1,2.9,2.45l2.6,14,6.5-16.4Z"/></g><g id="mastercard-dark-large"><rect class="cls-4" x="190.12" y="33.28" width="125.16" height="83.44" rx="10.43"/><g class="cls-5"><rect class="cls-3" x="202.24" y="41.62" width="100.93" height="66.75"/></g><rect class="cls-6" x="239.4" y="53.25" width="26.62" height="43.49"/><path class="cls-7" d="M242.27,75A27.59,27.59,0,0,1,252.7,53.25a27.67,27.67,0,1,0,0,43.5A27.59,27.59,0,0,1,242.27,75Z"/><path class="cls-8" d="M297.44,75A27.67,27.67,0,0,1,252.7,96.75a27.68,27.68,0,0,0,4.64-38.83,27.34,27.34,0,0,0-4.64-4.67A27.67,27.67,0,0,1,297.44,75Z"/></g></svg>