<?xml version="1.0" encoding="utf-8"?>
<!-- Generator: Adobe Illustrator 25.2.0, SVG Export Plug-In . SVG Version: 6.00 Build 0)  -->
<svg version="1.1" id="Layer_1" xmlns="http://www.w3.org/2000/svg" xmlns:xlink="http://www.w3.org/1999/xlink" x="0px" y="0px"
	 viewBox="0 0 363.3 150" style="enable-background:new 0 0 363.3 150;" xml:space="preserve">
<style type="text/css">
	.st0{fill:#E9E8E8;}
	.st1{fill:#EEC6B3;}
	.st2{fill:#CD957B;}
	.st3{fill:#318B36;}
	.st4{fill:#3B9E41;}
</style>
<path class="st0" d="M363.3,75c0-40-31.3-72.9-71.2-74.9V0H73.9l0,0C32.5,0.3-0.9,34.1-0.5,75.5S33.6,150.3,75,150
	c1.2,0,2.5,0,3.7-0.1h205.8c1.2,0.1,2.5,0.1,3.7,0.1s2.5,0,3.7-0.1l0,0C332,147.9,363.3,115,363.3,75z"/>
<g transform="translate(1.4065934065934016 1.4065934065934016) scale(2.81 2.81)">
	<path class="st1" d="M63,20.9l11.5,2.6c1,0.2,2.1-0.3,2.5-1.3l0,0c0.4-1,0-2.2-1-2.8c-7.7-3.9-17-10.9-20.6-10.9
		c-0.2,0-0.4,0-0.6,0c-1.6,0-3.2,0.5-4.8,1c-1.7,0.5-3.5,1.1-5.2,0.9l-4.3-0.3v10.6C47.9,19.1,55.3,19.1,63,20.9z"/>
	<path class="st2" d="M75.9,21c-8-3.9-17.6-10.9-21.3-10.9c-0.2,0-0.4,0-0.6,0c-1.7,0-3.3,0.5-4.9,1c-1.8,0.5-3.6,1.1-5.4,0.9
		l-3.2-0.2v-1.7l4.3,0.3c1.7,0.1,3.5-0.4,5.2-0.9c1.5-0.5,3.1-1,4.8-1c0.2,0,0.4,0,0.6,0c3.6,0,12.9,7,20.6,10.9
		c1,0.5,1.4,1.7,1,2.7C76.8,21.7,76.4,21.3,75.9,21z"/>
	<path class="st3" d="M79.8,29.6L50.6,35c-0.5,0.1-1.1-0.3-1.2-0.8l-2.6-14.1c-0.1-0.5,0.3-1.1,0.8-1.2l29.2-5.5
		c0.5-0.1,1.1,0.3,1.2,0.8l2.6,14.1C80.7,29,80.3,29.5,79.8,29.6z"/>
	<path class="st4" d="M73.9,15.5L51,19.7c0.3,1.6-0.8,3.1-2.4,3.4l1.4,7.6c1.6-0.3,3.1,0.8,3.4,2.4l22.9-4.3c0,0,0-0.1,0-0.1
		c-0.3-1.6,0.8-3.1,2.4-3.4l-1.4-7.6C75.8,18,74.2,17,73.9,15.5z"/>
	<circle class="st4" cx="48.9" cy="20.9" r="0.7"/>
	<circle class="st4" cx="51.1" cy="32.8" r="0.7"/>
	<circle class="st4" cx="76.2" cy="15.8" r="0.7"/>
	<circle class="st4" cx="78.5" cy="27.7" r="0.7"/>
	<circle class="st3" cx="63.7" cy="24.3" r="5.8"/>
	<path class="st4" d="M65.7,24.5c-0.4-0.6-1.3-0.8-2-0.8c-0.8-0.1-1-0.3-1.1-0.3c0,0,0-0.1,0-0.2c0.1-0.3,0.4-0.5,0.7-0.6
		c0.3,0,0.5,0,0.7,0.1c0.1,0.1,0.3,0.1,0.5,0l0.4-0.2c0.2-0.2,0.3-0.5,0-0.7c-0.3-0.3-0.8-0.4-1.3-0.4l-0.1-0.5
		c0-0.2-0.3-0.4-0.5-0.3l-0.4,0.1c-0.2,0-0.4,0.3-0.3,0.5l0.1,0.5c-0.5,0.3-0.9,0.7-1.1,1.3c-0.1,0.6,0.1,1,0.2,1.2
		c0.4,0.6,1.3,0.8,2,0.8c0.8,0.1,1,0.3,1.1,0.3c0,0,0,0.1,0,0.2c-0.1,0.3-0.4,0.5-0.7,0.6c-0.3,0-0.5,0-0.7-0.1
		c-0.1-0.1-0.3-0.1-0.5,0l-0.4,0.2c-0.2,0.2-0.3,0.5,0,0.7c0.3,0.2,0.7,0.4,1.2,0.4l0.1,0.5c0,0.2,0.3,0.4,0.5,0.3l0.4-0.1
		c0.2,0,0.4-0.3,0.3-0.5l-0.1-0.5c0.6-0.3,1-0.8,1.1-1.4C66.1,25.1,65.9,24.7,65.7,24.5z"/>
	<path class="st3" d="M56.2,26.3l-2.8,0.5c-0.3,0.1-0.7-0.2-0.7-0.5l0,0c-0.1-0.3,0.2-0.7,0.5-0.7l2.8-0.5c0.3-0.1,0.7,0.2,0.7,0.5
		l0,0C56.8,25.9,56.5,26.2,56.2,26.3z"/>
	<path class="st3" d="M74.2,22.9l-2.8,0.5c-0.3,0.1-0.7-0.2-0.7-0.5l0,0c-0.1-0.3,0.2-0.7,0.5-0.7l2.8-0.5c0.3-0.1,0.7,0.2,0.7,0.5
		l0,0C74.8,22.6,74.6,22.9,74.2,22.9z"/>
	<path class="st1" d="M51.1,30.3c-0.4,1,0,2.2,1,2.8c7.7,3.9,17,10.9,20.6,10.9c0.2,0,0.4,0,0.6,0c1.6,0,3.2-0.5,4.8-1
		c1.7-0.5,3.5-1.1,5.2-0.9l4.3,0.3V29.2L85.2,29c-1.5-0.1-2.7,0.4-3.9,0.8c-1.1,0.4-2.1,0.8-3.3,0.8l-7.7-1.2
		c-2.8-0.4-4.3,0.9-5.2,2.2L53.6,29C52.5,28.7,51.5,29.3,51.1,30.3L51.1,30.3z"/>
	<path class="st2" d="M78.2,36.1c-4.3,0.6-9.5-1.1-12.7-3c-0.5-0.3-0.7-1-0.4-1.5l0,0C65.6,33.2,73.6,35.3,78.2,36.1z"/>
	<path class="st2" d="M52.1,31.4c8,3.9,17.6,10.9,21.3,10.9c0.2,0,0.4,0,0.6,0c1.7,0,3.3-0.5,4.9-1c1.8-0.5,3.6-1.1,5.4-0.9l3.2,0.2
		v1.7l-4.3-0.3c-1.7-0.1-3.5,0.4-5.2,0.9c-1.5,0.5-3.1,1-4.8,1c-0.2,0-0.4,0-0.6,0c-3.6,0-12.9-7-20.6-10.9c-1-0.5-1.4-1.7-1-2.7
		C51.3,30.8,51.6,31.2,52.1,31.4z"/>
	<path class="st1" d="M62.2,26.4c-1.2,0.9-3.1,1.8-5.6,0.6l-7.1-3.3c-1.1-0.4-2.2-0.3-3.4-0.2c-1.3,0.1-2.6,0.2-3.9-0.3L40,22.4
		l1.6-5.5C49.5,15.8,61.2,23.3,62.2,26.4z"/>
	<path class="st2" d="M50.9,18.4c4.3,0.6,8.9,3.7,11.4,6.4c0.4,0.5,0.4,1.1,0,1.6l0,0C62.2,24.7,55.1,20.4,50.9,18.4z"/>
</g>
</svg>
