<svg xmlns="http://www.w3.org/2000/svg" xmlns:xlink="http://www.w3.org/1999/xlink" width="500" zoomAndPan="magnify" viewBox="0 0 375 374.999991" height="500" preserveAspectRatio="xMidYMid meet" version="1.0"><defs><g/><clipPath id="83939d6463"><path d="M 93.742188 86.472656 L 258.171875 86.472656 L 258.171875 311.613281 L 93.742188 311.613281 Z M 93.742188 86.472656 " clip-rule="nonzero"/></clipPath><clipPath id="da397eb353"><path d="M 145 71 L 217 71 L 217 304 L 145 304 Z M 145 71 " clip-rule="nonzero"/></clipPath><clipPath id="b7c3b23c75"><path d="M 103.570312 106.0625 L 203.628906 71.835938 L 271.109375 269.113281 L 171.050781 303.339844 Z M 103.570312 106.0625 " clip-rule="nonzero"/></clipPath><clipPath id="4e3ad84a8f"><path d="M 103.570312 106.0625 L 203.628906 71.835938 L 271.109375 269.113281 L 171.050781 303.339844 Z M 103.570312 106.0625 " clip-rule="nonzero"/></clipPath><clipPath id="e8f6265260"><path d="M 145 86 L 184 86 L 184 304 L 145 304 Z M 145 86 " clip-rule="nonzero"/></clipPath><clipPath id="2d50aae789"><path d="M 103.570312 106.0625 L 203.628906 71.835938 L 271.109375 269.113281 L 171.050781 303.339844 Z M 103.570312 106.0625 " clip-rule="nonzero"/></clipPath><clipPath id="e8e99bdda5"><path d="M 103.570312 106.0625 L 203.628906 71.835938 L 271.109375 269.113281 L 171.050781 303.339844 Z M 103.570312 106.0625 " clip-rule="nonzero"/></clipPath></defs><g fill="#000000" fill-opacity="1"><g transform="translate(-8.191819, 363.678914)"><g><path d="M 124.375 -173.140625 C 124.375 -138.984375 129.984375 -113.160156 141.203125 -95.671875 C 152.421875 -78.179688 170.679688 -69.4375 195.984375 -69.4375 C 221.085938 -69.4375 239.144531 -78.128906 250.15625 -95.515625 C 261.164062 -112.910156 266.671875 -138.785156 266.671875 -173.140625 C 266.671875 -207.296875 261.113281 -232.910156 250 -249.984375 C 238.882812 -267.066406 220.675781 -275.609375 195.375 -275.609375 C 170.269531 -275.609375 152.160156 -267.117188 141.046875 -250.140625 C 129.929688 -233.171875 124.375 -207.503906 124.375 -173.140625 Z M 362.953125 -173.140625 C 362.953125 -116.972656 348.140625 -73.046875 318.515625 -41.359375 C 288.890625 -9.671875 247.632812 6.171875 194.75 6.171875 C 161.625 6.171875 132.40625 -1.078125 107.09375 -15.578125 C 81.789062 -30.085938 62.347656 -50.921875 48.765625 -78.078125 C 35.179688 -105.242188 28.390625 -136.929688 28.390625 -173.140625 C 28.390625 -229.523438 43.101562 -273.351562 72.53125 -304.625 C 101.957031 -335.90625 143.316406 -351.546875 196.609375 -351.546875 C 229.734375 -351.546875 258.945312 -344.34375 284.25 -329.9375 C 309.5625 -315.53125 329.003906 -294.847656 342.578125 -267.890625 C 356.160156 -240.941406 362.953125 -209.359375 362.953125 -173.140625 Z M 362.953125 -173.140625 "/></g></g></g><g clip-path="url(#83939d6463)"><path fill="#000000" d="M 93.742188 86.472656 L 258.171875 86.472656 L 258.171875 311.917969 L 93.742188 311.917969 Z M 93.742188 86.472656 " fill-opacity="1" fill-rule="nonzero"/></g><g clip-path="url(#da397eb353)"><g clip-path="url(#b7c3b23c75)"><g clip-path="url(#4e3ad84a8f)"><path fill="#c1ff72" d="M 153.335938 89.039062 L 203.945312 71.726562 L 187.070312 153.460938 L 216.738281 143.3125 L 171.0625 303.261719 L 176.921875 189.320312 L 145.183594 201.960938 Z M 153.335938 89.039062 " fill-opacity="1" fill-rule="nonzero"/></g></g></g><g clip-path="url(#e8f6265260)"><g clip-path="url(#2d50aae789)"><g clip-path="url(#e8e99bdda5)"><path fill="#000000" d="M 153.335938 89.039062 L 162.0625 86.050781 L 145.183594 201.960938 Z M 171.0625 303.261719 L 183.03125 187.230469 L 176.921875 189.320312 Z M 171.0625 303.261719 " fill-opacity="1" fill-rule="nonzero"/></g></g></g></svg>