<?xml version="1.0" encoding="utf-8"?>
<!-- Generator: Adobe Illustrator 25.2.0, SVG Export Plug-In . SVG Version: 6.00 Build 0)  -->
<svg version="1.1" id="Layer_1" xmlns="http://www.w3.org/2000/svg" xmlns:xlink="http://www.w3.org/1999/xlink" x="0px" y="0px"
	 viewBox="0 0 363.3 150" style="enable-background:new 0 0 363.3 150;" xml:space="preserve">
<style type="text/css">
	.st0{fill:#E9E8E8;}
	.st1{fill:#253B80;}
	.st2{fill:#179BD7;}
	.st3{fill:#222D65;}
</style>
<path class="st0" d="M363.3,75c0-40-31.3-72.9-71.2-74.9V0H73.9l0,0C32.5,0.3-0.9,34.1-0.5,75.5S33.6,150.3,75,150
	c1.2,0,2.5,0,3.7-0.1h205.8c1.2,0.1,2.5,0.1,3.7,0.1s2.5,0,3.7-0.1l0,0C332,147.9,363.3,115,363.3,75z"/>
<g id="Layer_2_1_">
	<g>
		<path class="st1" d="M164.4,118.8l1.6-10.4l-3.6-0.1H145l12.1-76.4c0-0.2,0.2-0.4,0.3-0.6c0.1-0.2,0.4-0.2,0.6-0.2h29.2
			c9.7,0,16.4,2,19.9,6c1.6,1.9,2.7,3.8,3.2,6c0.5,2.3,0.5,5,0,8.2v0.2v2.1l1.6,0.9c1.4,0.7,2.5,1.6,3.3,2.5c1.4,1.6,2.3,3.6,2.7,6
			c0.4,2.5,0.3,5.4-0.4,8.8c-0.7,3.8-2,7.2-3.6,9.9c-1.5,2.5-3.4,4.6-5.7,6.2c-2.2,1.5-4.7,2.7-7.7,3.5c-2.8,0.7-6,1.1-9.6,1.1h-2.3
			c-1.6,0-3.2,0.6-4.4,1.6c-1.2,1.1-2.1,2.5-2.3,4.1l-0.2,0.9l-2.9,18.3l-0.1,0.7c0,0.2-0.1,0.3-0.2,0.4c-0.1,0.1-0.2,0.1-0.3,0.1
			C178.4,118.8,164.4,118.8,164.4,118.8z"/>
		<path class="st2" d="M213.6,51.8L213.6,51.8L213.6,51.8c-0.1,0.6-0.2,1.1-0.3,1.7c-3.9,19.8-17.1,26.6-33.9,26.6h-8.6
			c-2.1,0-3.8,1.5-4.1,3.5l0,0l0,0l-4.4,27.9l-1.2,7.9c-0.2,1.3,0.8,2.5,2.2,2.5h15.2c1.8,0,3.3-1.3,3.6-3.1l0.1-0.8l2.9-18.2l0.2-1
			c0.3-1.8,1.8-3.1,3.6-3.1h2.3c14.7,0,26.3-6,29.7-23.3c1.4-7.2,0.7-13.3-3-17.5C216.6,53.7,215.2,52.6,213.6,51.8z"/>
		<path class="st3" d="M209.6,50.2c-0.6-0.2-1.2-0.3-1.8-0.5c-0.6-0.1-1.3-0.3-1.9-0.4c-2.3-0.4-4.8-0.6-7.6-0.6h-23
			c-0.6,0-1.1,0.1-1.6,0.4c-1.1,0.5-1.8,1.5-2,2.7l-4.9,30.9l-0.1,0.9c0.3-2,2.1-3.5,4.1-3.5h8.6c16.9,0,30-6.8,33.9-26.6
			c0.1-0.6,0.2-1.2,0.3-1.7c-1-0.5-2-1-3.2-1.3C210.1,50.3,209.8,50.2,209.6,50.2z"/>
		<path class="st1" d="M171.7,51.9c0.2-1.2,1-2.2,2-2.7c0.5-0.2,1-0.4,1.6-0.4h22.9c2.7,0,5.3,0.2,7.6,0.6c0.7,0.1,1.3,0.2,1.9,0.4
			c0.6,0.1,1.2,0.3,1.8,0.5c0.3,0.1,0.6,0.2,0.9,0.3c1.1,0.4,2.2,0.8,3.2,1.3c1.1-7.3,0-12.3-4-16.8c-4.4-5-12.2-7.1-22.3-7.1h-29.2
			c-2.1,0-3.8,1.5-4.1,3.5l-12.2,77.2c-0.2,1.5,0.9,2.9,2.5,2.9h18.1l4.5-28.8L171.7,51.9z"/>
	</g>
</g>
</svg>
