<?xml version="1.0" encoding="utf-8"?>
<!-- Generator: Adobe Illustrator 25.2.0, SVG Export Plug-In . SVG Version: 6.00 Build 0)  -->
<svg version="1.1" id="Layer_1" xmlns="http://www.w3.org/2000/svg" xmlns:xlink="http://www.w3.org/1999/xlink" x="0px" y="0px"
	 viewBox="0 0 1875 1875" style="enable-background:new 0 0 1875 1875;" xml:space="preserve">
<style type="text/css">
	.st0{fill:#FFFFFF;}
</style>
<circle cx="937.5" cy="937.5" r="937.5"/>
<polygon class="st0" points="549.5,1468.8 721.9,1170.1 894.4,872.5 1065.8,573.8 1094.2,526.5 1106.8,573.8 1159.4,770.5 
	1100.5,872.5 928,1170.1 756.6,1468.8 962.7,1468.8 1135.2,1170.1 1224.6,1015.5 1266.6,1170.1 1346.6,1468.8 1531.6,1468.8 
	1451.7,1170.1 1371.8,872.5 1350.8,795.7 1479.1,573.8 1291.9,573.8 1285.6,551.8 1220.4,307.8 1212,276.2 1032.1,276.2 
	1027.9,282.6 859.7,573.8 687.2,872.5 515.8,1170.1 343.4,1468.8 "/>
</svg>
