<?xml version="1.0" encoding="utf-8"?>
<!-- Generator: Adobe Illustrator 25.2.0, SVG Export Plug-In . SVG Version: 6.00 Build 0)  -->
<svg version="1.1"
	 id="Layer_1" shape-rendering="geometricPrecision" text-rendering="geometricPrecision" image-rendering="optimizeQuality" xmlns:xodm="http://www.corel.com/coreldraw/odm/2003"
	 xmlns="http://www.w3.org/2000/svg" xmlns:xlink="http://www.w3.org/1999/xlink" x="0px" y="0px" viewBox="0 0 595.3 595.3"
	 style="enable-background:new 0 0 595.3 595.3;" xml:space="preserve">
<style type="text/css">
	.st0{fill:#F7931A;}
	.st1{fill:#FFFFFF;}
	.st2{clip-path:url(#SVGID_2_);}
	.st3{fill:#7B1AF7;}
</style>
<g id="Layer_x0020_1">
	<g id="_1421344023328">
		<path class="st0" d="M586.4,369.7c-39.8,159.5-201.3,256.5-360.8,216.8C66.2,546.7-30.9,385.1,8.9,225.7
			C48.7,66.2,210.2-30.8,369.6,8.9C529.1,48.7,626.1,210.2,586.4,369.7L586.4,369.7L586.4,369.7z"/>
		<path class="st1" d="M428.9,255.3c5.9-39.6-24.2-60.9-65.5-75.1l13.4-53.7l-32.7-8.1l-13,52.2c-8.6-2.1-17.4-4.2-26.2-6.2
			l13.1-52.6l-32.6-8.1L272,157.3c-7.1-1.6-14.1-3.2-20.9-4.9l0-0.2l-45-11.2l-8.7,34.9c0,0,24.2,5.6,23.7,5.9
			c13.2,3.3,15.6,12.1,15.2,19l-15.2,61.1c0.9,0.2,2.1,0.6,3.4,1.1c-1.1-0.3-2.2-0.6-3.5-0.9l-21.4,85.6c-1.6,4-5.7,10-15,7.8
			c0.3,0.5-23.7-5.9-23.7-5.9L144.8,387l42.5,10.6c7.9,2,15.7,4.1,23.3,6l-13.5,54.3l32.6,8.1l13.4-53.7c8.9,2.4,17.6,4.7,26,6.8
			l-13.3,53.4l32.7,8.1l13.5-54.2c55.7,10.5,97.6,6.3,115.2-44.1c14.2-40.6-0.7-64-30-79.2C408.5,298.3,424.6,284.3,428.9,255.3
			L428.9,255.3L428.9,255.3z M354.3,359.9c-10.1,40.6-78.4,18.6-100.5,13.1l17.9-71.9C293.8,306.7,364.8,317.6,354.3,359.9
			L354.3,359.9z M364.4,254.7c-9.2,36.9-66.1,18.2-84.5,13.6l16.3-65.2C314.6,207.6,374,216.2,364.4,254.7L364.4,254.7z"/>
	</g>
</g>
<g>
	<defs>
		<rect id="SVGID_1_" x="351.9" y="351.9" width="243.4" height="243.4"/>
	</defs>
	<clipPath id="SVGID_2_">
		<use xlink:href="#SVGID_1_"  style="overflow:visible;"/>
	</clipPath>
	<g class="st2">
		<circle class="st3" cx="473.6" cy="473.6" r="121.7"/>
		<path class="st1" d="M410.1,477.9l97.1-83.6c4.2-2.7,8.3,0,5.7,4.6l-31,60.9h55.2c0,0,8.8,0,0,7.2l-95.5,84.2
			c-6.7,5.7-11.4,2.6-6.7-6.2l29.9-59.4h-54.7C410.1,485.7,401.3,485.7,410.1,477.9z"/>
	</g>
</g>
</svg>
