<svg xmlns="http://www.w3.org/2000/svg" xmlns:xlink="http://www.w3.org/1999/xlink" width="500" zoomAndPan="magnify" viewBox="0 0 375 93.749996" height="125" preserveAspectRatio="xMidYMid meet" version="1.0"><defs><g/><clipPath id="df374a71af"><path d="M 159.785156 39.75 L 185.621094 39.75 L 185.621094 64.148438 L 159.785156 64.148438 Z M 159.785156 39.75 " clip-rule="nonzero"/></clipPath><clipPath id="c80c8bf2bb"><path d="M 167 36 L 177 36 L 177 68 L 167 68 Z M 167 36 " clip-rule="nonzero"/></clipPath><clipPath id="86cc1a42a2"><path d="M 161.5625 41.136719 L 175.007812 36.535156 L 183.964844 62.722656 L 170.519531 67.324219 Z M 161.5625 41.136719 " clip-rule="nonzero"/></clipPath><clipPath id="451dce5406"><path d="M 161.5625 41.136719 L 175.007812 36.535156 L 183.964844 62.722656 L 170.519531 67.324219 Z M 161.5625 41.136719 " clip-rule="nonzero"/></clipPath><clipPath id="c2a480c1b6"><path d="M 167 38 L 173 38 L 173 68 L 167 68 Z M 167 38 " clip-rule="nonzero"/></clipPath><clipPath id="a3b9943892"><path d="M 161.5625 41.136719 L 175.007812 36.535156 L 183.964844 62.722656 L 170.519531 67.324219 Z M 161.5625 41.136719 " clip-rule="nonzero"/></clipPath><clipPath id="349d97d151"><path d="M 161.5625 41.136719 L 175.007812 36.535156 L 183.964844 62.722656 L 170.519531 67.324219 Z M 161.5625 41.136719 " clip-rule="nonzero"/></clipPath></defs><g fill="#000000" fill-opacity="1"><g transform="translate(15.578904, 72.264036)"><g><path d="M 29.203125 -52.953125 C 33.890625 -52.953125 37.960938 -52.171875 41.421875 -50.609375 C 44.878906 -49.046875 47.539062 -46.828125 49.40625 -43.953125 C 51.269531 -41.078125 52.203125 -37.675781 52.203125 -33.75 C 52.203125 -29.863281 51.269531 -26.46875 49.40625 -23.5625 C 47.539062 -20.664062 44.878906 -18.445312 41.421875 -16.90625 C 37.960938 -15.375 33.890625 -14.609375 29.203125 -14.609375 L 18.53125 -14.609375 L 18.53125 0 L 6.28125 0 L 6.28125 -52.953125 Z M 28.515625 -24.59375 C 32.203125 -24.59375 35.003906 -25.382812 36.921875 -26.96875 C 38.835938 -28.5625 39.796875 -30.820312 39.796875 -33.75 C 39.796875 -36.71875 38.835938 -38.992188 36.921875 -40.578125 C 35.003906 -42.171875 32.203125 -42.96875 28.515625 -42.96875 L 18.53125 -42.96875 L 18.53125 -24.59375 Z M 28.515625 -24.59375 "/></g></g></g><g fill="#000000" fill-opacity="1"><g transform="translate(63.239444, 72.264036)"><g><path d="M 21.859375 -41.3125 C 28.171875 -41.3125 33.015625 -39.8125 36.390625 -36.8125 C 39.765625 -33.8125 41.453125 -29.28125 41.453125 -23.21875 L 41.453125 0 L 30.40625 0 L 30.40625 -5.0625 C 28.1875 -1.28125 24.050781 0.609375 18 0.609375 C 14.875 0.609375 12.164062 0.078125 9.875 -0.984375 C 7.582031 -2.046875 5.828125 -3.507812 4.609375 -5.375 C 3.398438 -7.238281 2.796875 -9.359375 2.796875 -11.734375 C 2.796875 -15.515625 4.21875 -18.488281 7.0625 -20.65625 C 9.914062 -22.820312 14.320312 -23.90625 20.28125 -23.90625 L 29.65625 -23.90625 C 29.65625 -26.476562 28.875 -28.457031 27.3125 -29.84375 C 25.75 -31.226562 23.40625 -31.921875 20.28125 -31.921875 C 18.101562 -31.921875 15.96875 -31.582031 13.875 -30.90625 C 11.789062 -30.226562 10.015625 -29.304688 8.546875 -28.140625 L 4.3125 -36.390625 C 6.53125 -37.953125 9.191406 -39.160156 12.296875 -40.015625 C 15.398438 -40.878906 18.585938 -41.3125 21.859375 -41.3125 Z M 20.953125 -7.34375 C 22.972656 -7.34375 24.765625 -7.804688 26.328125 -8.734375 C 27.890625 -9.671875 29 -11.046875 29.65625 -12.859375 L 29.65625 -17.015625 L 21.5625 -17.015625 C 16.71875 -17.015625 14.296875 -15.425781 14.296875 -12.25 C 14.296875 -10.738281 14.890625 -9.539062 16.078125 -8.65625 C 17.265625 -7.78125 18.890625 -7.34375 20.953125 -7.34375 Z M 20.953125 -7.34375 "/></g></g></g><g fill="#000000" fill-opacity="1"><g transform="translate(102.199827, 72.264036)"><g><path d="M 47.4375 -40.703125 L 47.4375 -6.8125 C 47.4375 0.65625 45.492188 6.203125 41.609375 9.828125 C 37.722656 13.460938 32.050781 15.28125 24.59375 15.28125 C 20.65625 15.28125 16.921875 14.800781 13.390625 13.84375 C 9.859375 12.882812 6.929688 11.5 4.609375 9.6875 L 9.3125 1.203125 C 11.019531 2.617188 13.1875 3.742188 15.8125 4.578125 C 18.4375 5.410156 21.0625 5.828125 23.6875 5.828125 C 27.769531 5.828125 30.78125 4.90625 32.71875 3.0625 C 34.664062 1.21875 35.640625 -1.566406 35.640625 -5.296875 L 35.640625 -7.03125 C 32.554688 -3.65625 28.265625 -1.96875 22.765625 -1.96875 C 19.035156 -1.96875 15.617188 -2.785156 12.515625 -4.421875 C 9.421875 -6.066406 6.960938 -8.375 5.140625 -11.34375 C 3.328125 -14.320312 2.421875 -17.753906 2.421875 -21.640625 C 2.421875 -25.523438 3.328125 -28.953125 5.140625 -31.921875 C 6.960938 -34.898438 9.421875 -37.207031 12.515625 -38.84375 C 15.617188 -40.488281 19.035156 -41.3125 22.765625 -41.3125 C 28.671875 -41.3125 33.160156 -39.367188 36.234375 -35.484375 L 36.234375 -40.703125 Z M 25.125 -11.65625 C 28.25 -11.65625 30.804688 -12.570312 32.796875 -14.40625 C 34.785156 -16.25 35.78125 -18.660156 35.78125 -21.640625 C 35.78125 -24.609375 34.785156 -27.015625 32.796875 -28.859375 C 30.804688 -30.703125 28.25 -31.625 25.125 -31.625 C 21.988281 -31.625 19.410156 -30.703125 17.390625 -28.859375 C 15.378906 -27.015625 14.375 -24.609375 14.375 -21.640625 C 14.375 -18.660156 15.378906 -16.25 17.390625 -14.40625 C 19.410156 -12.570312 21.988281 -11.65625 25.125 -11.65625 Z M 25.125 -11.65625 "/></g></g></g><g fill="#000000" fill-opacity="1"><g transform="translate(147.439447, 72.264036)"><g><path d="M 24.8125 0.609375 C 20.53125 0.609375 16.6875 -0.285156 13.28125 -2.078125 C 9.875 -3.867188 7.210938 -6.351562 5.296875 -9.53125 C 3.378906 -12.707031 2.421875 -16.3125 2.421875 -20.34375 C 2.421875 -24.382812 3.378906 -27.992188 5.296875 -31.171875 C 7.210938 -34.347656 9.875 -36.832031 13.28125 -38.625 C 16.6875 -40.414062 20.53125 -41.3125 24.8125 -41.3125 C 29.101562 -41.3125 32.9375 -40.414062 36.3125 -38.625 C 39.695312 -36.832031 42.347656 -34.347656 44.265625 -31.171875 C 46.179688 -27.992188 47.140625 -24.382812 47.140625 -20.34375 C 47.140625 -16.3125 46.179688 -12.707031 44.265625 -9.53125 C 42.347656 -6.351562 39.695312 -3.867188 36.3125 -2.078125 C 32.9375 -0.285156 29.101562 0.609375 24.8125 0.609375 Z M 24.8125 -9.078125 C 27.84375 -9.078125 30.328125 -10.097656 32.265625 -12.140625 C 34.210938 -14.179688 35.1875 -16.914062 35.1875 -20.34375 C 35.1875 -23.78125 34.210938 -26.519531 32.265625 -28.5625 C 30.328125 -30.601562 27.84375 -31.625 24.8125 -31.625 C 21.789062 -31.625 19.296875 -30.601562 17.328125 -28.5625 C 15.359375 -26.519531 14.375 -23.78125 14.375 -20.34375 C 14.375 -16.914062 15.359375 -14.179688 17.328125 -12.140625 C 19.296875 -10.097656 21.789062 -9.078125 24.8125 -9.078125 Z M 24.8125 -9.078125 "/></g></g></g><g fill="#000000" fill-opacity="1"><g transform="translate(189.274672, 72.264036)"><g><path d="M 6.28125 -52.953125 L 18.53125 -52.953125 L 18.53125 -9.984375 L 45.09375 -9.984375 L 45.09375 0 L 6.28125 0 Z M 6.28125 -52.953125 "/></g></g></g><g fill="#000000" fill-opacity="1"><g transform="translate(227.251548, 72.264036)"><g><path d="M 5.453125 -40.703125 L 17.25 -40.703125 L 17.25 0 L 5.453125 0 Z M 11.34375 -46.375 C 9.175781 -46.375 7.410156 -47.003906 6.046875 -48.265625 C 4.691406 -49.523438 4.015625 -51.085938 4.015625 -52.953125 C 4.015625 -54.828125 4.691406 -56.394531 6.046875 -57.65625 C 7.410156 -58.914062 9.175781 -59.546875 11.34375 -59.546875 C 13.519531 -59.546875 15.285156 -58.9375 16.640625 -57.71875 C 18.003906 -56.507812 18.6875 -55 18.6875 -53.1875 C 18.6875 -51.21875 18.003906 -49.585938 16.640625 -48.296875 C 15.285156 -47.015625 13.519531 -46.375 11.34375 -46.375 Z M 11.34375 -46.375 "/></g></g></g><g fill="#000000" fill-opacity="1"><g transform="translate(242.305408, 72.264036)"><g><path d="M 29.5 -41.3125 C 33.289062 -41.3125 36.734375 -40.441406 39.828125 -38.703125 C 42.929688 -36.960938 45.363281 -34.515625 47.125 -31.359375 C 48.894531 -28.203125 49.78125 -24.53125 49.78125 -20.34375 C 49.78125 -16.164062 48.894531 -12.5 47.125 -9.34375 C 45.363281 -6.1875 42.929688 -3.738281 39.828125 -2 C 36.734375 -0.257812 33.289062 0.609375 29.5 0.609375 C 23.90625 0.609375 19.644531 -1.15625 16.71875 -4.6875 L 16.71875 0 L 5.453125 0 L 5.453125 -56.140625 L 17.25 -56.140625 L 17.25 -36.390625 C 20.226562 -39.671875 24.3125 -41.3125 29.5 -41.3125 Z M 27.46875 -9.078125 C 30.488281 -9.078125 32.96875 -10.097656 34.90625 -12.140625 C 36.851562 -14.179688 37.828125 -16.914062 37.828125 -20.34375 C 37.828125 -23.78125 36.851562 -26.519531 34.90625 -28.5625 C 32.96875 -30.601562 30.488281 -31.625 27.46875 -31.625 C 24.4375 -31.625 21.945312 -30.601562 20 -28.5625 C 18.0625 -26.519531 17.09375 -23.78125 17.09375 -20.34375 C 17.09375 -16.914062 18.0625 -14.179688 20 -12.140625 C 21.945312 -10.097656 24.4375 -9.078125 27.46875 -9.078125 Z M 27.46875 -9.078125 "/></g></g></g><g fill="#000000" fill-opacity="1"><g transform="translate(286.78851, 72.264036)"><g><path d="M 16.71875 -35.328125 C 18.132812 -37.296875 20.039062 -38.785156 22.4375 -39.796875 C 24.832031 -40.804688 27.59375 -41.3125 30.71875 -41.3125 L 30.71875 -30.40625 C 29.40625 -30.507812 28.519531 -30.5625 28.0625 -30.5625 C 24.6875 -30.5625 22.039062 -29.613281 20.125 -27.71875 C 18.207031 -25.832031 17.25 -23 17.25 -19.21875 L 17.25 0 L 5.453125 0 L 5.453125 -40.703125 L 16.71875 -40.703125 Z M 16.71875 -35.328125 "/></g></g></g><g fill="#000000" fill-opacity="1"><g transform="translate(311.677321, 72.264036)"><g><path d="M 45.3125 -20.203125 C 45.3125 -20.046875 45.238281 -18.984375 45.09375 -17.015625 L 14.296875 -17.015625 C 14.847656 -14.492188 16.15625 -12.503906 18.21875 -11.046875 C 20.289062 -9.585938 22.867188 -8.859375 25.953125 -8.859375 C 28.066406 -8.859375 29.941406 -9.171875 31.578125 -9.796875 C 33.222656 -10.429688 34.75 -11.425781 36.15625 -12.78125 L 42.4375 -5.984375 C 38.601562 -1.585938 33.003906 0.609375 25.640625 0.609375 C 21.054688 0.609375 17 -0.285156 13.46875 -2.078125 C 9.9375 -3.867188 7.210938 -6.351562 5.296875 -9.53125 C 3.378906 -12.707031 2.421875 -16.3125 2.421875 -20.34375 C 2.421875 -24.332031 3.363281 -27.925781 5.25 -31.125 C 7.144531 -34.332031 9.742188 -36.832031 13.046875 -38.625 C 16.347656 -40.414062 20.046875 -41.3125 24.140625 -41.3125 C 28.117188 -41.3125 31.722656 -40.453125 34.953125 -38.734375 C 38.179688 -37.015625 40.710938 -34.554688 42.546875 -31.359375 C 44.390625 -28.160156 45.3125 -24.441406 45.3125 -20.203125 Z M 24.203125 -32.375 C 21.535156 -32.375 19.289062 -31.617188 17.46875 -30.109375 C 15.65625 -28.597656 14.546875 -26.53125 14.140625 -23.90625 L 34.203125 -23.90625 C 33.796875 -26.476562 32.679688 -28.53125 30.859375 -30.0625 C 29.046875 -31.601562 26.828125 -32.375 24.203125 -32.375 Z M 24.203125 -32.375 "/></g></g></g><g clip-path="url(#df374a71af)"><path fill="#000000" d="M 159.785156 39.75 L 185.613281 39.75 L 185.613281 64.148438 L 159.785156 64.148438 Z M 159.785156 39.75 " fill-opacity="1" fill-rule="nonzero"/></g><g clip-path="url(#c80c8bf2bb)"><g clip-path="url(#86cc1a42a2)"><g clip-path="url(#451dce5406)"><path fill="#c1ff72" d="M 168.167969 38.878906 L 174.886719 36.578125 L 172.644531 47.429688 L 176.582031 46.082031 L 170.519531 67.3125 L 171.296875 52.1875 L 167.085938 53.863281 Z M 168.167969 38.878906 " fill-opacity="1" fill-rule="nonzero"/></g></g></g><g clip-path="url(#c2a480c1b6)"><g clip-path="url(#a3b9943892)"><g clip-path="url(#349d97d151)"><path fill="#000000" d="M 168.167969 38.878906 L 169.324219 38.480469 L 167.085938 53.863281 Z M 170.519531 67.3125 L 172.109375 51.910156 L 171.296875 52.1875 Z M 170.519531 67.3125 " fill-opacity="1" fill-rule="nonzero"/></g></g></g></svg>