<?xml version="1.0" encoding="utf-8"?>
<!-- Generator: Adobe Illustrator 19.2.1, SVG Export Plug-In . SVG Version: 6.00 Build 0)  -->
<svg version="1.1" id="Layer_1" xmlns="http://www.w3.org/2000/svg" xmlns:xlink="http://www.w3.org/1999/xlink" x="0px" y="0px"
	 viewBox="0 0 34.1 31.5" style="enable-background:new 0 0 34.1 31.5;" xml:space="preserve">
<style type="text/css">
	.st0{fill:#E17726;stroke:#E17726;stroke-width:0.25;stroke-linecap:round;stroke-linejoin:round;}
	.st1{fill:#E27625;stroke:#E27625;stroke-width:0.25;stroke-linecap:round;stroke-linejoin:round;}
	.st2{fill:#D5BFB2;stroke:#D5BFB2;stroke-width:0.25;stroke-linecap:round;stroke-linejoin:round;}
	.st3{fill:#233447;stroke:#233447;stroke-width:0.25;stroke-linecap:round;stroke-linejoin:round;}
	.st4{fill:#CC6228;stroke:#CC6228;stroke-width:0.25;stroke-linecap:round;stroke-linejoin:round;}
	.st5{fill:#E27525;stroke:#E27525;stroke-width:0.25;stroke-linecap:round;stroke-linejoin:round;}
	.st6{fill:#F5841F;stroke:#F5841F;stroke-width:0.25;stroke-linecap:round;stroke-linejoin:round;}
	.st7{fill:#C0AC9D;stroke:#C0AC9D;stroke-width:0.25;stroke-linecap:round;stroke-linejoin:round;}
	.st8{fill:#161616;stroke:#161616;stroke-width:0.25;stroke-linecap:round;stroke-linejoin:round;}
	.st9{fill:#763E1A;stroke:#763E1A;stroke-width:0.25;stroke-linecap:round;stroke-linejoin:round;}
</style>
<path class="st0" d="M32.2,0.2L19,9.9l2.5-5.7L32.2,0.2z"/>
<path class="st1" d="M1.9,0.2l13,9.8l-2.3-5.8L1.9,0.2z M27.4,22.7l-3.5,5.3l7.5,2.1l2.1-7.3C33.6,22.9,27.4,22.7,27.4,22.7z
	 M0.5,22.9l2.1,7.3l7.5-2.1l-3.5-5.3C6.6,22.7,0.5,22.9,0.5,22.9z"/>
<path class="st1" d="M9.7,13.7l-2.1,3.1l7.4,0.3l-0.2-8L9.7,13.7L9.7,13.7z M24.4,13.7l-5.2-4.6L19,17.2l7.4-0.3
	C26.4,16.9,24.4,13.7,24.4,13.7z M10.1,28.1l4.5-2.2l-3.9-3L10.1,28.1z M19.5,25.9l4.5,2.2l-0.6-5.2C23.3,22.9,19.5,25.9,19.5,25.9z
	"/>
<path class="st2" d="M23.9,28.1l-4.5-2.2l0.4,2.9l0,1.2L23.9,28.1z M10.1,28.1l4.2,2l0-1.2l0.4-2.9L10.1,28.1z"/>
<path class="st3" d="M14.3,21l-3.7-1.1l2.6-1.2L14.3,21L14.3,21z M19.7,21l1.1-2.3l2.6,1.2L19.7,21L19.7,21z"/>
<path class="st4" d="M10.1,28.1l0.6-5.3l-4.1,0.1C6.6,22.9,10.1,28.1,10.1,28.1z M23.3,22.7l0.6,5.3l3.5-5.2L23.3,22.7z M26.4,16.9
	L19,17.2l0.7,3.8l1.1-2.3l2.6,1.2C23.4,19.9,26.4,16.9,26.4,16.9z M10.6,19.9l2.6-1.2l1.1,2.3l0.7-3.8l-7.4-0.3L10.6,19.9z"/>
<path class="st5" d="M7.6,16.9l3.1,6.1l-0.1-3C10.6,19.9,7.6,16.9,7.6,16.9z M23.4,19.9l-0.1,3l3.1-6.1
	C26.4,16.9,23.4,19.9,23.4,19.9z M15,17.2L14.3,21l0.9,4.5l0.2-5.9L15,17.2z M19,17.2l-0.4,2.4l0.2,5.9l0.9-4.5L19,17.2L19,17.2z"/>
<path class="st6" d="M19.7,21l-0.9,4.5l0.6,0.4l3.9-3l0.1-3L19.7,21z M10.6,19.9l0.1,3l3.9,3l0.6-0.4L14.3,21L10.6,19.9L10.6,19.9z"
	/>
<path class="st7" d="M19.8,30l0-1.2l-0.3-0.3h-5l-0.3,0.3l0,1.2l-4.2-2l1.5,1.2l2.9,2h5.1l3-2l1.4-1.2L19.8,30L19.8,30z"/>
<path class="st8" d="M19.5,25.9l-0.6-0.4h-3.7l-0.6,0.4l-0.4,2.9l0.3-0.3h5l0.3,0.3L19.5,25.9L19.5,25.9z"/>
<path class="st9" d="M32.7,10.6l1.1-5.3l-1.7-5L19.5,9.6l4.9,4.1l6.9,2l1.5-1.8l-0.7-0.5l1-1l-0.8-0.6l1-0.8L32.7,10.6L32.7,10.6z
	 M0.2,5.2l1.1,5.4l-0.7,0.5l1.1,0.8l-0.8,0.6l1,1L1.3,14l1.5,1.8l6.9-2l4.9-4.1L1.9,0.2L0.2,5.2z"/>
<path class="st6" d="M31.3,15.7l-6.9-2l2.1,3.1l-3.1,6l4.1,0h6.1L31.3,15.7z M9.7,13.7l-6.9,2l-2.3,7.1h6.1l4.1,0l-3.1-6L9.7,13.7
	L9.7,13.7z M19,17.2l0.5-7.6l2-5.4h-8.9l2,5.4l0.4,7.6l0.2,2.4v5.9h3.7l0-5.9C18.9,19.6,19,17.2,19,17.2z"/>
</svg>
