<?xml version="1.0" encoding="utf-8"?>
<!-- Generator: Adobe Illustrator 25.2.0, SVG Export Plug-In . SVG Version: 6.00 Build 0)  -->
<svg version="1.1" id="Layer_1" xmlns="http://www.w3.org/2000/svg" xmlns:xlink="http://www.w3.org/1999/xlink" x="0px" y="0px"
	 viewBox="0 0 512 512" style="enable-background:new 0 0 512 512;" xml:space="preserve">
<style type="text/css">
	.st0{clip-path:url(#SVGID_2_);fill:#012169;}
	.st1{clip-path:url(#SVGID_2_);stroke:#FFFFFF;stroke-width:60;}
	.st2{clip-path:url(#SVGID_2_);}
	.st3{clip-path:url(#SVGID_4_);stroke:#C8102E;stroke-width:40;}
	.st4{clip-path:url(#SVGID_2_);stroke:#FFFFFF;stroke-width:100;}
	.st5{clip-path:url(#SVGID_2_);stroke:#C8102E;stroke-width:60;}
	.st6{clip-path:url(#SVGID_2_);fill:#128BBF;}
	.st7{clip-path:url(#SVGID_2_);fill:#E8ECE9;}
	.st8{clip-path:url(#SVGID_2_);fill:#69522B;}
	.st9{clip-path:url(#SVGID_2_);fill:#BCA76B;}
	.st10{clip-path:url(#SVGID_2_);fill:#CFA763;}
	.st11{clip-path:url(#SVGID_2_);fill:#D7C99C;}
	.st12{fill:#7FB8C1;}
	.st13{clip-path:url(#SVGID_2_);fill:none;stroke:#000000;stroke-width:2;}
	.st14{fill:#CFA763;}
	.st15{fill:#D7C99C;}
	.st16{fill:none;stroke:#000000;stroke-width:0.5;}
	.st17{clip-path:url(#SVGID_2_);fill:#666666;}
	.st18{clip-path:url(#SVGID_2_);fill:#BCA76B;stroke:#472B1F;stroke-width:0.3767;stroke-miterlimit:5.2518;}
	.st19{fill:#333333;stroke:#000000;stroke-width:1.313;stroke-miterlimit:5.2518;}
	.st20{fill:#472B1F;}
	.st21{clip-path:url(#SVGID_2_);fill:#FFFFFF;}
	.st22{clip-path:url(#SVGID_2_);fill:#C8102E;}
	.st23{clip-path:url(#SVGID_2_);fill:none;stroke:#000000;stroke-width:0.6565;stroke-miterlimit:5.2518;}
	.st24{fill:none;stroke:#472B1F;stroke-width:1.313;stroke-miterlimit:5.2518;}
	.st25{fill:#BCA76B;stroke:#472B1F;stroke-width:0.3;}
	.st26{clip-path:url(#SVGID_2_);fill:#472B1F;}
	.st27{fill:#BCA76B;stroke:#472B1F;stroke-width:0.3802;stroke-miterlimit:5.2518;}
	.st28{fill:#BCA76B;stroke:#472B1F;stroke-width:0.5218;stroke-miterlimit:5.2518;}
	.st29{fill:#BCA76B;stroke:#472B1F;stroke-width:0.6376;stroke-miterlimit:5.2518;}
	.st30{fill:#BCA76B;stroke:#472B1F;stroke-width:0.546;stroke-miterlimit:5.2518;}
	.st31{fill:#BCA76B;stroke:#472B1F;stroke-width:0.5286;stroke-miterlimit:5.2518;}
	.st32{fill:#BCA76B;stroke:#472B1F;stroke-width:0.557;stroke-miterlimit:5.2518;}
	.st33{fill:#BCA76B;stroke:#472B1F;stroke-width:0.6806;stroke-miterlimit:5.2518;}
	.st34{fill:#BCA76B;stroke:#472B1F;stroke-width:0.5828;stroke-miterlimit:5.2518;}
	.st35{fill:#BCA76B;stroke:#472B1F;stroke-width:0.5642;stroke-miterlimit:5.2518;}
	.st36{fill:#BCA76B;stroke:#472B1F;stroke-width:0.571;stroke-miterlimit:5.2518;}
	.st37{fill:#BCA76B;stroke:#472B1F;stroke-width:0.6978;stroke-miterlimit:5.2518;}
	.st38{fill:#BCA76B;stroke:#472B1F;stroke-width:0.5975;stroke-miterlimit:5.2518;}
	.st39{fill:#BCA76B;stroke:#472B1F;stroke-width:0.5784;stroke-miterlimit:5.2518;}
	.st40{fill:#BCA76B;stroke:#472B1F;stroke-width:0.2559;}
	.st41{fill:none;stroke:#000000;stroke-width:0.6565;stroke-miterlimit:5.2518;}
	.st42{stroke:#000000;stroke-width:0.3939;stroke-miterlimit:5.2518;}
	.st43{clip-path:url(#SVGID_2_);fill:#BCA76B;stroke:#472B1F;stroke-width:0.3783;stroke-miterlimit:5.2518;}
	.st44{fill:#BCA76B;stroke:#472B1F;stroke-width:0.3264;stroke-miterlimit:5.2518;}
	.st45{fill:#BCA76B;stroke:#472B1F;stroke-width:0.298;stroke-miterlimit:5.2518;}
	.st46{fill:#BCA76B;stroke:#472B1F;stroke-width:0.3217;stroke-miterlimit:5.2518;}
	.st47{clip-path:url(#SVGID_2_);fill:#333333;}
	.st48{clip-path:url(#SVGID_2_);fill:#BCA76B;stroke:#472B1F;stroke-width:0.352;stroke-miterlimit:5.2518;}
	.st49{clip-path:url(#SVGID_2_);fill:#BCA76B;stroke:#472B1F;stroke-width:0.4556;stroke-miterlimit:5.2518;}
	.st50{clip-path:url(#SVGID_2_);stroke:#000000;stroke-width:0.9191;stroke-miterlimit:5.2518;}
	.st51{fill:#BCA76B;stroke:#472B1F;stroke-width:0.4335;stroke-miterlimit:5.2518;}
	.st52{fill:#BCA76B;stroke:#472B1F;stroke-width:0.5298;stroke-miterlimit:5.2518;}
	.st53{fill:#BCA76B;stroke:#472B1F;stroke-width:0.4536;stroke-miterlimit:5.2518;}
	.st54{fill:#BCA76B;stroke:#472B1F;stroke-width:0.4392;stroke-miterlimit:5.2518;}
	.st55{fill:#BCA76B;stroke:#472B1F;stroke-width:0.4556;stroke-miterlimit:5.2518;}
	.st56{fill:#BCA76B;stroke:#472B1F;stroke-width:0.6013;stroke-miterlimit:5.2518;}
	.st57{fill:#BCA76B;stroke:#472B1F;stroke-width:0.5008;stroke-miterlimit:5.2518;}
	.st58{fill:#BCA76B;stroke:#472B1F;stroke-width:0.5119;stroke-miterlimit:5.2518;}
	.st59{fill:#BCA76B;stroke:#472B1F;stroke-width:0.5248;stroke-miterlimit:5.2518;}
	.st60{fill:#BCA76B;stroke:#472B1F;stroke-width:0.7506;stroke-miterlimit:5.2518;}
	.st61{fill:#BCA76B;stroke:#472B1F;stroke-width:0.5491;stroke-miterlimit:5.2518;}
	.st62{fill:#BCA76B;stroke:#472B1F;stroke-width:0.5443;stroke-miterlimit:5.2518;}
	.st63{fill:#BCA76B;stroke:#472B1F;stroke-width:0.5683;stroke-miterlimit:5.2518;}
	.st64{fill:#BCA76B;stroke:#472B1F;stroke-width:0.6944;stroke-miterlimit:5.2518;}
	.st65{fill:#BCA76B;stroke:#472B1F;stroke-width:0.5946;stroke-miterlimit:5.2518;}
	.st66{fill:#BCA76B;stroke:#472B1F;stroke-width:0.6285;stroke-miterlimit:5.2518;}
	.st67{fill:#BCA76B;stroke:#472B1F;stroke-width:0.274;stroke-miterlimit:5.2518;}
	.st68{fill:#BCA76B;stroke:#472B1F;stroke-width:0.2821;stroke-miterlimit:5.2518;}
	.st69{fill:none;stroke:#000000;stroke-width:1;}
	.st70{fill:none;stroke:#000000;}
	.st71{fill:#69737C;stroke:#000000;stroke-width:0.7288;stroke-miterlimit:1.9434;}
	.st72{fill:#66452B;stroke:#000000;stroke-width:0.7288;stroke-miterlimit:1.9434;}
	.st73{fill:#FFFFFF;}
	.st74{fill:#69737C;}
	.st75{fill:none;stroke:#000000;stroke-width:0.7288;stroke-miterlimit:1.9434;}
	.st76{fill:#BCA76B;}
	.st77{stroke:#000000;stroke-width:0.4858;stroke-miterlimit:1.9434;}
</style>
<g>
	<defs>
		<circle id="SVGID_1_" cx="255.1" cy="256.9" r="256.9"/>
	</defs>
	<clipPath id="SVGID_2_">
		<use xlink:href="#SVGID_1_"  style="overflow:visible;"/>
	</clipPath>
	<path class="st0" d="M-153.6-33.8h908.4v590.3h-908.4V-33.8z"/>
	<path class="st1" d="M-3.5,19l361.2,180.6 M357.7,19L-3.5,199.6"/>
	<g class="st2">
		<defs>
			<path id="SVGID_3_" d="M-3.5,19v90.3h421.4v90.3h-60.2L-3.5,19z M357.7,19H177.1v210.7H-3.5v-30.1L357.7,19z"/>
		</defs>
		<clipPath id="SVGID_4_">
			<use xlink:href="#SVGID_3_"  style="overflow:visible;"/>
		</clipPath>
		<path class="st3" d="M-3.5,19l361.2,180.6 M357.7,19L-3.5,199.6"/>
	</g>
	<path class="st4" d="M177.1,19v210.7 M-3.5,109.3h421.4"/>
	<path class="st5" d="M177.1,19v210.7 M-3.5,109.3h421.4"/>
	<path class="st6" d="M378.2,343.4c-0.1,41.7-6.7,86.6-61.1,107.9c-54.4-21.4-61-66.3-61.1-107.9L378.2,343.4z"/>
	<path class="st7" d="M317.1,451.3c24.6-9.7,39.9-25.5,48.8-42.4c-1.4-0.5-4.2-0.5-5.3-0.1c-1.3-0.1-52.5-3.9-58.6-6
		c-5.2-1.9-25.2,1.6-34.5,4.9C276.2,425.6,291.2,441.1,317.1,451.3L317.1,451.3z"/>
	<path class="st8" d="M279.1,425.5c0.8-0.3,2.4-0.2,3-0.1c0.7,0.1,0.9,0.2,1.1-0.6c0.3-0.8,0.9-0.6,1.3-0.2c0.5,0.4,1.7,0.2,2.1-0.5
		c0.5-0.7,0.6-0.6,1.1-0.1c0.5,0.5,0.7,0.3,1.1,0.2c0.5-0.1,1.3-0.7,1.7-1.4c0.4-0.7,1-1,1.3-0.6c0.3,0.4,0.7,0.6,1.1,0.5
		c0.5-0.1,0.6,0.4,0.5,1c-0.1,0.6,0.2,0.7,1.3-0.2c1,1,1.3,0.6,1.3-0.5c0-1.1-0.3-5-0.7-5.5c-0.4-0.5-0.8-2.1-0.9-3.3
		c-0.1-2.3-0.1-2.4-2.9-3.8c0-0.8-0.2-1.1-2.1-1c0.1-0.3-0.3-1.1-0.7-1.4c-0.4-0.3-0.5-0.5-0.3-1.4c0.8,0.1,1.7-0.1,2.1-0.7
		c0.5-0.7,2-0.5,2.9-0.1c0.9,0.4,2.1,0.5,3.9,0.2c0.7-0.5,1.8-1.1,3-1.8c1.2-0.7,1.5-0.9,1.6-1.9c0.2-2.4-0.7-5.1-1.3-6.4
		c-0.7-1.3-0.9-2.9-1.8-4.8c-1-2.2-1-2.7-2.1-4c-0.3-0.4-0.7-0.7-0.7-1.4c-0.1-0.7-0.3-1.7-1.1-2.5c-2-1.8-2.8-7.8-3.6-12.1
		c-0.5-2.5-0.1-8.4-1.2-9.3c-1.8-1.5-2.7-1.2-3.9-1.7c-0.9-1.2-1.3-3.6-2.1-5.7c-1.3,0.2-2.1,1.5-3,2c-0.9,0.5-1,0.5-1,1.7
		c0,1.2-0.7,2.8-1.9,4.7c-1.2,1.9-3.2,1.3-4.9,4.1c-3.7-4.4-3.7-5.7-4-7c-0.3-1.3-0.9-1.5-2.9-3.3c0-0.5-0.3-2.7-0.1-3.8
		c-1.5-1.3-2.7-1.1-3.4-0.1c-0.7,0.9-1.3,2.3-2.4,2.8c-0.7,0.9-2.7,3-4.4,5.6C258.1,384.2,263.3,407.2,279.1,425.5L279.1,425.5z"/>
	<path class="st9" d="M378.2,343.4c0-15.7-0.8-30.9-0.4-44.3c-20.3-9-47-10.9-60.7-10.9c-13.6,0-40.4,1.9-60.7,10.9
		c0.4,13.4-0.5,28.6-0.4,44.3L378.2,343.4z"/>
	<path class="st10" d="M259.3,361.5c0.7,1.1,1.9,2.9,2,3.9c0.5-1,0.8-1.4,0.9-2c0.1-0.6,0.8-1.8,0.5-2.4c-0.3-0.6-0.5-1.1,0.3-0.7
		c0.7,0.5,0.6,1.3,0.4,2.5c-0.4,3.2-1.8,3.9-2,6.1c2,4.6,0.5,6.3,2.6,10.8c0.3,0.2,1.2-0.2,1.5-0.1c1.1-0.8,2-0.5,3.6-0.2
		c1.6,0.3,2.5,1.5,2.5,2.5s0,1.3,0.3,1.9s1,1.5,0.9,2.2c-0.1,0.7,0.1,1.1,0.3,1.4c0.2,0.3-0.1,1.1-0.3,1.5c-0.2,0.5-0.1,1.1,0.7,2.1
		c0.8,1,2.7,5.2,2.7,7.6c0,2.5,0.1,3.6,1.1,4c1,0.5,1.3,0.9,1.2,1.9c-0.1,1.1,0.5,6.6,0.6,7.4c0.1,0.9,0.5,0.7,0.9,1.1
		c0.4,0.5,0.7,1,2,1c1.3,0,2.6-0.2,3.5,0c1.2,1.7,1.9,3.9,2.2,5.3c0.3,1.4,0.2,3.3,0.7,3.3c0.5,0,0.9,0.1,0.8-1.7
		c-0.1-1.7-0.3-2-0.9-2.9c-0.6-0.9-0.9-1.3-0.6-1.8c0.3-0.5,0.4-1.4,0.3-2.1c-0.1-0.7-0.3-1.7,0.8-0.3c1.1,1.3,1.5,1.7,1.8,2.1
		c0.3,0.5,0.5,1.3,0.4,2.1c-0.1,0.8,0.1,1.1,0.5,0.7c0.5-0.4,1.1,0.3,0.8,1.1c-0.3,0.9,0.1,1.4,0.9,1.7c0.8,0.3,1.1,0.5,1.3,1.1
		c0.2,0.6,0.9,0.9,0.9-0.3c0-1.2-0.5-3.7-0.8-4.5c-0.3-0.8-0.6-2.5-0.7-3.5c-0.1-1-0.3-1.3-0.7-1.5c-0.5-0.2-0.9-0.5-0.9-1
		c-0.1-0.5-0.5-0.6-0.8-0.6s-0.6-0.2-0.7-0.6c-0.2-0.3-0.3-0.4-0.7-0.4s-0.9,0.2-1-0.4c-0.2-0.5-0.4-1.3-0.7-1.7
		c-0.3-0.4-0.6-0.6-0.7-2.1c0-1.5-0.1-1.7-0.5-2.2c-0.5-0.5-1.3-1.9-1.6-2.5c-0.3-0.6-0.7-1.2-0.7,0.1c0,1.3,0,1.9,0.8,2.4
		c0.8,0.5,1,0.5,0.7,1.1c-0.3,0.7,0,1.1,0.1,1.6c0.1,0.5,0.4,0.9,0,1.4c-0.4,0.5-0.8,0.3-0.7-0.4c0.1-0.7-0.2-1.6-0.5-2.2
		c-0.3-0.6-0.6-1-1-0.7c-0.4,0.3-0.7-0.1-0.5-0.3c0.3-0.3,0.2-0.5,0-0.7c-0.2-0.2-0.3-0.4,0.1-0.8c0.3-0.4,0.3-0.6,0.1-1.5
		c-0.2-0.9-1.7-5.6-2.3-6.6c-0.7-1.1-0.6-1.9,0.3-0.8c0.9,1.1,1.6,2,1.7,2.8c0.1,0.9,0.3,1.4,0.5,1.7c0.3,0.3,0.5,0.2,0.6-0.5
		c0.1-0.7,0.7-0.5-0.3-1.9c-0.9-1.4-2.7-3.7-3.3-7.9c-0.7-4.2-0.9-7-1.6-8.1c-0.7-1.1-0.9-1.4-0.9-2.5c-0.1-1.1,0-2.1-0.5-2.9
		c-0.5-0.8-0.8-0.9-0.9,0.3c-0.1,1.2,0.1,3.8,0.4,4.3c0.3,0.5,0.1,1.7,0.1,2.3c-0.1,0.7-1.1,1.3,1.1,2.7c0.9,0.5,0.7,1.3,0.6,1.7
		c-0.1,0.5-0.3,0.4-0.7-0.3c-0.5-0.7-0.9-1.3-1.4-1.7c-0.5-0.4-0.5-0.7-0.5-1.6c0.1-0.9,0.3-1.6,0-1.9c-0.3-0.3-0.4-0.1-0.5,0.5
		c-0.1,0.5-0.3,2-0.5,2.4c-0.3,0.4-0.4,0.1-0.6-0.7c-0.2-0.9,0.1-2.2,0.5-3.7c0.5-1.5,0.7-3.1,0.3-5.1c-0.4-2-0.2-2.6-1.7-4.2
		c-1.5-1.7-3.3-3.3-4-5.3c-0.7-2.1-0.9-3.8-1.7-4.8c-0.8-0.9-1.9-2.1-2.7-2.5v-3c0-0.7-0.3-1.2-1.2-1.1c-0.9,0.1-1.4,0.9-1.9,1.9
		c-0.5,1-0.9,0.5-1.7,2.3S259.3,359.7,259.3,361.5L259.3,361.5z"/>
	<path class="st10" d="M264.1,381c0.5,0.3,1,0.6,1.8,0.2c0.8-0.4,1.8-1.5,2.8-0.4c1.1,1.1,1.7,3,1.7,4.4c0,1.5,0,4.2,1.7,5.7
		c1.7,1.5,2.5,3.1,2.6,5.1c0.1,2,0.8,5,1,5.8c0.2,0.8,0.7,1.7,1.2,2.3c0.5,0.5,0.9,2.1,1,3.6c0.1,1.6-0.2,2.7,0,3.5
		c0.2,0.8,0,1.5-0.6,1.1c-0.6-0.4-0.7-0.6-1.1-1.3c-0.3-0.7-0.7-0.5-0.4,0.5c0.3,1,1.3,1.9,2.2,1.9c0.9,0,1.1,0.1,1.7,0.7
		c0.5,0.5,0.6,0.8,1.5,0.8c0.9,0,1.1,0,1.9,0.3c0.9,0.3,0.9,0.1,1.3,0c0.5-0.1,0.9,0.3,1.3,1.1c0.3,0.9,1.1,3.2,1.1,3.9s0,1.3,0.5,2
		c0.5,0.7,0.3,1.3-0.2,0.9c-0.5-0.4-0.5-0.3-0.9-0.2c-0.4,0.1-0.7-0.1-1.2-0.5c-0.5-0.3-0.2-0.3-0.7-1.1c-0.5-0.8-0.9-1.1-0.9-0.5
		s-0.1,1.3-0.5,1c-0.4-0.3-0.6-0.3-0.9,0c-0.3,0.3-0.5,0.6-0.9-0.1c-0.4-0.7-0.9-0.7-1.3-0.8s-0.4-0.1-0.6-0.7
		c-0.2-0.6-0.8-0.7-1.3-0.7c-0.5,0-0.8-0.3-0.9-0.7c-0.1-0.4-0.4-0.7-0.7-0.9c-0.3-0.2-0.1-0.7-0.2-1.1c-0.1-0.5-0.5-0.3-0.7-0.4
		c-0.3-0.1-0.5-0.1-0.5-0.7s-0.3-0.9-0.5-1.3c-0.2-0.5,0-0.9,0.1-1.5c0.1-0.5,0.1-0.9-0.3-1.3c-0.4-0.5-0.1-0.9-1.1-1.9
		c-1.1-0.9-1.6-0.1-1.9-2.3c-0.3-2.2-1-6.7-1.6-7.4c-0.6-0.7-1-1.3-1.6-1.5c-0.6-0.2-1-0.1-1.1-1.3c-0.1-1.3-0.5-2.8-1.3-3.6
		c-0.8-0.8-1.1-1.1-1.5-1.4s-0.5-0.9,0-2.1c0.5-1.1,0.3-2.7,0.3-3.4c-0.1-0.7-0.3-1.7-0.1-2.5c0.1-0.8,0.1-1.8-0.1-2.3
		C264,381.5,263.8,381.4,264.1,381L264.1,381z"/>
	<path class="st11" d="M284.4,417.2c-0.4,0.8-0.9,0.5-1.3,0.1c-0.4-0.4-0.9-0.4-0.7-1.1c0.2-0.7,0.1-0.9-0.4-1.3
		c-0.1,0-0.1-0.1-0.2-0.1c-0.2,0-0.4,0-0.6,0c-0.9,0-1-0.3-1.5-0.8c-0.1-0.1-0.2-0.2-0.3-0.3c0,0.1,0,0.3,0,0.5c0,0.7,0,0.6-0.7,0.8
		c-0.7,0.2-0.6-0.7-0.7-1.3c0-0.1-0.1-0.2-0.1-0.4c-0.8-0.2-1.7-1-2-1.9c-0.3-1,0.1-1.1,0.4-0.5c0.3,0.7,0.5,0.9,1.1,1.3
		c0.6,0.4,0.8-0.3,0.6-1.1c-0.1-0.3-0.1-0.6-0.1-0.9c-0.1-0.3-0.3-0.5-0.6-0.6c-1.1-0.5-0.7-0.6-0.7-1.5c0.1-0.9-0.1-0.9-0.8-0.4
		c-0.7,0.5-0.7-0.1-0.7-1.4c0-1.3-0.9-1.3-1.1-0.4c-0.2,0.9-0.5,0.3-0.9-1s-0.9-1.7-1-0.4c-0.1,1.1-0.4,1.3-1.1,0.7
		c0.1,0.8,0.2,1.5,0.3,2.1c0.3,2.2,0.9,1.4,1.9,2.3c1.1,0.9,0.7,1.4,1.1,1.9c0.4,0.5,0.5,0.8,0.3,1.3c-0.1,0.5-0.3,1-0.1,1.5
		c0.2,0.5,0.5,0.7,0.5,1.3s0.2,0.6,0.5,0.7c0.2,0.1,0.4,0,0.5,0.1c0.2-0.2,0.3-0.5,0.5-0.7c0.8-0.8,2,0.1,2.4,1.1
		c0.4,1,0.9,1.3,1.5,0.5c0.6-0.8,0.4-0.7,1.1,0.1c0.7,0.7,0.9,0.6,0.9,0.6s0.7-0.3,1.1,0.1c0.5,0.4,0.7,0.3,1.6-0.9
		C286.1,416,284.8,416.4,284.4,417.2L284.4,417.2z"/>
	<g class="st2">
		<path class="st12" d="M285,426.5c1.6-0.1,5.9-1.4,6.4-1.8c1.1,0.7,2.9,1.7,3.7,1.7c-1.5,0.3-2.5,0.1-2.9-0.1
			c0.2,0.5,0.7,1.2,1.1,1.3c-1.5-0.1-3.1-0.4-3.7-0.9C288.4,427.2,286.2,427.3,285,426.5L285,426.5z M287.9,428.5
			c0.6,0.2,3.4,0.6,3.8,0.6c-0.9,0.8-0.1,1.6,1.4,1.4c-0.8,0.1-1.6,0.4-1,0.5c1.4,0.3,5.1-0.7,5.8-1.1
			C296.6,431.5,290.4,433,287.9,428.5z M290.4,432.5c0.8-0.4,2.7-0.3,3.6,0.2C293,433.1,291,433.1,290.4,432.5z"/>
		<path class="st12" d="M293.3,432.5c1.4-0.2,5.2,0.7,6.6-0.1c-0.5,1.2-2.9,1.4-3.7,1.1c-0.8-0.3-1.6-0.6-2.2-0.6
			C294.3,432.7,293.8,432.7,293.3,432.5L293.3,432.5z M294.7,434.4c1,0.2,4.7-0.3,5.9-0.7c1.2,0.4,3.6,1,4.1,1c-1.1,0.7-3.3,0.3-4,0
			C298.7,435.3,297.1,435.5,294.7,434.4z"/>
		<path class="st12" d="M296.5,435c1.5,0.3,2.7,0.1,4.2-0.4c0.5,0.2,1.5,0.4,2.5,0.4c0.7,0.4,1.6,0.9,2.4,1c-0.9,0.4-4.2,0-4.9-0.4
			c-1.7,0-4.5,0.4-5.2,1C295.5,436.1,295.8,435.4,296.5,435L296.5,435z M294.7,427.5c1.2,0.4,5.3,0.2,7.5-0.8
			c0.8-0.4,1.4,0.3,0.4,0.6c-3.5,1.2-6.2,1.7-8.2,0.6C293.6,427.5,293.5,427.1,294.7,427.5L294.7,427.5z M315.2,421.9
			c-5.1,2.4-8.6,3.1-15.7,0.9c-0.7-0.2-1.1,0-0.4,0.5c0.7,0.5,4.7,1.5,5.6,1.6c0.9,0.1,0.6,0.5,0,0.7c-0.6,0.2-0.7,0.6,0,0.3
			c0.8-0.3,5.1-0.4,6.8,0.5c0.8,0.4,1,0.3,0.9,0c-0.1-0.3,0.3-0.5,0.9-0.6c0.6-0.1,0.9-0.3,0.5-0.4c-0.4-0.2-0.5-0.3-0.2-0.4
			c0.3-0.2,0.4-0.3-0.1-0.4s-0.8-0.2-0.4-0.5c0.5-0.2,1.2-0.4,1.7-0.5C315.1,423.2,314.8,422.2,315.2,421.9L315.2,421.9z"/>
		<path class="st12" d="M306.7,422.5c2.9,0.2,8.4-1.1,11.2-3.9c1,0.6,2.4,1.3,3.1,1.4c0.7,0.1,1.4,0.8,0.3,0.8s-2.7-0.5-3.5-0.8
			c-3.8,2.3-8.3,3.1-11.1,2.9C305.9,422.7,305.7,422.4,306.7,422.5L306.7,422.5z M302,414.2c-0.4,0.1-2.1,0.5-2.6,0.4
			c-0.5,0-0.9,0.1-0.9,0.4c0,0.3,0.2,0.5-0.5,0.5c-0.7-0.1-1.3,0.2-1.5,0.4s-0.3,0.4,0.4,0.5c0.7,0.1,1.1,0.1,1.9-0.2s1.6-0.9,2.4-1
			C302.1,415.1,303,414,302,414.2L302,414.2z"/>
		<path class="st12" d="M299.6,416.2c0.7,0.5,4.3,1.7,5.6,1.6c1.3-0.1,1.1,0.5,0.1,0.7c-2,0.4-4.5-0.5-6.2-1.8
			C298.3,416.1,299.1,415.9,299.6,416.2L299.6,416.2z"/>
		<path class="st12" d="M316.7,418c-2.8,0.9-5.6,0.6-6.7,0.3c-1.1-0.3-2.2-0.4-1.4,0.4c0.8,0.7,3.2,1.2,4.6,0.9
			c-5,1.1-6.3,1-7.5,0.8c-1.2-0.2-3.6-0.2-4.5-0.1c-0.7,0.1-1.7,0-2.2-0.3c-0.4-0.3-0.6-0.8,0.7-0.6c1.3,0.1,1.5-0.1,0.3-0.3
			c-1.1-0.2-2.7,0.3-1.2,1.3c1.5,1,4.9-0.1,7,0.5c2.1,0.6,6.7,1,11-2.4C317.2,418.2,317.6,417.7,316.7,418L316.7,418z M310.3,415.2
			c-0.6,0-1.6-0.3-2.1-0.6c-0.5-0.2-1.3-0.3-0.7,0.5c0.6,0.8,3,1.2,3.9,0.8c0.9-0.4,0.5-0.8,1.4-0.2c0.9,0.5,1.8,0.9,2.4,0.9
			c0.6,0,0.9,0,0.2-0.4c-0.7-0.4-1-0.5-1.1-0.8c-0.1-0.3-0.2-0.5,0.5-0.3c0.6,0.2,1.4,0.6,1.9,0.3c0.5-0.3,1.4-0.9,2.3-0.9l0.2-0.5
			c-1.2-0.1-2,0.3-2.3,0.4s-0.9,0.2-1.6,0.1c-0.6-0.1-1.5-0.2-1.7-0.3c-0.2-0.2-0.2-0.3,0.3-0.4c0.5-0.1,0.7-0.5,0-0.3
			c-0.7,0.1-2.7,0.1-3.7-0.3c-1-0.3-1.5-0.4-1.9-0.2c-0.4,0.2-0.4,0.6,0.3,0.7c0.6,0,2.1,0.2,2.6,0.6c0.5,0.5,0.4,0.5-0.1,0.3
			S309.2,414.5,310.3,415.2L310.3,415.2z M334.5,413.4c-2,1.5-4.4,1.8-7.3,2c-0.8,0.1-0.6,0.3,0.1,0.4c3,0.3,6.5-0.8,7.6-2
			C335.3,413.5,335.2,412.9,334.5,413.4z M320.8,416.8c0.9,0,3.9,0.8,4.8,1.1c0.7-0.1,0.9-0.2,0.8-0.5c-0.1-0.3-0.2-0.6,1.1-0.5
			c1.3,0.1,4.4,0,5,0c0.5-0.2,1.5-1,2-1c-1.2,0.1-6.2,0.3-6.8,0.3c-0.6-0.1-1,0-1.4,0.2c-0.4,0.2-0.6,0.3-1.1,0.1
			c-0.5-0.2-1.4-0.5-1.9-0.2C322.7,416.7,321.7,416.5,320.8,416.8L320.8,416.8z"/>
		<path class="st12" d="M332.5,417c0.5-0.2,1.5-1,2-1c0.9-0.1,1.9,0.3,2.3,0.4c0.5,0.1,1,0,0.6-0.4c-0.3-0.4,0-1,1.3-0.8
			c1.4,0.2,2.1,0.4,3.4,0.3c1.3-0.1,1.9,0.9,4.5-0.1c-0.2,1,0.3,1.1,0.7,0.9s1-0.1,1.8,0.5c0.8,0.6,5.7,0.7,6.8,0.5
			c1.1-0.2,1.7,0.4,0.9,0.7c-0.9,0.3-1.1,0.7-0.9,0.9c0.2,0.3,0.4,0.6-0.7,0.5c-1.1-0.1-1.3,0.2-1.8,0.6c-0.5,0.4-0.7,0.5-2.1,0.3
			c-1.5-0.3-1.7-0.1-2.5,0.1c-0.8,0.1-1,0.1-1.8-0.1c-0.8-0.3-2.5-0.5-3.6-0.2c-1.1,0.3-1.9,0.7-2.8,0.4s-1-0.1-0.4-0.7
			s0.7-0.5,1.9-0.7c1.1-0.1,2-0.5,1.2-0.9c-0.8-0.5-1.1-0.4-2.1,0.1c-1.1,0.5-1.6,0.9-2.8,0.2c-1.2-0.7-1.8-0.5-2.6-0.3
			S333.7,417.5,332.5,417L332.5,417z M336.5,419c-1.5,0.2-1.9-0.8-3.5-0.6c-0.5,0.1-1.4,0.7-0.2,0.6c1.2-0.1,2.6,0.6,3.8,0.5
			C337.8,419.4,337.2,418.9,336.5,419L336.5,419z M334.8,420.1c0.8-0.3,2.5,0.3,3.2,0.1s1.4,0.3,0.6,0.5c-0.7,0.2-2.5-0.4-3.3-0.2
			C334.5,420.8,333.7,420.5,334.8,420.1L334.8,420.1z M318.8,424.4c1.1,0,5.1-0.1,6.6-3.4c0.1-0.3,0.2-0.4,0.7,0
			c0.5,0.3,2.3,1.4,5.8,1.7c1,0.1,2,0.6,0.1,0.4c-1.9-0.1-5-0.7-6-1.3c-1.7,2.7-4.9,3-7.2,3C317.4,424.7,317.7,424.4,318.8,424.4z"
			/>
		<path class="st12" d="M327.4,419.9c-0.5,0.7-2.4,2-3.2,2.1c-0.8,0.1-3.3-0.2-4-0.4c-0.6-0.2-1.4-0.2-0.5,0.5
			c0.9,0.6,3.1,1.1,4,0.9c0.9-0.2,1.9-0.5,2.6-0.1c0.7,0.4,2,1.3,2.8,1.1c0.8-0.2,2.3-0.2,2.8,0.1c0.5,0.2,1.4,0.9,0.1,0.5
			c-1.3-0.4-2.4-0.1-3-0.3c0.7,0.9,2.2,2.4,3.5,2.4c0.3,0,0.5,0.5-0.1,0.8c0.6,0.3,2.1,0.5,2.9-0.2c-0.2,0.3-0.1,0.4,0.2,0.6
			c0.3,0.2,0.7,0.4,0.1,0.5c-0.6,0.1-2,0.2-2.4,0.1c1.3,0.8,4.7,2.2,8.1,1.5c0.7-0.1,1-0.4-0.1-0.4c-2.2,0.1-2.3,0-2.7-0.2
			c-0.4-0.2-0.3-0.4,0.3-0.6c0.6-0.2,2.2-0.4,2.9-0.4c0.7,0,1.3-0.3,0-0.3s-3,0-3.7-0.2c-0.7-0.2-1.2-0.5-0.5-1
			c0.7-0.5,1.4-0.3,1.8-0.8c-2.2,0-4.9-1.2-3.4-2.3c0.3-0.2,0.2-0.3-0.3-0.3c-0.6-0.1-2.2-0.5-2.9-0.9c-0.7-0.4-0.2-0.7,0.3-0.8
			C331.7,421.9,329.1,421.2,327.4,419.9L327.4,419.9z M347,419.8c-1.2,0.9-3.5,1.3-4.4,1.3c-1,0-1.1,0.3-0.3,0.4
			c0.8,0.1,1.6,0.2,1.9,0.1c0.3-0.1,0.5-0.1,1,0.1c0.5,0.2,1.6,0.4,2.5,0.1c0.9-0.3,2.5-0.4,3.1-0.4c0.6,0,1.3,0.1,0.1-0.3
			c-1.3-0.4-3.3-0.1-3.8,0c-0.5,0.1-1.9,0-1.1-0.2c0.7-0.2,1.4-0.6,1.7-0.9C347.4,420,347.2,419.9,347,419.8L347,419.8z
			 M346.4,422.4c-1,0.8-2.5,1.5-4.1,1.6c1.4,0.5,2.6,1.9,3.5,1.9c-0.4,0.3-1,0.7-1.5,0.7c0.9,0.2,2.3,0,3.5-0.7
			c2,0.6,4.6,0.2,5.5-0.5c-1.3,0-2.9-0.5-3.6-1.1c0.6,0,1.2-0.4,1.5-0.8C349.7,423.8,347.1,423.1,346.4,422.4L346.4,422.4z"/>
		<path class="st12" d="M344.2,426.6c0.6-0.1,1.1-0.5,1.5-0.7c-1.1,0.4-5.9-0.4-7.3-1.7c-1.4-1.3-1.4-0.3-0.4,0.6
			C339,425.7,340.7,427,344.2,426.6L344.2,426.6z M347.8,429.6c-0.6,0.3-3.5,0.5-4.4,0.3c-0.9-0.2-1.3-0.1-1.1,0.3
			c0.2,0.4,0.3,0.7-0.4,0.6c-0.8-0.1-2.1,0.1-2.7,0.3c-0.6,0.2-1.3,0.7-0.1,0.5c1.2-0.2,2.3-0.4,3.2-0.2c0.9,0.2,4.1,0.3,4.7,0
			c0.6-0.3,0.2-0.3-0.1-0.3s-0.4-0.2,0-0.4C347.3,430.6,347.7,430,347.8,429.6L347.8,429.6z M320,425.8c-1.2,0.5-5.2,1.6-6.3,1.7
			c-1.3,0.6-2.4,0.9-3.1,0.9c0.5,0.4,2.3,0.8,3,0.6c-0.4,0.4-1.3,0.9-1.7,1.1c1.1-0.1,2.3,0.1,2.9,0.2c-1.4,0.8-3.3,1.1-4.3,0.9
			c0.3,0.5,0.8,0.9,1.4,0.9c-1.3,0.3-2.8,0.3-3.6,0.1c0.3,0.7,0.7,1.1,1.1,1.1c-1.1,0.1-2.4,0.3-3.5-0.3c0.9,1.1,2.8,1.5,5.7,1.2
			c2.9-0.3,5.3-1.6,5.9-2.1c-1.2,0.1-2.8,0.2-3.6,0.1c1.6-0.4,5.1-1.9,5.7-2.5c-0.7,0-1.3-0.2-1.8-0.5c0.9,0.1,4.2-0.3,5.2-0.7
			c-1.2-0.3-1.9-1-2.3-1.5c4.2,1.3,8.9,0.9,11.2,0.3c0.5-0.1,0.6-0.8-0.5-0.7c-1.9,0.1-5.5-0.4-6.4-0.9c0.9,0.7,1.9,1.1,2.7,1.2
			C325.9,427.4,323.5,427.7,320,425.8z"/>
		<path class="st12" d="M312,430c0.3-0.2,1.3-0.7,1.7-1.1c-0.7,0.2-2.5-0.2-3-0.6c0.7,0,1.7-0.3,3.1-0.9c-2.4-0.1-4.1-0.1-4.9-0.5
			c-0.9-0.5-2.5-0.3-3.1-0.2c-0.6,0.1-0.4,1.1,2.1,0.9c-1.1,0.7-3.9,1-5,0.7c0.3,0.9,0.5,1.7,0.2,2.2c1.4,0.8,5.1,1.8,6.9,1.7
			c-1.6-0.6-2.5-1.3-1.1-1.4S310.8,430.4,312,430L312,430z M307.8,434.3c3.2-0.3,7.5-0.3,10.9-3.2c0.9-0.7,1.5-0.5,0.6,0.3
			c-1.8,1.6-6.3,3.8-10.6,3.8C307,435.3,306.2,434.5,307.8,434.3L307.8,434.3z M331.8,429.1c-0.8,0.3-3,0.7-3.7,0.6
			c-0.7-0.1-1.6-0.1-2.2,0.2c-0.5,0.3-0.6,0.5,0.2,0.6c0.7,0.1,1.7,0.1,2.1,0.1c-0.6,0.3-1,0.8-1.1,1c1.1-0.3,3,0.2,3.6,0.5
			c-0.4,0.1-0.9,0-1.3-0.2c1.8,1.9,7.1,1.9,8,1.6c-0.4,0.3-0.8,0.6-1.2,0.7c1.5,0.3,3.2,0.2,4.9-0.8c-0.6,0.1-2.3-0.1-2.7-0.1
			c0.4-0.4,0.8-0.6,1.3-0.8c-0.7-0.1-2.8-0.1-3.3,0.2c0.2-0.4,0.6-0.9,1-1.1c-2.6,0-5.8,0-7-0.7c1.9,0.2,3.9-0.9,4.8-0.9
			C333.8,430,332.2,429.7,331.8,429.1L331.8,429.1z M325,430.5c-1.3,0.3-3.3,0.8-3.8,1.1c-0.5,0.3-1.1,0.5,0.1,0.5
			c1.2,0,4.3,0.1,5,0.2c-1.8-0.3-4.2-0.3-4.6-0.3c-0.5,0-1,0-0.1-0.3C322.4,431.4,323.6,430.8,325,430.5L325,430.5z M322.4,433.6
			c0.5,0,2.5,0,3.3-0.7c0.8,0.6,2.4,1.5,3.5,1.5c1,0,0.9,0.3,0,0.4c-0.9,0.1-2.7-0.4-3.6-1.1C324.4,434.2,323.4,433.8,322.4,433.6
			L322.4,433.6z M306.9,442.6c2.1,0.8,4.8,1.4,6.8,0.7c1.1,1,3.5,1.1,4.7,0.8c1.3-0.3,2.4-0.4,3.8,0.1c1.4,0.5,4.3,0.5,5.1,1.2
			c-0.7,0-2.3,0-2.7,0.1c-0.4,0.1-0.2,0.3,0.5,0.7c-2.3-0.1-6.2,0.8-7.4,1.9c0.4-1,1.8-2.4,3.9-2.4c-1.2-0.4-5-0.5-6.3,0.3
			c-0.4-0.4-0.8-1.1-0.8-1.3C312.6,445.7,308.5,444,306.9,442.6L306.9,442.6z M301.6,438.8c2.5-0.3,4.1-1.1,4.9-1.9
			c0.4,0.4,2.2,0.8,4.2,0.2c-0.4,0.3-0.4,0.9-0.3,1.2c-1.3,0-3.8,0.7-4.6,1.1c-0.8,0.4-3.3,0.7-4.1,0.3
			C301,439.3,300.9,438.9,301.6,438.8L301.6,438.8z"/>
		<path class="st12" d="M310.4,438.3c-1.3,0-3.8,0.7-4.6,1.1c0.2,0.3,0.3,0.9,0.3,1.2c2.4-0.9,7.9-1.4,10-1.1c-1,0.1-2.9,1.1-4,1.2
			c2.6-0.2,5.1,0.3,5.8,0.5c0.7,0.2,0.8,0.7,0.3,1.1c-0.5,0.5-0.7,0.5,0.3,0.6c1.1,0,3.3-0.1,4.3-1.1c-0.4-0.4-1.4-0.3-1.7-0.6
			c0.7-0.2,1.5-0.7,1.8-1.1c-1.8,0-2.5-0.1-3.1-0.2c-0.6-0.1-1-0.3-0.3-0.7c0.7-0.4,1.1-0.7,1.3-1c-1.3,0.4-3.3,0.7-5-0.7
			c0.6,0.2,2.1,0.1,2.7-0.2c-0.6-0.3-1-0.5-1.5-0.5c1.4-0.7,4.1-1.3,7.4,0.1c1.7-0.1,3.5-0.1,4.7,0.3c0.5-0.5,1.7-1.8,2.3-2.1
			c-3.9,0.3-11-0.4-10.9-2.5c-1.3,1.7-4.2,2.6-5.5,2.3c-0.1,0.6,0.4,1.3,0.9,1.7c-1.3,0.3-3.6,0.5-4.7,0.3c0.6,0.6,1.7,1.1,2.4,1.1
			C312.3,438.2,311.6,438.4,310.4,438.3L310.4,438.3z"/>
		<path class="st12" d="M318.6,443c1.1,0,3.3-0.1,4.3-1.1c-0.4-0.4-1.4-0.3-1.7-0.6c0.7-0.2,1.5-0.7,1.8-1.1
			c2.8-0.2,5.3-0.1,6.5-0.5c1.2-0.4,4.3-0.2,4.9-0.3c-2.7,0.4-3.2,0.7-3.3,1.1c-0.1,0.4,0.9,0.8,1.5,0.8c-1.2-0.1-2.7,1.2-2.8,1.7
			c-1.6-0.9-2.4,0.2-2.5,0.5c-0.7-0.3-2.9-0.2-4,0.8c-1.5-0.4-2.4-0.7-3.9-0.4C320.1,443.7,320,443.1,318.6,443L318.6,443z
			 M331.5,435.3c0.9,0,2.9,0.1,3.6,0c-0.5,0.2-1.1,0.7-1.2,0.9c2.3-0.3,5.4-0.4,6.3-0.3c-1.1-0.2-2.2,0.5-2.8,0.9
			c-0.6,0.4-0.2,0.6,0.5,0.7c0.8,0.1,1.8,0.7,0.4,0.5c-1.4-0.2-4.2-0.2-4.8-0.1c-0.7,0.1-1-0.2-0.1-0.4c1-0.1,1.6-0.5,2.1-0.7
			c-0.8,0.2-2.3,0.2-2.8,0.1c-0.5-0.1-0.8-0.4-0.2-0.5c0.5-0.1,0.2-0.3-0.4-0.3c-0.6,0.1-2,0.7-2.8,1.4
			C330.1,436.5,330.8,435.7,331.5,435.3L331.5,435.3z M321.3,436.8c1.1,1.2,2.4,1.9,4.5,2c0.4,0,1.2,0.6,0.2,0.6
			c-2.8,0.1-4.2-0.6-5.4-2.4C320.2,436.6,320.7,436.1,321.3,436.8z M356.9,421.7c-0.8,0.6-1.9,1.6-1.2,2.9c0.1,0,0.2-0.1,0.3-0.1
			c3.2-3.8,6-8,8.5-12.3c0-0.1,0.1-0.3,0.1-0.4c-0.9,0.8-2.4,1.6-3,1.8c0.4,1.1-1.5,2.5-2.5,2.9c0.4,0.7,0.3,1.7-0.6,1.9
			c0.2,0.6-0.5,0.6-1.3,0.9c-0.8,0.3-1.2,0.6-1.5,1c0.4-0.2,1-0.4,1.4-0.3c0.3,0.1,0.4,0.6-0.2,0.7c-0.6,0.1-1,0.5-1.2,0.7
			C356.5,420.9,357.7,421.1,356.9,421.7L356.9,421.7z M298,406.5c1,0.7,2.8,1.9,5.1,1.7c1.1,0.9,2.9,1.7,3.7,1.8
			c-1.5,0.6-3.2,1.2-3.6,1.7c-0.7-0.7-1.6-0.6-1.8-0.9c-0.7,0.5-0.6,0.9-0.1,1.1c0.4,0.3,3.8,0.8,4.6,0.6s1.1,0.5,0.4,0.7
			c-1.8,0.6-5.3,0-6.5-1.9c-1.2-1.9-2.2-2.7-5.5-0.9c-0.4-0.9-0.4-1.2-1-1.2c-0.6,0-1.8-0.8-0.9-0.8
			C293.1,408.5,295.8,408.1,298,406.5L298,406.5z"/>
		<path class="st12" d="M298.8,410.8c-0.6,0.1-2.1,1-2.7,1.1c-0.6,0.1-1.6,0.9-0.5,0.9c1,0,2.4-1.1,3.1-1.2
			C299.4,411.5,299.5,410.7,298.8,410.8z M303.2,413.9c0.1,0.3,0.1,0.7,0,0.9c-0.1,0.2-0.1,0.5,0.3,0.2c0.4-0.3,0.7-0.7,1.1-0.5
			s1.5,0.2,2,0.1c0.5-0.1,0.7-0.2-0.1-0.5c-0.7-0.3-1.5-0.4-1.9-0.4c-0.4,0-0.9-0.1-1.2-0.2C303.2,413.5,303.1,413.6,303.2,413.9z
			 M319,414l-0.2,0.5c1.2,0,4.2,0.3,5.2,0.9c0.9-0.7,0.8-1,1.4-0.8c0.7,0.1,1.5,0.4,1.9,0.2s0.6-0.2,1-0.1c0.4,0.1,1.3-0.1,1.8-0.4
			c0.5-0.3,1.5-0.7,2.1-0.7c0.6,0,1.3-0.1,0.2-0.3c-1.1-0.2-2.8,0.2-3.3,0.4c-0.6,0.2-2.3,0.3-3.3,0.3c-1,0-2.4,0.5-3.5,0.2
			C321.2,413.8,319.7,414,319,414L319,414z M338,413.6c1.5,0.7,4.4,1.3,6.7,1.2c0.4,0,1.2,0.4,0.2,0.5c-2.6,0.2-4.9-0.1-7.1-1.3
			C337.2,413.6,337.4,413.3,338,413.6z M339.5,413.5c2.3-0.1,4,0,4.7,0.6c1.3-0.4,3.6-0.6,4.2-0.5c0.5,0.1,1.1-0.1-0.1-0.4
			c-1.2-0.3-4.1-0.4-5-0.2c-0.9,0.2-3.7,0.3-4.6,0.2C339,413.2,339.3,413.3,339.5,413.5L339.5,413.5z M348.3,414.4
			c1.1-0.6,4.1,0,5.1-0.4c-0.7,0.8,2.1,0.9,4.6,0.2c-0.9,0.6-2.9,0.7-3.8,1.1c-0.9,0.4-1.3,0.1-2-0.2
			C351.5,414.8,349.8,414.2,348.3,414.4z"/>
		<path class="st12" d="M358,414.2c-2.4,0.6-5.2,0.6-4.6-0.2c-0.9,0.4-4-0.1-5.1,0.4c1.1-0.7,1.9-0.1,2.7-1.5
			c0.5,0.1,1.7,0.2,2.1-0.4c0.7,0.2,1.9,0.5,2.3,0.8c0.4,0.4,0.9-0.1,0.5-0.7c1.1-0.4,0.4,0.5,3-0.2c0.5-0.1,1.8-0.4,2.3-0.4
			C360.3,412.9,359.3,413.6,358,414.2L358,414.2z"/>
	</g>
	<path class="st13" d="M378.2,343.4c-0.1,41.7-6.7,86.6-61.1,107.9c-54.4-21.4-61-66.3-61.1-107.9L378.2,343.4z"/>
	<g class="st2">
		<path class="st14" d="M280.2,362.1c-0.9,1.2-1.9,2.1-3.1,3c-1.2,0.9-2.9,1.6-2,3.1c0.9,1.5,1.6,1.7,1.8,2.8
			c0.2,1.1,0.4,2.1,1.3,2.4c0.9,0.3,1.2,0.1,1.2,1.9s0,2.6,0.8,3.3c0.8,0.7,0.7,1.4,1.1,3.1c0.4,1.7,0.4,5.3,1.4,7.8
			c1.1,2.5,3.5,7.2,3.2,8.1c-0.3,1-0.6,1.7,0.4,2.8c1.1,1.2,1.8,2.8,1.9,3.8c0.1,1,0.3,1.3,1.3,1c1.1-0.4,1.6-0.7,2-1.2
			c0.4-0.4,1.1-0.4,2,0.2c1,0.5,2.5,1.1,3.4,0.5c0.9-0.5,1.3-1.3,2.1-1.3c1.2-0.9,1.7-2.7,2-3.3c0.3-0.5,0.1-0.5-0.4-1.1
			c-0.5-0.5-0.3-1.4-0.4-2.3c-0.1-0.9-0.4-2.2-1.5-4.2c-1.1-1.9-1.7-4.3-2.4-4.9c-0.7-0.6-1.1-2.1-1.2-2.8c-0.1-0.7-0.9-1.3-1.4-1.9
			c-0.5-0.5-1.1-1.3-1.7-4.4c-0.6-3.1-1.1-5.3-1.1-5.8s-0.1-0.6-0.6-0.8c-0.5-0.2-0.8-1.1-0.6-1.5c0.2-0.4-0.2-0.9-0.4-1.4
			c-0.2-0.5,0-1.5,0.4-2c0.4-0.5,0.3-2-0.1-3.3c-0.4-1.2-0.7-2.3-2.1-2.5c-1.4-0.2-1.7-0.5-2.2-1.7c-0.5-1.1-1.1-3.2-1.2-3.6
			c-0.2-0.4-0.4-0.5-1.5,0.4c-1.1,0.9-1.4,1.2-1.4,2.8c0,1.1,0.2,1.4,0.5,2c0.4,0.6,0.4,0.8,0.7,2.5c0.3,1.7,1.8,4.3-0.2,5.8
			c-2,1.5-1.7,1.9-1.6,2.9c0.1,1.1-0.5,1.8-0.9,0.3c-0.4-1.5,0-2.4,1.1-3.1c1.1-0.7,2-1.6,1.3-2.6c-0.7-1-1-3.3-1.1-4.3
			C281,361.7,280.8,361.3,280.2,362.1L280.2,362.1z"/>
		<g>
			<path class="st15" d="M264.3,384.6c0,0.7,0.1,1.5,0.2,2.1c0.1,0.7,0.3,2.3-0.3,3.4c-0.5,1.1-0.4,1.7,0,2.1c0,0,0,0,0.1,0.1
				c1.1-0.4,1.2-1.6,0.9-2.2c-0.3-0.6-0.2-1.4,0.1-2c0.4-0.6,0.4-1,0-1.4c-0.3-0.4-0.3-0.4,0-1.7C265.8,384,265,384,264.3,384.6
				L264.3,384.6z M275.7,401.8c-0.2-0.8-0.9-3.8-1-5.8c-0.1-2-0.9-3.6-2.6-5.1c-1.3-1.2-1.6-3.1-1.7-4.6c-1-0.6-1.4-0.3-1.3,0.8
				c0.1,1.2,1.3,1.8,1.1,3.5c-0.2,1.7-0.2,1.3,0.7,2.1c0.8,0.8,1.2,1.6,0.7,2c-0.4,0.4-0.5,1,0.1,1.2c0.6,0.2,0.7,0.9,0.6,1.5
				c-0.1,0.6,0.5,0.8,0.8,1.2c0.4,0.4,0.4,1.5,0,2.1c-0.4,0.6-0.4,1.6,0.2,1.1c0.6-0.5,0.9,0,1.4,0.8c0.4,0.7,0.8,0.5,1.2,0.3
				C276,402.5,275.8,402.1,275.7,401.8L275.7,401.8z M270.5,365c-0.7,0-1.1,0.6-0.7,2.6c0.2,1.2-0.7,1-1.1,0.4
				c-0.4-0.6-0.6-1.9-1.3-3.1c-0.7-1.1-0.4,0.8-0.4,1.9c-0.1,1.1,0.6,1.1,1.2,1.9c0.6,0.9,0.1,1.2-0.6,1.2c-0.7,0-0.4,1.4-0.2,2.4
				c0.2,1-0.2,1.2-0.7,0.4c-0.5-0.8-0.2-2-0.1-3.5c0.1-1.5,0.2-1.2-0.8-1.5c-1-0.4-0.8-0.5-0.4-1.4c0.4-0.9,0.7-1.3,0.3-1.8
				c-0.4-0.4-0.4-0.7,0.4-0.8c0.7-0.1,0.4-0.6,1.1-0.8c0.6-0.2,0.9,0.1,1-1.1c0.1-1,0.4-1.5,1.1-1.3
				C269.6,362,270.1,364.3,270.5,365L270.5,365z M286.8,380.8c0.3-1.9,0.1-3.9,0.9-4.6c0.8-0.7,1.8-2.1,1.7,0.9
				c-0.1,3-0.2,2.8-0.8,3.5c-0.6,0.7-1.2,0.9-0.5,2c0.6,1.1,0.7,1.2,0.6,3c-0.1,1.8-0.1,2.5,0.6,3.4c0.7,0.9,0.9,1,1.1,1.9
				c0.2,1,0.8,2.3,1.6,3c0.8,0.7,1.7,2.7,1.8,4.2c0.1,1.4,1.3,1.8,2.5,2.7c1.2,1-0.3,1.7-1.2,1.2c-0.9-0.4-0.5,0-1.1,0.6
				c-0.5,0.6-0.7,0.7-1.2-0.4c-0.4-1.1-2-1.8-2.7-2c-0.7-0.3-1.3-1.4-2-2.6c-0.5-1-1.6-1.7-2.6-1.8c0.3,0.7,0.4,1.3,0.3,1.6
				c-0.3,1-0.6,1.7,0.4,2.8c1.1,1.2,1.8,2.8,1.9,3.8c0.1,1,0.3,1.3,1.3,1c1.1-0.4,1.6-0.7,2-1.2c0.4-0.4,1.1-0.4,2,0.2
				c1,0.5,2.5,1.1,3.4,0.5c0.9-0.5,1.3-1.3,2.1-1.3c1.2-0.9,1.7-2.7,2-3.3c0.3-0.5,0.1-0.5-0.4-1.1c-0.5-0.5-0.3-1.4-0.4-2.3
				c-0.1-0.9-0.4-2.2-1.5-4.2c-1.1-1.9-1.7-4.3-2.4-5c-0.7-0.6-1.1-2.1-1.2-2.8c-0.1-0.7-0.9-1.3-1.4-1.9c-0.5-0.5-1.1-1.3-1.7-4.4
				c-0.5-2.4-0.9-4.3-1-5.3c-0.6,1-1.1,1.3-1.3,0.6c-0.3-0.8-0.6-1.2-1-0.7c-0.4,0.5-0.4-0.4-0.4-0.9c0-0.4-0.1-0.5-0.5-0.5
				c-0.4,0-0.1-0.7-0.3-2c-0.2-1.3-0.4-1.5-0.6,0.1c-0.2,1.6-1.1,2.6-0.7,2.9c0.4,0.4,0.2,1.1-0.2,2.1c-0.4,1.1-0.2,1.7,0.1,2.4
				c0.3,0.7-0.2,2-0.4,3.2C285.7,381.6,286.5,382.8,286.8,380.8L286.8,380.8z M279.5,375.4c0,1.9,0,2.6,0.8,3.3
				c0.8,0.7,0.7,1.4,1.1,3.1c0.4,1.7,0.4,5.3,1.4,7.8c0.3,0.7,0.8,1.7,1.2,2.6c0.6-0.5,1.1-1.3,1.3-1.7c0.3-0.6-0.5-1.9-1.2-2.9
				c-0.6-1.1,0.1-1.4,0.7-2.7c0.6-1.3-0.1-1.4-1.1-1.8c-1-0.4-1-1.2-1.5-2.7c-0.5-1.4-0.4-2-0.1-2.8c0.4-0.8,0.1-1.4-0.6-1.6
				c-0.7-0.2-0.5-0.7-0.3-1.6c0.3-0.9,0.4-1.1-0.6-0.8c-0.8,0.2-1,0.3-1.2,0.6C279.5,374.5,279.5,374.8,279.5,375.4z"/>
		</g>
	</g>
	<g class="st2">
		<path class="st16" d="M296.3,374.6l-2.1,23.4 M302.7,389c-0.9,4-2,8.4-3.2,12.2 M330.7,377.7c1.6,1.5,3.8,1.9,6.2,3 M341.4,388
			l-1.2,9 M340.2,388.4l-2.1,9.2 M301.3,389.2c-1,3.8-2.3,7.3-3.6,10.9"/>
	</g>
	<path class="st17" d="M347.7,411c-0.1,0-0.1,0-0.2,0c-0.1,0-0.1,0-0.2,0l-0.2,0c-0.1,0-0.1,0-0.2,0c-0.1,0-0.1,0-0.2,0
		c-0.1,0-0.1,0-0.2,0.1c0,0-0.1,0.1-0.1,0.1c0,0-0.1,0.1-0.1,0.1c-0.1,0.1-0.1,0.1-0.2,0.2l-0.1,0.1c-0.1,0.1-0.1,0.1-0.2,0.2
		l-0.1,0.1c0,0-0.1,0.1-0.1,0.1c0,0-0.1,0.1-0.1,0.1c-0.5,0.4-1,0.6-1.7,0.7c-0.4,0.1-1.5,0.2-1.9,0c-0.8,0-1.7,0-2.2-0.4
		c-0.6-0.3-1.4-0.1-1.8,0.2c-0.4,0.2-0.4,0.6-0.9,0.7c-0.3,0.3-1.4,0.3-1.8,0.2c-1,0.1-1.6-0.3-2.3-0.5c-0.5-0.3-1.2-0.6-1.7-0.1
		c-0.3,0.4-0.8,0.6-1.3,0.7c-1,0-2.1,0.1-2.8-0.2c-0.8-0.1-1.1-0.5-1.8-0.7c-0.8-0.1-1.2,0.3-1.7,0.5c-0.5,0.4-1.1,0.4-2,0.4
		c-0.9,0-1.9,0.1-2.4-0.2c-0.7-0.1-1.1-0.5-1.7-0.7c-0.5-0.4-1.5,0-1.9,0.2c-0.8,0.1-1,0.7-2,0.6c-0.8-0.1-1.3-0.4-2-0.6
		c-0.7-0.3-1.3-0.8-2.4-0.7c-0.3,0.4-1,0.6-1.7,0.6c-0.6,0-1.3,0-1.7-0.2c-1.3,0-1.9-1.4-2.8-2.1l-4.7-4.6c0.3-0.8,0.4-1-0.1-1.5
		c0.2-0.8-0.4-0.9-0.2-1.8c0.3-0.6-0.6-0.5-0.9-0.9c-0.6-0.1-0.8-0.5-1.3-0.7c-0.4-0.3-0.9-0.5-1.4-0.8c-0.5-0.2-0.9-0.5-1.3-0.7
		c-0.3-0.3-0.8-0.5-1.1-0.8c-0.4-0.2-0.8-0.5-1.1-0.7c-0.5-0.1-0.7-0.5-1.1-0.7c-0.3-0.3-0.8-0.5-1.2-0.8c-0.6-0.2-1.1-0.6-1.7-0.7
		c-0.4,0-0.6-1,0.2-0.9c0.6,0,0.9,0.4,1.3,0.6c0.7,0.3,1.3,0.6,2.1,0.7c0.5,0.3,0.9,0.4,1.4,0.6c0.5,0.4,1.1,0.4,1.7,0.8
		c0.5,0.2,1.2,0.5,1.5,0.8c0.5,0.2,0.7,0.5,1.2,0.7c0.2,0.2,0.5,0.3,0.8,0.6c0.5,0.2,0.9,0.4,1.3,0.6c0.4,0.3,0.7,0.3,1,0.6
		c0.4,0.1,3,1.4,2.8,1.3c2.5,0.5,3.6,0.6,6.2,1l18.4,0.3l6.7-2.8l2-3.2l9.9-1.8c-0.2-0.2,17.3-0.6,17.7,0.9c0.2,0.6,0.6,1.9,0.1,2.2
		c-0.4,0.2-16.6-2.1-16.8-0.6c-0.1,0.6,0,4.6,0.1,5.2l0.3,1.9l0.3,1.9l0.3,1.9L347.7,411L347.7,411z"/>
	<g class="st2">
		<path class="st16" d="M297.6,386.1c-3,3.4-5.9,6.1-9.1,8.7 M313.9,372.3l9.6-8.3 M309.6,380.5c1.9,1.3,4.1,2.6,7,3.3 M308.3,367.9
			c1.2,1.9,2.6,3.7,6.8,4.8 M305.5,349c-1.3,1.7-3.4,3.3-6.1,4.7 M309,360.7c1.4,1.3,3.3,2.1,5.3,2.8 M309,389.6
			c1,4.8,1.8,8.5,2.9,12.5"/>
		<path class="st16" d="M308.2,402c5-5.1,9.3-10.6,12-16.9 M330.4,366.5c1.6,1.7,3.3,3,5.9,3.7 M337.4,360.4c1.4,2.4,3,4.2,4.6,6.2
			 M322.6,352.8c-0.2,2.4-1.6,4.8-2.7,6.9"/>
		<path class="st16" d="M326.1,354c-1.8,2-3.5,4.1-5.9,5.3 M326.4,345.4c-1.2,0.8-2.9,1.8-4.3,2.3 M344.6,363.8
			c-1.5,1.8-2.9,3.8-5.4,5.3 M344.9,378.4c-1.9,1.8-3.6,3.9-5.7,5.2 M355.8,388.7c-3.4,2.6-6.8,5.1-10.6,7.1 M347,396.1
			c3.2-2,6-4.7,8.8-7.4 M346.1,364.1c0.6,1.6,2,3.3,3.4,4.5"/>
	</g>
	<path class="st18" d="M344,348.3l-0.3,47.8l3.5-0.2l-1.5-47.8L344,348.3z"/>
	<g class="st2">
		<path class="st19" d="M346.3,410c0.8,0.5,1.3,0.9,2,1.6c1.5,1.4,2.5,1.4,4.7,0c0.8,0.1,1.6,0.5,2.5,0.4c0.8,0,1.5-0.1,2.3-0.3
			c0.9-0.2,1.1-1.3,1.4-2.1c0.4-0.9,0.9-1.8,1.5-2.5c0.8-0.5,1.7-1.1,2.2-1.9c0.6-0.7,0.5-1.7,0.4-2.6c-0.1-0.9-0.1-1.7-0.1-2.5
			c-0.2-1.1,0.7-1.9,0.6-3c-0.5-0.5-1.4-0.6-2.1-0.8c-1.3-0.3-2.6-0.5-3.9-0.6c-1.1-0.1-2.1-0.2-3.2-0.3c-1-0.1-2.1-0.2-3.1-0.2
			c-1.2,0-2.4-0.1-3.5,0.1c-0.8,0.2-1.9,0.1-2.5,0.5c-0.3,0.8-0.5,1.6-0.5,2.4c-0.1,0.7-0.2,1.4-0.2,2.2c0,1.4-0.1,2.7,0.2,4.1
			c0.3,1.1,0.3,2.1,0.5,3.2C345.6,408.5,345.7,409.3,346.3,410L346.3,410z"/>
		<g>
			<path class="st16" d="M350.3,386.7l4.7,8.9 M362.1,396c-1.4-1.5-2.5-3.2-3.3-5.3"/>
		</g>
	</g>
	<g class="st2">
		<path class="st20" d="M361.8,382.2l1.6,1.1l0.1,0C363,382.8,362.5,382.3,361.8,382.2C361.8,382.2,361.8,382.2,361.8,382.2
			L361.8,382.2z M358.5,382.6l-0.2,0.1l-2.2,8.6L358.5,382.6z M369,382.9c-0.5,0-1.1,0.3-1.6,0.5l0.9-0.3l1.2-0.2
			C369.4,382.9,369.2,382.9,369,382.9L369,382.9z M358.8,390.7l-0.4,0.1c0.2,0,0.4,0,0.5,0c0.2,0.1,0.4,0.1,0.6,0.2L358.8,390.7z
			 M359.7,391.2c0.6,0.3,1,0.8,1.7,1L359.7,391.2z M364.7,391.7l-2.9,0.6C362.8,392.3,363.7,391.9,364.7,391.7z"/>
	</g>
	<path class="st21" d="M358.7,382.1l-2.5,9.2l2.6-0.5l2.8,1.5l4.2-0.8l2.1,0.3c0.7-2.9,0.5-6.4,2.2-8.9l-1.7,0.3l-2.8,1l-2.2-0.8
		l-1.7-1.2L358.7,382.1z"/>
	<path class="st22" d="M362.7,383.2c-0.4,0.8-0.9,1.7-1,2.7c0,0-1.2-0.4-1.9-0.5c-0.7-0.1-2.1,0-2.1,0l0,0.1l-0.6,2.2
		c0.1,0,1.7-0.2,2.4-0.1c0.5,0.1,1.5,0.6,1.5,0.6l-0.8,3.5l0.5,0.3l1.1,0.3l0,0l0.5-0.1c0.2-1.2,0.4-2.4,0.9-3.3
		c0,0,1.7,0.5,2.6,0.4c0.6,0,2-0.2,2.3-0.2c0.1-0.7,0.2-1.5,0.3-2.2c-0.3,0.1-1.8,0.4-2.6,0.4c-0.7-0.1-2.1-0.8-2.1-0.8
		c0.2-0.8,0.5-1.5,0.9-2.3L362.7,383.2z"/>
	<path class="st23" d="M356.8,382.1c-1.1-3.1-2.5-8.1-3.1-12"/>
	<g class="st2">
		<path class="st24" d="M357.8,382.8c0,0,2.8-0.7,3.9-0.4c1.2,0.3,2,1.6,3.2,1.8c1.4,0.2,2.7-1.1,4.1-1.2c0.7-0.1,2,0.3,2,0.3
			l-0.9,3.4l-0.8,2.8v2.5c0,0-2.4-0.6-3.5-0.5c-1.5,0.1-2.7,1-4.2,0.8c-1.1-0.2-1.6-1.1-2.7-1.4c-0.9-0.2-3.1,0.4-3.1,0.4
			L357.8,382.8z"/>
		<g>
			<path class="st25" d="M358.3,382.7l-1.1,0.1l-3.5,12.3l1.6,0.1L358.3,382.7z"/>
			<path class="st25" d="M357.2,382.7c-0.5-0.3-0.8-1.1-0.6-1.5c0.3-0.6,1.2-0.7,1.8-0.5c0.7,0.2,1.6,0.9,1.4,1.5
				C359.5,383.1,358,383.2,357.2,382.7L357.2,382.7z"/>
		</g>
	</g>
	<path class="st26" d="M370,383c-1.7,2.4-1.5,5.8-2.2,8.6c0.8,0.1,1.5,0.3,1.5,0.3v-2.5l0.8-2.8l0.9-3.4
		C371,383.2,370.5,383.1,370,383z"/>
	<g class="st2">
		<path class="st16" d="M350.1,373c1.7,1.2,3.5,4.3,6,6.8 M353.4,368.6c-1.3-3.4-2.3-8.9-2.5-13 M348.3,388.3l2.7,7.1 M351,352.3
			c-2.3-0.6-4.6-2.3-4.9-3.6 M335.7,354.6c1.5,0.1,6.8-3.9,7.6-5.9 M349.2,387.3l3.7,8 M348.9,390l2.7-1 M349.4,391.5l2.9-1.2
			 M350.6,394.5l3.2-1.3 M347.3,378.7l3.8,4.1 M339.2,388.7l-2.6,8.9 M338.5,390.6l2.7,0 M337.8,392.8l3.1,0.1 M337.1,395.1l3.4,0.6
			"/>
	</g>
	<g class="st2">
		<path class="st27" d="M346.1,347.1c-0.6-0.2-2.3-0.3-2.9,0.3c-0.4,0.3-0.1,1.2,0.4,1.2c0.9,0,2,0.1,2.4-0.2
			C346.3,348.1,346.5,347.2,346.1,347.1L346.1,347.1z"/>
		<path class="st28" d="M336.4,354.5c1.1,4.7,6.1,3.9,5.9-0.4"/>
		<path class="st29" d="M341,354.3c1.5,5.4,7.9,4.5,7.6-0.4"/>
		<path class="st30" d="M346.4,354.2c1.5,3.9,3.5,3.2,5.9-0.4"/>
		<path class="st31" d="M353.8,352.3l-18.1,1l0,1.2l18.3-0.9L353.8,352.3z"/>
		<path class="st32" d="M337.1,370.5c1.1,5.1,6.3,4.4,6.1-0.3"/>
		<path class="st33" d="M341.8,370.4c1.4,5.9,8.2,5,7.9-0.3"/>
		<path class="st34" d="M347.5,370.4c1.4,4.3,3.6,3.5,6.2-0.3"/>
		<path class="st35" d="M355.2,368.5l-18.9,0.8l0,1.3l19-0.7L355.2,368.5z"/>
		<path class="st36" d="M336.6,385c1.2,5.3,6.5,4.4,6.3-0.4"/>
		<path class="st37" d="M341.4,384.8c1.3,7.8,8.5,5,8.1-0.5"/>
		<path class="st38" d="M347.3,384.7c1.5,4.4,3.7,3.6,6.3-0.5"/>
		<path class="st39" d="M355.1,382.6l-19.4,1.2l0,1.4l19.5-1.1L355.1,382.6z"/>
		<g>
			<path class="st40" d="M348.6,361.7l-7.2,0.2l0,1.8l7.2,0L348.6,361.7z M348.7,376.9l-7.2,0.2l0,1.8l7.2,0L348.7,376.9z"/>
		</g>
	</g>
	<g class="st2">
		<path class="st41" d="M330.7,385.2l5.3,12.7 M303.9,389.2c-0.6,4-1.5,9.2-2.5,13"/>
		<path class="st42" d="M363.3,396.9c-3-0.5-6-1-9.1-1.1c-2.4-0.1-4.8,0-7.2,0.2c-3.5,0.3-7.1,0.5-10.4,1.5
			c-0.5,0.1-0.9,0.3-1.3,0.6c-0.9,0.9-1,2.5-1.8,3.5c-0.8,1-3.7,2.7-4.8,3.4c-7.8,0.2-16.4,0.1-26-1.4l-1.4-1.5l-0.6-0.6l1.5,0.6
			l3.4,0.1l8.4-0.3c0,0,7.1,0,10.6-0.2c2-0.1,4-0.2,6-0.5c0.4-0.1,0.9,0,1.3-0.2c0.6-0.4,0.8-1.2,1.2-1.8c0.4-0.5,0.6-1.2,1.2-1.6
			c1.5-1.1,3.4-1,5.1-1.3c2-0.4,3.8-0.5,5.8-0.7c2.3-0.3,4.6-0.5,6.9-0.6c1.5-0.1,3-0.2,4.5-0.1c2.3,0.2,4.7,0,6.7,1.1
			c0.4,0.2,1,0.6,0.8,1C364,397.3,363.6,397,363.3,396.9L363.3,396.9z"/>
		<g>
			<path class="st16" d="M328,345.4c1.1,0.9,3.3,1.6,5.3,1.9 M325.6,377.8c-2.4,1.7-5,2.9-7.6,3.8 M332.5,400.5l-4.2-11.1
				 M329.1,385.8l4.9,12.6 M328.5,389.1l3.2-1.1"/>
		</g>
	</g>
	<path class="st43" d="M326.3,343.8l-1,58.8l3.5-0.2l-0.7-58.6L326.3,343.8z"/>
	<path class="st23" d="M330.5,352.8c1.4,2.6,3.5,4.7,6.7,6.1"/>
	<g class="st2">
		<path class="st32" d="M319.1,349.2c1.1,5.1,6.3,4.4,6.1-0.3"/>
		<path class="st33" d="M323.8,349c1.4,5.9,8.2,5,7.9-0.3"/>
		<path class="st34" d="M329.5,349c1.4,4.3,4.1,4.7,6.2-0.3"/>
		<path class="st35" d="M337.2,347.1l-18.9,0.8l0,1.3l19-0.7L337.2,347.1z"/>
		<path class="st32" d="M319.1,361c1.1,5.1,6.3,4.4,6.1-0.3"/>
		<path class="st33" d="M323.8,360.9c1.4,5.9,8.2,5,7.9-0.3"/>
		<path class="st34" d="M329.5,360.9c1.4,4.3,5.8,3.6,6.2-0.3"/>
		<path class="st35" d="M337.2,359l-18.9,0.8l0,1.3l19-0.7L337.2,359z"/>
	</g>
	<path class="st23" d="M324.7,367.6c-1.7,1.1-3.3,2.5-5.5,3.2"/>
	<g class="st2">
		<path class="st32" d="M318.5,372.2c1.1,5.1,6.3,4.4,6.1-0.3"/>
		<path class="st33" d="M323.3,372c1.4,5.9,8.2,5,7.9-0.3"/>
		<path class="st34" d="M328.9,372c1.4,4.3,5.3,3,6.2-0.3"/>
		<path class="st35" d="M336.6,370.1l-18.9,0.8l0,1.3l19-0.7L336.6,370.1z"/>
	</g>
	<g class="st2">
		<path class="st16" d="M320.9,385.6c-0.5,5.8-2.8,11.1-4.4,16.5 M323,385.7c-0.5,5.6-2.3,11-3.7,16.3 M324.8,385.2
			c-0.7,6.3-1.4,11.5-2.8,16.7"/>
	</g>
	<g class="st2">
		<path class="st32" d="M318.8,382.8c1.1,5.1,6.3,4.4,6.1-0.3"/>
		<path class="st33" d="M323.5,382.7c1.4,5.9,8.2,5,7.9-0.3"/>
		<path class="st34" d="M329.2,382.6c1.4,4.3,5.2,3.5,6.2-0.3"/>
		<path class="st35" d="M336.9,380.7l-18.9,0.8l0,1.3l19-0.7L336.9,380.7z"/>
		<path class="st44" d="M330.9,355.1l-6.8,0.2l0,1.8l6.8,0L330.9,355.1z"/>
		<path class="st45" d="M330.6,366.5l-6,0.2l0,1.7l6.1,0L330.6,366.5z"/>
		<path class="st46" d="M331,377.7l-6.6,0.2l0,1.8l6.6,0L331,377.7z"/>
	</g>
	<g class="st2">
		<path class="st16" d="M320.8,387.7l3.5,0.7 M320,391l4.1,0.1 M319.3,393.4l4.2,1.2 M318.2,397.1l4.9-0.2 M317.3,400.2l5.2-0.1
			 M316.1,385.5c-0.6,5.9,3.3,11.6,5.2,16.6 M332,398.9l3.3-1 M331.2,397.1l3.8-1.6 M330,394.3l3.9-1.2 M329.1,391.7l3.8-1"/>
	</g>
	<path class="st2" d="M308.7,412.6c-0.4,0-0.9-0.2-1.3-0.2c-0.4-0.1-0.9-0.3-1.3-0.5c-0.4-0.2-0.8-0.5-1.2-0.8
		c-0.4-0.3-0.7-0.6-1-0.9c-0.4-0.4-0.8-0.7-1.2-1.1c-0.4-0.4-0.8-0.8-1.1-1.2c-0.4-0.4-0.8-0.7-1.1-1.2c-0.3-0.3-0.3-0.9-0.6-1.3
		c-0.5-0.1-1.2-0.2-1.2-0.8c-0.2-0.4-0.2-0.8-0.7-0.8c-0.2,0-0.2,0.3-0.1,0.1c-0.2-0.1-0.2,0.4-0.2,0.1c-0.1,0.2-0.3,0.7-0.3,0.7
		c-0.2,0.4-0.2,0.9,0.4,0.9c0.5,0.1,0.6,0.6,1,0.9c0.4,0.3,0.8,0.8,1.2,1.1c0.4,0.5,0.7,0.7,0.9,1.2c0.2,0.4,0.7,0.6,0.9,0.9
		c0.2,0.4,0.5,0.7,0.8,1c0.3,0.3,0.7,0.7,1.1,0.9c0.4,0.2,0.7,0.4,1.1,0.6c0.4,0.2,0.8,0.5,1.2,0.6c0.5,0.3,1,0.2,1.6,0.3
		c0.5,0,1,0,1.4-0.3C309.3,412.6,308.9,412.7,308.7,412.6L308.7,412.6z M336.2,399.2c-0.6,1.5-1.6,3.5-2.8,4.8c4,0.8,7.3-0.3,10.9-1
		c-0.4-1.6-0.4-3.3-0.2-5.1C341.2,398.3,339.1,398.9,336.2,399.2L336.2,399.2z"/>
	<path class="st47" d="M336.6,399.6c-0.5,1.3-0.9,2.7-1.9,3.8c3.3,0.7,6-0.3,9-0.9c-0.6-1.2-0.4-2.5-0.2-3.8
		C341.1,398.9,339,399.4,336.6,399.6z"/>
	<path class="st2" d="M301.6,405.5l11.7,0.9c9.4,0.3,20.3-0.1,29.6-1.2c0.4,0,1-0.2,1.1,0.2c0.2,0.4-0.5,1-0.9,1.1
		c-10.7,1.4-21.6,0.9-32.4,0.8l-6.4-0.7L301.6,405.5z"/>
	<path class="st23" d="M305.9,379.1c-3,2.3-6,4.7-9.5,6 M306.4,368.1c-2.8,2-5.5,4.5-8.5,5.7"/>
	<path class="st48" d="M305.4,347.8l-0.1,55l3-0.2l-1.7-55.1L305.4,347.8z"/>
	<path class="st23" d="M306.6,347.5c2.4,2.7,4.4,4.2,6.5,5.9"/>
	<path class="st49" d="M307.3,346c-0.6-0.3-2.2-0.4-2.9,0.4c-0.3,0.4-0.1,1.8,0.4,1.8c0.9,0,2,0.1,2.3-0.3
		C307.5,347.5,307.8,346.2,307.3,346L307.3,346z"/>
	<path class="st50" d="M305.6,409.9c0.1-0.5,0.4-0.6,0.9-0.7c0.5,0,1.1-0.1,1.4,0.1c0.4,0.1,0.6,0.3,0.9,0.4
		c0.2,0.2,0.6,0.4,0.8,0.6c1,0.4,0.5-0.8,1-0.8c0.5,0,1-0.2,1.4,0c0.4,0.1,0.5,0.3,0.7,0.6c0.2,0.2,0.4,0.3,0.6,0.6
		c0.1,0.3,1.1,0.8,1.2,0.1c0.2-0.5,0.1-1.3,0.9-1.2c0.8,0,1.5,0.2,2.2,0.2c0.4,0.2,0.7,0.2,1.1,0.6c0.3,0.2,0.3,0.5,0.5,0.5
		c0.8,0.6,0.6-0.5,0.8-0.8c0.2-0.3,0.7-0.2,1-0.4c0.5-0.1,0.9-0.3,1.6-0.2c0.3,0.2,0.7,0.4,1.1,0.6c0.2,0.2,0.5,0.5,0.7,0.9
		c0,0.4,0.4,0.7,0.7,0.4c0.2-0.4,0.5-0.4,0.8-0.6c0.3-0.1,0.5-0.3,0.7-0.5c0.2,0,0.4-0.5,0.6-0.6c0.3-0.2,1-0.2,1.5-0.2
		c0.5,0.2,1.1,0.2,1.4,0.5c0.2,0.2,0.3,0.5,0.6,0.6c0.2,0.4,0.6,0.1,0.9-0.1c0.2-0.2,0.6-0.3,0.9-0.5c0.3-0.3,0.6-0.4,1.1-0.4
		c0.6-0.1,0.9,0.3,1.4,0.3c0.4,0.2,1,0.2,1.2,0.5c0.3,0.2,0.8,0.4,1.1,0.1c0.4,0,0.1-0.8,0.3-1c0.5-0.4,1.6-0.3,2.3-0.1
		c0.5,0,1.1-0.1,1.5,0.1c0.3,0.1,0.4,0.4,0.5,0.7c0.2,0.3,1.1,0.3,1.4,0.1c0.3,0-0.1-0.4-0.2-0.6c-0.2-0.1-0.4-0.4-0.5-0.6
		c0.5-0.2,0.7,0.2,1.1,0.2c0.2,0.2,0.5,0.3,0.7,0.5c0.4,0.1,0.7,0.3,1.2,0.2c0.5,0.2,0.3,0.9-0.3,0.7c-0.4,0.1-1.1,0-1.7,0.1
		c-0.8-0.1-1.7-0.1-2.5-0.1c-0.4,0.2-1.1,0.1-1.6,0.2c-0.5,0-0.9,0.1-1.5,0.1c-0.5,0.1-1.2,0.1-1.8,0.1c-0.5,0.1-1,0.1-1.6,0.2
		c-0.5,0-0.9,0.1-1.4,0.1c-0.7,0.1-1.7,0-2.5,0.1c-0.5,0.1-0.9,0.1-1.4,0.1c-0.5,0-1,0.1-1.5,0.1c-0.6,0-1,0.1-1.6,0.1
		c-0.9,0.1-1.9,0-2.8,0.1c-0.4-0.1-1-0.1-1.5-0.1c-0.5,0-0.8-0.1-1.3-0.1c-0.4-0.1-1,0-1.4-0.1c-0.8,0-1.3-0.1-2.1-0.1h-4
		c-0.3-0.1-1,0-1.4-0.1c-0.7,0-1.6,0-2.3,0c-0.6-0.1-1.3,0-1.8-0.2C306.6,410.8,305.6,410.5,305.6,409.9L305.6,409.9z"/>
	<g class="st2">
		<path class="st51" d="M299,354.6c1,3.6,5.5,3,5.4-0.2"/>
		<path class="st52" d="M303.1,354.5c1.3,4.1,7.1,3.5,7-0.2"/>
		<path class="st53" d="M308.1,354.5c1.3,3,3.5,3.3,5.4-0.2"/>
		<path class="st54" d="M314.8,353.2l-16.5,0.6l0,0.9l16.7-0.5L314.8,353.2z"/>
	</g>
	<path class="st23" d="M303.5,361.2c-1.4,1.3-4.2,2.9-5.4,2.8"/>
	<path class="st23" d="M300.5,356.6c-3.6,13.6-8.2,28-12.6,39.5"/>
	<g class="st2">
		<path class="st55" d="M298.8,364.9c1,3.8,5.6,3.3,5.5-0.2"/>
		<path class="st56" d="M302.7,364.8c1.3,5.1,7.3,4.4,7.2-0.3"/>
		<path class="st57" d="M308.2,364.7c1.4,3.2,4,3.5,6.2-0.2"/>
		<path class="st58" d="M315.1,362.9l-16.9,0.7l0,1.2l17.1-0.6L315.1,362.9z"/>
		<path class="st59" d="M297.9,374.7c1.1,4.7,6.1,4,6-0.3"/>
		<path class="st60" d="M302.5,374.6c1.5,6.9,8.5,5.9,8.3-0.4"/>
		<path class="st61" d="M308.1,374.5c1.4,4,4,4.3,6-0.3"/>
		<path class="st62" d="M315.5,372.8l-19.3,0.7l0,1.2l19.5-0.6L315.5,372.8z"/>
		<path class="st63" d="M297.6,386.1c1.2,5.1,6.6,4.3,6.5-0.3"/>
	</g>
	<path class="st23" d="M311.8,388.7c1.1,4.8,2.6,9.2,4,13.3 M310.4,388.6c0.6,4.6,1.9,9.1,3.2,13.5"/>
	<g class="st2">
		<path class="st64" d="M302.6,385.9c1.4,6.7,8.5,6.2,8.4-0.3"/>
		<path class="st65" d="M308.6,385.9c1.5,4.3,4.3,4.7,6.5-0.3"/>
		<path class="st66" d="M316.7,383.8l-21.5,0.9l0,1.5l21.7-0.8L316.7,383.8z"/>
		<path class="st67" d="M309.6,359.6l-6.2,0.2l0,1.4l6.2,0L309.6,359.6z M309.6,369.6l-6.2,0.2l0,1.4l6.2,0L309.6,369.6z"/>
		<path class="st68" d="M310,380.5l-6.6,0.2l0,1.4l6.6,0L310,380.5z"/>
	</g>
	<g class="st2">
		<g>
			<path class="st16" d="M312.5,390.1l-3.5,0.7 M313,392.8l-3.5,0.7 M313.8,395.7l-3.6-0.2 M314.9,398.5l-3.7,0.6 M298.4,398
				l3.7,0.7 M299.4,394.9l3.3,0.7 M300.3,392.6l3.1,0.8 M300.9,390.5l2.8,0.5"/>
		</g>
		<g>
			<path class="st69" d="M344.9,402.8c6.2-0.3,13.5-1,18.5,0.9 M345.3,404.9c5.7-0.8,12.3-1.3,17.2,0.6 M345.9,409
				c4.1-0.9,9.6-1.1,13.5-0.2 M346.3,410c4.1,0.9,8.9,1.1,12.8,0.2"/>
		</g>
	</g>
	<path class="st2" d="M286.3,395.6l13.3,8l0.3-0.4l-4.2-2.9C292.7,398.5,289.7,396.7,286.3,395.6z"/>
	<g class="st2">
		<g>
			<path class="st16" d="M350.2,402.2l-0.1-4.4 M351.6,397.8v4.5 M354.1,402.4v-4.8 M356.9,398v4.6 M358.5,398l0.1,4.6 M360.7,398.5
				v4.3 M361.9,398.4l-0.1,4.9 M350.8,404.1l-0.1,4.2 M349.4,404.3v4 M353.1,404.2l-0.2,4 M354.4,404.2l-0.1,4 M356.5,404.1
				l-0.3,3.9 M358.4,404.6l-0.7,3.6"/>
		</g>
		<path class="st70" d="M345,398c6.1-0.7,12.2,0.1,18.3,0.8"/>
	</g>
	<path class="st13" d="M378.2,343.4c0-15.7-0.8-30.9-0.4-44.3c-20.3-9-47-10.9-60.7-10.9c-13.6,0-40.4,1.9-60.7,10.9
		c0.4,13.4-0.5,28.6-0.4,44.3L378.2,343.4z"/>
	<g class="st2">
		<path class="st71" d="M313.4,317.9c0,0,2.2,3.3,2.8,5c0.3,0.9,0.4,1.8,0.3,2.7c-0.1,1.7-0.7,3.2-1.3,4.8c-0.4,1.1-1.1,1.9-0.7,3
			c0.2,0.5,0.4,1,1,0.9c0.3-0.1,0.5-0.5,0.8-0.7c0.2-0.2,0.4-0.3,0.6-0.4c0.3-0.1,0.8,0.1,1-0.2c0.2-0.2,0.4-0.6,0.2-0.8
			c-0.2-0.2-0.5,0-0.8,0c-0.4,0-0.8,0.3-1.1,0.1c-0.3-0.2-0.5-1-0.5-1s0.7-1.8,1-2.7c0.3-0.7,0.8-1.4,0.9-2.2c0.1-0.2,0-0.5,0-0.8
			c0-0.4-0.1-0.9,0.2-1.2c0.2-0.2,0.7,0.1,0.8-0.2c0.4-0.9-1.3-1.5-1.7-2.4c-0.1-0.3,0-0.7-0.2-1.1c-0.3-0.8-1.2-2.1-1.2-2.1
			L313.4,317.9z"/>
		<path class="st72" d="M320.3,320.4c0,0,1.9,2.4,2.1,3.9c0,0.3-0.2,0.6-0.2,1c0,0.5,0.3,1,0.3,1.5c-0.1,1.7-1,3.2-1.4,4.8
			c-0.3,1.4-0.9,4.1-0.9,4.1l1.2-0.1l0.2-2.1c0,0,0.7-2.4,1-3.6c0.2-0.8,0.3-1.7,0.6-2.5c0.2-0.5,0.6-1,0.7-1.5
			c0.2-0.7,0.4-1.5,0.1-2.2c-0.1-0.2-0.4-0.3-0.6-0.5c-0.4-0.4-0.7-1-1-1.5c-0.3-0.6-0.6-1.8-0.6-1.8
			C321.5,320.1,320.3,320.4,320.3,320.4L320.3,320.4z"/>
		<path class="st73" d="M311.1,316l1.4,1.1l2.4,1.5l1.1,0.1l1.3,0.5l1.6,0l1.2,1.2l0.3,0.2l1.3-0.2l0.5-0.5l2.5-3.7l-0.6-6.2
			l-11.7,0.8L311.1,316z"/>
		<path class="st73" d="M323.7,305.6c1.6,1.3,3.1,2.6,4.3,4.2c1,1.1,1.5,2.7,2.9,3.4c2,2.1,10.4,4.5,10.4,5.2
			c-1.9-0.8-2.8,1.9-4.7,1.4c-1.7,0.5-3.2-0.6-4.7-1.3c-2.3-0.1-4.6,0-6.7,1.2c-1.1,0.6-2.4-0.3-3.3,0l-0.1,0.2l-0.1,0.1 M311.1,316
			c-1.3-0.7-2.3-1.9-3.6-2.7c-1-1.4-2.2-2.7-2.2-4.5c-0.2-1.9-0.6-4.4,0.2-6.2c-0.6-1.4-1.5-1.8-2.2-3.1c-0.5-1.9-2.4-3-1.3-4.4
			c1.3-1.1,2.2-2.5,3.8-3.1c1.4-0.3,2.7-0.2,4.1,0.3c1.7,0.2,2.6,1.6,3.5,2.9c1.1,1.7,1.8,3.6,2.1,5.6c0.8,1.6,2.9,2,4.4,2.7
			c1.3,0.6,2.6,1.2,3.7,2.1"/>
		<path d="M332.9,316.5c-0.7-0.1-2.2,0.6-1.8-0.4c-1.6-0.1-3.3,0.2-4.9-0.3c-1.6-0.8-3.4-1.3-5.1-1.8c-1.7-0.1-3.7,0.3-5-1.1
			c-1.4-0.8-3.3-0.2-4.6-1.4c-1.3-1.1-2-2.5-2-4.2c-0.2-1.6-0.9-3.8,1-4.7c1.2-0.4,2.3-0.1,3-1.2c1.5-0.2,2.9,0.3,4.2,1
			c1.5,0.8,3.2,1.2,4.7,2.1c1.4,0.9,2.6,2.2,3.9,3.2c1,1.2,2.3,2.3,2.9,3.8c0.8,1.6,2.5,2.4,3.9,3.3c0.8,0.2,2.9,1.2,1,1.4
			C333.7,316.3,333.3,316.4,332.9,316.5L332.9,316.5z"/>
		<path class="st74" d="M316.3,311.2c-0.8-0.1-1.7-0.3-2.3-0.8c-0.5-0.3-1.9-1.1-1-1.7c0.7-0.1,1.5,0.3,2.2-0.2c1-0.2,2-0.2,2.9-0.7
			c0.8-0.4,1.8-0.1,2.7-0.4c0.6-0.3,0.6-1.6,1.5-1.4c0.9-0.2,0.6,1.5-0.2,0.9c-0.5,0.7,0.9,0.9,1.3,1.4c0.7,0.8-0.9,1-1,1.7
			c-1,0.3-1.8-1-2.8-0.6c-0.2,0.3,0,1.1-0.7,0.9c-0.9-0.5-1.6,0.1-2.5,0.2C316.5,310.5,316,311.2,316.3,311.2L316.3,311.2z
			 M334.2,317.4c-0.5-0.3-1.1,0-1.6,0c-0.4,0-0.7,0-1.1-0.1c-0.5,0-1.5-0.6-1.7,0.2c0,0.3,0.9,0.5,0.2,0.6c-0.7,0.1-1.4-0.2-2.1-0.5
			c-0.3-0.3-0.9-0.6-0.7,0c0.2,0.5-0.3,0.8-0.8,0.8c-0.7,0-1.4-0.2-1.9-0.7c-0.3,0.4,0.5,1,1,1.1c0.5,0.4-0.7,0.3-1,0.2
			c-0.4-0.1-0.9-0.1-1.2,0.1c-0.6,0.1-0.6,0.7,0.1,0.6c0.6,0.2,1.4,0.4,2,0.1c0.7-0.4,1.4-0.7,2.2-0.8c0.6-0.1,1.2-0.2,1.9-0.3
			c0.8-0.1,1.7-0.1,2.5-0.1c0.7,0.4,1.3,0,1.9-0.3c0.4-0.1,1.4-0.5,0.7-0.8C334.4,317.4,334.3,317.3,334.2,317.4L334.2,317.4z"/>
		<path d="M332,318.5c0.3,0,0.6,0,0.9-0.2c0.3-0.2,0.7-0.2,1-0.4c0.4,0,0.6-0.6,0.2-0.7c-0.2-0.2-0.5-0.3-0.8-0.4
			c-0.3-0.2-0.6-0.3-0.9-0.5c0.2-0.2,0.4-0.5,0.6-0.7c0.3-0.1,0.7-0.1,1-0.2c0.2-0.1,0.5,0,0.7,0c0.3,0.2,0.7,0.3,1,0.5
			c0.3,0.2,0.7,0.3,1,0.5c0.3,0.1,0.6,0.2,0.9,0.3c0.3,0.2,0.7,0.2,1.1,0.3c0.4,0.1,0.5,0.5,0.9,0.4c0.4,0.1,0.8,0.2,1.1,0.4
			c0.2,0.1,0.6,0.3,0.6,0.5c-0.3,0-0.6-0.3-1-0.2c-0.3,0.1-0.4,0.3-0.8,0.3c-0.1,0.4-0.7,0.3-0.9,0.7c-0.3,0.3-0.7,0.5-1.1,0.7
			c-0.3,0.1-0.7,0.1-1,0c-0.4-0.1-0.8,0-1.1-0.1c-0.4,0.1-0.8,0-1.1-0.1c-0.3-0.1-0.6-0.3-0.9-0.5c-0.3-0.1-1-0.3-1.3-0.4
			C332.1,318.6,332.1,318.6,332,318.5L332,318.5z"/>
		<path d="M306.9,291.8c-0.3,0-0.7,0-1,0.1c-0.6,0.1-1.1,0.5-1.4,0.9c-0.5,0.6-1,1-1.6,1.4c-0.3,0.2-0.5,0.5-0.7,0.8
			c0.3,0.2,0.9,0.3,1.1-0.1c0.4-0.5,0.9-0.8,1.4-1c0.5-0.1,1,0.1,1.5,0.2c0.4,0.2,0.8,0.4,1.2,0.4c0.2,0.1,0.6,0.1,1,0.2
			c0.5,0.2,0.9,0.3,1.4,0.4c0.5,0.1,1.1,0.1,1.6,0c0.1,0,0.2,0,0.4,0c-0.1,0.2-0.1,0.3-0.1,0.4c0,0.3,0.2,0.6,0.3,0.9
			c0.2,0.3,0.3,0.6,0.5,0.8c0.1,0.3,0.3,0.6,0.4,1c0.2,0.2,0.3,0.5,0.4,0.8c0.1,0.3,0.2,0.6,0.4,0.8c0.2,0.3,0.5,0.5,0.7,0.8
			c0.2,0.3,0.3,0.5,0.4,0.8c0.2,0.2,0.5,0.5,0.8,0.4c0.3,0,0.6-0.1,1-0.1l-0.1,0c-0.3-0.2-0.5-0.5-0.6-0.8c-0.1-0.3-0.1-0.6-0.2-0.9
			c0-0.3-0.1-0.6-0.2-0.9c-0.1-0.3-0.2-0.5-0.3-0.8c-0.1-0.3-0.2-0.5-0.3-0.8c-0.1-0.3-0.2-0.6-0.4-0.9c-0.2-0.3-0.3-0.6-0.5-0.9
			c-0.2-0.2-0.3-0.6-0.5-0.8c-0.1-0.1-0.2-0.2-0.4-0.3c0.1-0.1,0-0.3-0.2-0.5c-0.2-0.3-0.5-0.5-0.7-0.9c-0.4-0.5-1-0.6-1.5-0.8
			c-0.6-0.3-1.2-0.4-1.9-0.5c-0.5-0.1-1-0.2-1.5-0.2C307.1,291.8,307,291.8,306.9,291.8L306.9,291.8z"/>
		<path class="st74" d="M312.8,300.1c0-0.5-0.6-0.3-0.8,0c-0.3,0.3-0.5,0.7-0.8,1c-0.5,0.4-1.3,0.4-1.8,0.8c-0.3,0.3-0.5,0.7-1,0.9
			c-0.4,0.2-0.9,0.5-1.1,0.9c-0.1,0.3-0.3,0.8,0,1c0.4,0.2,0,0.6,0,0.9c0.2,0.3,0.7,0.4,1,0.2c0.4-0.3,0.9-0.5,1.1-0.9
			c0.4-0.5,0.8-1,1.4-1.2c0.4-0.1,0.7-0.3,0.9-0.6c0.3-0.2,0-0.7,0.5-0.7c0.4-0.1,0.6-0.5,0.8-0.8c0.2-0.3-0.2-0.7-0.1-1
			C313,300.4,312.9,300.2,312.8,300.1L312.8,300.1z"/>
		<path class="st72" d="M319.3,336H317c-0.4-0.2-0.6-0.8-1.1-0.5c-0.4,0.2-0.8,0.4-1.2,0.6c-0.4,0.2-0.7,0.5-1,0.8
			c0,0.2-0.8,0.5-0.2,0.5c0.5,0,0.8-0.5,1.3-0.6c0.4-0.2,0.8-0.1,1.2-0.1c0.3,0.1,0.7,0.1,1.1,0.1c0.4,0,0.8,0,1.2,0
			c0.6,0.1-0.2,0.4-0.4,0.5c-0.4,0.2-0.9,0.3-1.4,0.4c-0.5,0-1,0-1.4,0.2c-0.4,0.2-0.9,0.4-1.3,0.7c-0.2,0.1-0.8,0.4-0.2,0.4
			c0.4,0.1,0.8-0.1,1.2-0.2c0.7-0.3,1.4-0.4,2.1-0.5c0.5-0.1,0.9-0.3,1.4-0.4c0.3,0,1.1-0.1,0.8,0.4c-0.3,0.4-0.7,0.6-1.1,0.8
			c-0.4,0.2-0.7,0.5-1.1,0.5c-0.3-0.1-1,0.1-0.5,0.5c0.3,0.5,0.8,0.1,1.1,0c0.4-0.2,0.8-0.4,1.2-0.5c0.5-0.2,0.9-0.4,1.4-0.6
			c0.4-0.2,0.8-0.3,1.2-0.6c0.4-0.2,0.9-0.4,1.1-0.9c0.1-0.4,0.4-0.6,0.8-0.7c0.4-0.1,0.9,0,1.3-0.1c0.5,0,0.3-0.9-0.1-0.9
			c-0.4-0.2-0.7-0.5-1.1-0.8c-0.5-0.2-0.9-0.3-1.4-0.2c-0.4,0-0.7,0.3-0.9,0.6c-0.3,0.3-0.3,0.8-0.8,0.7
			C319.7,336.2,319.5,336.1,319.3,336L319.3,336z M308.1,338.9c0,0,0.4-1.6,1-2.1c1.1-1.1,4.4-1.9,4.4-1.9c-1.4,0.5-3,0.1-4.4,0.5
			c-1.1,0.3-3,1.8-3,1.8s0.7-1.5,1.3-2.1c1.6-1.8,4.2-2,6.1-1.7l2.2,0.3c0,0,0.4,0.2,0.2,0.6c-0.3,0.7-1.4,1.1-2.1,1.4
			C311.8,336.6,309.4,337.4,308.1,338.9L308.1,338.9z"/>
		<path class="st71" d="M314.8,333.3c-1.8,1.2-5.8,3.3-5.7,3.4c0,0,3.5-0.8,5.1-1.6c0.6-0.3,1.3-0.5,1.5-1c0.1-0.3,0-0.7-0.3-0.9
			C315.2,333.1,315,333.2,314.8,333.3L314.8,333.3z"/>
		<path class="st74" d="M323.3,324c-0.4,0-0.5,0.8-0.5,1.2c0,0.3,0,0.8,0.3,0.8c0.4,0,0.5-0.6,0.5-1
			C323.6,324.7,323.6,324,323.3,324z"/>
		<path class="st71" d="M321.5,335.6c0-0.3-0.4-0.2-0.6-0.1c-0.4,0.1-0.8,0.3-1.2,0.6c-0.3,0.2-0.6,0.3-0.9,0.5
			c-0.6,0.3-1.1,0.7-1.7,1c-0.3,0.1-0.5,0.2-0.8,0.3c-0.2,0-0.1,0.2,0,0.2c0.4,0.1,0.8,0,1.2-0.1c0.4-0.1,0.9-0.2,1.4-0.4
			c0.2-0.2,0.7-0.3,1-0.4c0.2-0.1,0.8-0.2,1-0.3c0.4-0.2,0.2-0.5,0.7-0.5c0.3,0,0.3-0.4,0-0.5C321.5,335.7,321.5,335.7,321.5,335.6
			L321.5,335.6z"/>
		<path class="st71" d="M317.5,339.3c0.3-0.1,0.6-0.1,1-0.2c0.4-0.1,0.8-0.2,1.1-0.3c0.2-0.1,0.4-0.2,0.5-0.3
			c0.3-0.2,0.5-0.5,0.7-0.9c0.1-0.3,0.3-0.5,0.4-0.8c0.1-0.2-0.2-0.3-0.3-0.2c-0.2,0.1-0.4,0.3-0.6,0.4c-0.2,0.2-0.4,0.3-0.6,0.5
			c-0.2,0.3-0.3,0.6-0.6,0.9c-0.1,0.1-0.3,0.2-0.4,0.3c-0.3,0.2-0.7,0.3-1,0.4C317.6,339.3,317.5,339.3,317.5,339.3L317.5,339.3z"/>
		<path class="st75" d="M321.7,316.3c0.1,0.2,0.2,0.4,0.2,0.7c0,0.3,0.1,0.6,0.1,0.9c0,0.3-0.3,0.5-0.4,0.8c0,0.2,0,0.4,0,0.6
			c-0.1,0.3,0,0.7-0.1,1c-0.2,0.3-0.6,0.1-0.9,0.1c-0.3,0.1-0.6,0.1-0.7-0.2c-0.2-0.2-0.4-0.5-0.7-0.7c-0.3-0.3-0.6-0.6-0.8-1
			c-0.2-0.3-0.3-0.5-0.5-0.8c-0.1-0.1-0.1-0.2-0.2-0.3 M318.8,319c-0.3,0-0.5,0.1-0.8,0h-0.8c-0.2-0.1-0.6-0.1-0.7-0.2
			c-0.2,0-0.3-0.2-0.5-0.2c-0.1-0.1-0.3,0-0.4,0c-0.1-0.2-0.4-0.5-0.5-0.6c-0.1-0.1-0.3-0.1-0.4-0.3c-0.2,0-0.3-0.3-0.3-0.4
			c-0.1-0.1-0.2-0.3-0.3-0.5c-0.1-0.2-0.2-0.3-0.3-0.5c0,0,0-0.1,0-0.1"/>
		<path class="st75" d="M315.5,318.6c-0.1,0.4-0.5,0-0.7,0c-0.2-0.1-0.3-0.2-0.5-0.2c-0.1-0.1-0.3-0.2-0.4-0.2
			c-0.2-0.1-0.4-0.2-0.5-0.3c-0.2-0.1-0.4-0.3-0.6-0.3c-0.2-0.2-0.4-0.3-0.6-0.5c-0.2-0.2-0.5-0.3-0.7-0.6c-0.2-0.2-0.4-0.4-0.4-0.7
			c0-0.2-0.1-0.5-0.2-0.7c0-0.1-0.1-0.2-0.1-0.3"/>
		<path class="st76" d="M332.9,318.8c0.2,0,0.5,0,0.7-0.1c0.2,0,0.5-0.1,0.7-0.2c0.2-0.1,0.4-0.3,0.7-0.3c0.3,0,0.6,0.1,0.8-0.1
			c0.1-0.2,0.4-0.3,0.6-0.2c0.2,0,0.5,0,0.7,0.1c0.2,0.1,0.4,0.1,0.7,0.2c0.2,0.1,0.4,0.2,0.6,0.3c0.2,0.1-0.2,0.3-0.2,0.4
			c-0.2,0.1-0.5,0-0.7,0.2c-0.2,0.1-0.4,0.3-0.5,0.5c-0.1,0.2-0.4,0.2-0.6,0.3c-0.2,0-0.4,0-0.6,0c-0.2,0-0.4,0.1-0.5,0
			c-0.2-0.1-0.5-0.1-0.7-0.1c-0.2-0.1-0.3-0.3-0.6-0.4c-0.3-0.1-0.6-0.3-0.9-0.4C333,318.9,332.9,318.9,332.9,318.8L332.9,318.8z"/>
		<path class="st77" d="M303.5,297.7c-0.5-0.1-1.1,0.1-1.6,0.1c-0.5,0.1-1,0-1.5,0.1c-0.5-0.1-1.1,0-1.6,0c-0.8,0.1-1.6,0.4-2.4,0.6
			c-1.1,0.1-2.2,0-3.3,0c-0.8,0.1,0.1-0.9,0.5-0.9c1-0.3,2-0.6,3-0.7c0.8-0.1,1.5-0.3,2.3-0.5c0.6-0.2,1.2-0.3,1.9-0.5
			c0.6-0.1,1.3-0.2,1.9-0.1c0.7-0.2,1.3-0.3,2-0.6c0.6-0.3,1.3-0.1,1.8-0.5c0.3-0.5,1-0.5,1.5-0.4c0.6,0.1,1.2,0.3,1.6,0.8
			c0.4,0.6-0.9,0.5-0.5,1.2c-0.2,0.2-0.7,0.3-1,0.3c-0.3,0-0.6,0.1-0.9-0.1c-0.5-0.2-0.9-0.6-1.3-0.8c-0.5-0.1-0.5,0.8-1.1,0.7
			c-0.8,0.3-1.6,0.2-2.4,0.2c0.5,0.2,1,0.4,1.4,0.7C304,297.6,303.7,297.7,303.5,297.7L303.5,297.7z"/>
		<path class="st73" d="M306.7,295.5l0.5-0.2l0.3-0.5c0,0,0.4,0.6,0.2,0.9C307.5,296,306.7,295.5,306.7,295.5L306.7,295.5z
			 M308,294.3c0.1-0.1-0.4-0.4,0-0.5c0.4-0.5,1.1-0.1,1.5,0.1c0.9,0.3,1.9,0.6,2.5,1.4c0.9,1,1.1,2.4,1.8,3.5
			c0.3,0.5,0.5,1.1,0.7,1.7c0.1,0.5,0.8,0.9,0.5,1.4c-0.4,0.3-0.9-0.1-1.3-0.2c-0.6-0.1-0.3,0.6,0.1,0.6c0.4,0.2,0.5,0.8,0,0.7
			c-0.5-0.1-1.1-0.1-1.6-0.2c-0.4-0.2,0.1-0.6,0.3-0.8c0.3-0.2,0.7-0.4,0.7-0.9c0-0.8-0.5-1.4-0.6-2.2c-0.1-0.6-0.3-1.1-0.6-1.6
			c-0.2-1.2-1.3-2-2.4-2.4C309,294.9,308.5,294.7,308,294.3L308,294.3L308,294.3z"/>
		<path class="st76" d="M312,294.9c0.2,0.1,0.3,0.2,0.5,0.3c0.1,0.1,0.4,0.6,0.5,0.7c0.1,0.1,0.1,0.3,0.1,0.4c0,0.2,0.2,0.3,0.3,0.5
			c0.1,0.2,0.2,0.4,0.2,0.6c0.1,0.2,0.2,0.3,0.3,0.5c0,0.2,0.1,0.3,0.2,0.5c0.1,0.1,0.1,0.4-0.1,0.4c-0.1,0-0.3-0.1-0.4-0.2
			c-0.2-0.2-0.3-0.4-0.4-0.6c-0.1-0.1-0.1-0.3-0.2-0.4c-0.1-0.2-0.1-0.4-0.2-0.5c-0.1-0.2-0.1-0.3-0.2-0.5c-0.1-0.2-0.1-0.4-0.3-0.6
			c-0.1-0.2-0.4-0.7-0.4-1C312,295,312,295,312,294.9z M308.4,293.6c-0.1,0-0.2-0.1-0.3-0.2c-0.1-0.1-0.3-0.1-0.3-0.2
			c-0.2,0.1,0-0.2-0.2-0.1c-0.1-0.1,0-0.2-0.1-0.3c-0.1-0.1-0.2-0.2-0.2-0.2c0,0-0.1-0.1,0-0.1c0.1,0,0.3,0,0.4,0
			c0.1,0,0.2,0.1,0.3,0.1c0.2,0,0.3,0,0.5,0c0.1,0,0.1,0.1,0.2,0c0.1,0,0.1,0.1,0.1,0c0.1,0,0.2,0.2,0.2,0.2
			c0.1,0.1,0.1,0.2,0.2,0.3c0,0,0,0.2,0,0.1c0,0,0,0.1,0,0.1c-0.1,0.1-0.2,0.1-0.3,0.2c-0.1,0-0.2,0.1-0.3,0.1
			C308.6,293.6,308.5,293.6,308.4,293.6L308.4,293.6z"/>
		<path class="st73" d="M308.1,293.4c-0.2,0.1-0.4,0.1-0.6,0.1c-0.1,0-0.2,0.1-0.3,0.2c-0.1,0.1-0.2,0.1-0.4,0.1
			c-0.1,0-0.2-0.1-0.3-0.1c-0.1,0-0.1-0.2-0.2-0.2c-0.1-0.1-0.2-0.1-0.3-0.2c-0.1,0-0.1-0.2-0.1-0.2c0-0.1,0-0.2,0-0.3
			c0-0.1,0.1-0.2,0.2-0.2c0.2,0,0.4,0,0.6,0c0.1-0.1,0.2-0.1,0.3-0.1c0.1,0,0.2,0.2,0.3,0.2C307.8,293,308,293.2,308.1,293.4
			L308.1,293.4z M309.1,292.9c0.1-0.1,0.3-0.1,0.4-0.2c0.2,0,0.3,0.1,0.5,0.1c0.2,0,0.3,0.1,0.5,0.2c0.2,0.1,0.3,0.1,0.5,0.2
			c0.1,0.1,0.3,0.2,0.4,0.2c0.1,0.1,0.3,0.1,0.4,0.2c0.1,0.1,0.3,0.2,0.4,0.4c0.1,0.1,0,0.3-0.1,0.2c-0.1-0.1-0.3-0.1-0.5-0.2
			c-0.1,0-0.3,0-0.4-0.1c-0.2,0-0.3-0.1-0.5-0.2c-0.2-0.1-0.4-0.2-0.6-0.2c-0.1-0.1-0.2-0.1-0.3-0.1c-0.2-0.1-0.4-0.2-0.6-0.3
			C309.2,293,309.1,293,309.1,292.9z"/>
		<path d="M311.4,296.1c-0.6,0-1.2,0.2-1.8,0c-0.5-0.1-0.8,0.3-1.2,0.4c-0.5-0.1-0.6,0.7-1.1,0.6c-0.4,0-0.9-0.3-1.2-0.2
			c0.8,0.4,1.6,0.7,2.3,1.2c0.4,0.4,0.8,0.7,1.3,0.8c0.3,0.1,0.7,0.5,0.6,0.9c-0.2,0.5-0.9,0.6-0.9,1.1c-0.1,0.5-0.6,0.7-0.8,1.1
			c-0.2,0.3-0.6,0.5-0.7,1c0.1,0.5,0.7,0.1,0.7-0.3c0.1-0.3,0.4-0.8,0.8-0.6c0.3,0.5,0.7-0.3,1.1-0.1c0.2,0.3,0.6,0.4,0.8,0.1
			c0.3-0.1,0.7-0.3,0.4-0.7c0-0.4,0.5-0.4,0.7-0.6c0.3-0.1,0.6-0.5,0.3-0.8c-0.3-0.4,0-1-0.4-1.4c-0.3-0.5,0-1-0.2-1.5
			C312,296.8,311.8,296.2,311.4,296.1L311.4,296.1z"/>
		<path class="st74" d="M327.9,312.8c-0.7,0-1.3,0.5-2,0.6c-0.8,0.1,0.2,0.5,0.5,0.7c0.7,0.4,1.5,0.6,2.2,0.9
			c0.7,0.3,1.5,0.5,2.2,0.4c0.7-0.2,0.2-0.9,0-1.3c-0.4-0.6-1.2-0.9-1.7-1.4C328.7,312.3,328.2,312.4,327.9,312.8L327.9,312.8z"/>
		<path class="st73" d="M327.4,314.3c-0.3,0-0.5,0.1-0.8,0.1c-0.3,0-0.6,0.1-0.9-0.1c-0.3-0.1-0.6-0.1-0.9-0.3
			c-0.2-0.1-0.5-0.2-0.6-0.4c-0.2-0.3,0.2-0.3,0.4-0.3c0.3-0.1,0.6-0.1,1-0.1c0.3,0.2,0.7,0.3,1.1,0.5c0.3,0.1,0.6,0.3,0.8,0.5
			C327.3,314.1,327.4,314.2,327.4,314.3L327.4,314.3z"/>
		<path class="st73" d="M330.8,314.1c0,0.3-0.5,0-0.7,0.1c-0.4,0.1-0.7-0.1-1-0.2c-0.5-0.2-1.1-0.5-1.6-0.6
			c-0.3-0.1-0.8-0.3-0.4-0.6c0.3-0.2,0.7-0.4,1.1-0.5c0.4,0,0.7,0.2,1.1,0.4c0.4,0.2,0.8,0.3,1.1,0.6
			C330.6,313.5,330.9,313.8,330.8,314.1L330.8,314.1z"/>
		<path class="st74" d="M321.3,310.7c-0.5,0.3-1.1,0.4-1.7,0.4c-0.5,0.2-1.4-0.3-1.6,0.4c-0.3,0.6,0.4,0.8,0.8,1.1
			c1.1,0.6,2.3,0.6,3.5,0.6c0.3,0,1.4-0.1,0.8-0.5c-0.6-0.5-1-1.1-1.5-1.6C321.5,311,321.4,310.8,321.3,310.7L321.3,310.7z
			 M327.3,311.1c-0.2,0-0.5-0.1-0.7-0.2c-0.3-0.1-0.6-0.3-0.9-0.5c-0.4-0.2-0.8-0.5-1.2-0.7c-0.2-0.1-0.2-0.3,0.1-0.3
			c0.2,0,0.3-0.4,0.5-0.1c0.3,0.2,0.5,0.4,0.8,0.6c0.3,0.2,0.5,0.5,0.8,0.6C326.9,310.6,327.3,310.8,327.3,311.1L327.3,311.1z
			 M326.5,312.2c0,0-1.1,0.3-1.6,0.1c-0.4-0.1-0.8-0.2-1.1-0.4c-0.4-0.2-0.9-0.4-1.2-0.8c-0.3-0.3,0.1-0.9,0.5-0.7
			c0.3-0.1,0.2-0.7,0.6-0.4c0.6,0.3,1.1,0.5,1.6,0.9c0.3,0.3,0.6,0.5,0.9,0.8C326.3,311.9,326.5,312.2,326.5,312.2L326.5,312.2z
			 M318.4,304.6c0.7,0.2,1.6,0.5,2,1.2c0.6,0.8-0.6,1.2-1.2,0.8c-0.9-0.5-1.9-0.9-2.8-1.2c-0.9,0.1,0.4,0.7,0.7,0.9
			c0.4,0.2,0.8,0.7,0.8,1.2c-0.6,0.5-1.4,0-2.1-0.1c-0.8-0.1-1.2-0.7-1.6-1.2c-0.3-0.4-0.7-0.6-1.2-0.4c0,0.6,0.5,0.8,0.8,1.3
			c0.3,0.3,1.3,1.1,0.3,1.1c-0.7-0.2-1.4-0.7-1.7-1.3c-0.4-0.4-0.8-1.4,0.1-1.5c0.8-0.5,1.7-0.7,2.5-0.7c1-0.1,1.9,0.1,2.9-0.2
			C317.9,304.5,318.5,304.2,318.4,304.6L318.4,304.6z"/>
		<path class="st73" d="M311.1,305.1c-0.1,0.2-0.2,0.4-0.2,0.6c0,0.3,0,0.5,0,0.8c0.1,0.2,0.1,0.4,0.2,0.6c0.1,0.2,0.3,0.4,0.5,0.5
			c0.1,0.2,0.3,0.2,0.5,0.3c0.1,0.1,0.3,0.1,0.4,0.2c0.1,0.1,0.4,0.1,0.6,0.2c0.2,0,0.4,0,0.5-0.2c0.2-0.1,0-0.3-0.1-0.3
			c-0.2,0-0.3-0.2-0.5-0.3c-0.2-0.1-0.3-0.3-0.4-0.5c-0.1-0.2-0.2-0.3-0.3-0.5c-0.1-0.1-0.2-0.3-0.3-0.4c-0.2-0.1-0.3-0.3-0.4-0.5
			c-0.1-0.1-0.3-0.3-0.4-0.5C311.1,305.2,311.1,305.2,311.1,305.1L311.1,305.1z M317.4,307.6c-0.4,0-1.1-0.2-1.5-0.3
			c-0.5-0.2-1-0.5-1.4-1c-0.4-0.4-0.8-0.8-1.3-1.1c-0.5-0.1-0.7,0.5-0.4,0.8c0.3,0.4,0.7,0.8,1,1.2c0.4,0.4,0.8,0.6,1.2,0.9
			c0.6,0.4,1.3,0.5,1.9,0.5c0.4,0,0.8-0.3,0.9-0.7C318,307.7,317.6,307.6,317.4,307.6L317.4,307.6z M316,310.9
			c-0.4,0.1-0.7,0.1-1-0.2c-0.3-0.1-0.5-0.4-0.7-0.7c-0.2-0.3-0.5-0.6-0.9-0.7c-0.3-0.1-0.7,0.1-0.6,0.5c0,0.3,0.3,0.6,0.5,0.8
			c0.4,0.3,0.8,0.5,1.3,0.7c0.2,0.1,0.5,0.1,0.7,0.1c0.3,0,0.7,0.1,0.7-0.2C316,311.1,316,311,316,310.9L316,310.9z M319.6,309.8
			c0.3,0.1,0.5,0.5,0.3,0.8c-0.2,0.3-0.6,0.5-1,0.5c-0.3,0-0.7,0-1-0.1c-0.4-0.1-0.7-0.3-1-0.5c-0.4-0.1-0.4-0.6-0.7-0.8
			c-0.2-0.3,0.4-0.4,0.6-0.3c0.4,0.1,0.6,0.5,0.9,0.6c0.3,0.1,0.6,0.3,0.9,0.3c0.3,0.1,0.6,0.1,0.8-0.2
			C319.4,310.1,319.5,309.9,319.6,309.8z"/>
		<path class="st73" d="M322.7,309.1c0.3,0.3,0.1,0.8-0.3,0.9c-0.3,0.1-0.6,0.1-0.9,0c-0.5-0.1-0.9-0.4-1.2-0.6
			c-0.2-0.2-0.6-0.3-0.8-0.5c-0.1-0.4,0.3-0.7,0.6-0.5c0.5,0.2,1,0.2,1.5,0.5C321.9,308.9,322.3,309.1,322.7,309.1L322.7,309.1z"/>
		<path class="st75" d="M323.7,305.6c1.6,1.3,3.1,2.6,4.3,4.2c1,1.1,1.5,2.7,2.9,3.4c2,2.1,10.4,4.5,10.4,5.2
			c-1.9-0.8-2.8,1.9-4.7,1.4c-1.7,0.5-3.2-0.6-4.7-1.3c-2.3-0.1-4.6,0-6.7,1.2c-1.1,0.6-2.4-0.3-3.3,0l-0.1,0.2l-0.1,0.1 M311.1,316
			c-1.3-0.7-2.3-1.9-3.6-2.7c-1-1.4-2.2-2.7-2.2-4.5c-0.2-1.9-0.6-4.4,0.2-6.2c-0.6-1.4-1.5-1.8-2.2-3.1c-0.5-1.9-2.4-3-1.3-4.4
			c1.3-1.1,2.2-2.5,3.8-3.1c1.4-0.3,2.7-0.2,4.1,0.3c1.7,0.2,2.6,1.6,3.5,2.9c1.1,1.7,1.8,3.6,2.1,5.6c0.8,1.6,2.9,2,4.4,2.7
			c1.3,0.6,2.6,1.2,3.7,2.1"/>
	</g>
	<rect x="340.6" y="-12.3" class="st0" width="136" height="278.2"/>
</g>
</svg>
